<svg width="24" height="24" viewBox="0 0 24 24" fill="none" xmlns="http://www.w3.org/2000/svg">
<g clip-path="url(#clip0)">
<path d="M18.908 2.37072C16.022 -0.11028 9.63683 -1.33908 4.85183 2.22312C0.362625 5.22072 0.140625 10.6987 0.140625 10.6987C0.905025 13.6963 3.93863 16.5703 9.78443 15.1705C9.09443 11.1409 10.4474 0.94632 18.908 2.37132V2.37072Z" fill="#00ACD2"/>
<path d="M15.9019 12.1148C12.7441 14.7248 3.13214 18.7088 0.139943 10.6982C-0.574057 14.4278 1.40894 20.636 6.89894 22.9826C11.7493 25.3562 16.8049 22.607 16.8049 22.607C19.0285 20.4488 20.0425 16.457 15.9019 12.1148Z" fill="#C8E9EB"/>
<path d="M10.1982 8.45401C14.0466 9.87301 22.2738 16.0218 16.8042 22.6074C20.4048 21.3588 24.627 16.581 23.922 10.6722C23.5608 5.30161 18.9084 2.37061 18.9084 2.37061C15.9198 1.53181 11.9034 2.71141 10.1982 8.45401Z" fill="#662D91"/>
</g>
<defs>
<clipPath id="clip0">
<rect width="24" height="24" fill="white"/>
</clipPath>
</defs>
</svg>
