<svg width="56" height="56" viewBox="0 0 56 56" fill="none" xmlns="http://www.w3.org/2000/svg">
<path d="M13.9997 18.6668C16.577 18.6668 18.6663 16.5775 18.6663 14.0002C18.6663 11.4228 16.577 9.3335 13.9997 9.3335C11.4223 9.3335 9.33301 11.4228 9.33301 14.0002C9.33301 16.5775 11.4223 18.6668 13.9997 18.6668Z" stroke="#1B5BF7" stroke-width="3.5" stroke-linecap="round" stroke-linejoin="round"/>
<path d="M41.9997 46.6668C44.577 46.6668 46.6663 44.5775 46.6663 42.0002C46.6663 39.4228 44.577 37.3335 41.9997 37.3335C39.4223 37.3335 37.333 39.4228 37.333 42.0002C37.333 44.5775 39.4223 46.6668 41.9997 46.6668Z" stroke="#1B5BF7" stroke-width="3.5" stroke-linecap="round" stroke-linejoin="round"/>
<path d="M25.667 14H37.3337C38.5713 14 39.7583 14.4917 40.6335 15.3668C41.5087 16.242 42.0003 17.429 42.0003 18.6667V37.3333" stroke="#1B5BF7" stroke-width="3.5" stroke-linecap="round" stroke-linejoin="round"/>
<path d="M32.667 21L25.667 14L32.667 7" stroke="#1B5BF7" stroke-width="3.5" stroke-linecap="round" stroke-linejoin="round"/>
<path d="M30.3333 41.9998H18.6667C17.429 41.9998 16.242 41.5082 15.3668 40.633C14.4917 39.7578 14 38.5708 14 37.3332V18.6665" stroke="#1B5BF7" stroke-width="3.5" stroke-linecap="round" stroke-linejoin="round"/>
<path d="M23.333 35L30.333 42L23.333 49" stroke="#1B5BF7" stroke-width="3.5" stroke-linecap="round" stroke-linejoin="round"/>
</svg>
