<svg width="498" height="418" viewBox="0 0 498 418" fill="none" xmlns="http://www.w3.org/2000/svg">
<path d="M215.72 123.032H435.417H435.656H498V406.668H473.102V417.752H458.354H421.677H231.914V406.668H215.72V123.032Z" fill="#C1D4EE"/>
<path fill-rule="evenodd" clip-rule="evenodd" d="M419.732 95.8487H363.351V92.9686H419.732C420.017 92.9757 420.301 93.0045 420.582 93.0549H449.444C451.645 93.0578 453.428 94.8334 453.431 97.0245V104.095C453.431 105.148 453.011 106.158 452.263 106.902C451.516 107.647 450.502 108.065 449.444 108.065H421.016C420.597 108.181 420.166 108.243 419.732 108.248H363.351V105.39H419.732C420.928 105.39 421.898 104.424 421.898 103.232V98.0547C421.91 96.8503 420.941 95.8635 419.732 95.8487ZM421.487 93.3084C421.454 93.3084 421.418 93.2932 421.383 93.2785C421.367 93.2717 421.351 93.265 421.335 93.2598C421.355 93.2643 421.376 93.2732 421.397 93.2823C421.428 93.2953 421.458 93.3084 421.487 93.3084ZM423.74 94.9642C423.659 94.8563 423.572 94.7538 423.486 94.6568V94.6514C423.576 94.7507 423.661 94.8551 423.74 94.9642ZM424.26 95.8002C424.191 95.6536 424.113 95.5114 424.027 95.3741V95.3579C424.114 95.5004 424.191 95.6481 424.26 95.8002ZM424.444 96.1831C424.517 96.3692 424.577 96.5602 424.623 96.7549C424.578 96.5548 424.518 96.3582 424.444 96.167V96.1831ZM424.812 103.227C424.812 103.544 424.781 103.86 424.72 104.171V104.155C424.78 103.849 424.811 103.539 424.812 103.227ZM424.634 104.489C424.586 104.672 424.528 104.852 424.46 105.029C424.529 104.847 424.587 104.661 424.634 104.473V104.489ZM424.07 105.827C424.152 105.692 424.222 105.557 424.293 105.422V105.406C424.222 105.541 424.152 105.676 424.07 105.827ZM423.799 106.226C423.732 106.318 423.659 106.406 423.583 106.49C423.66 106.401 423.732 106.307 423.799 106.21V106.226Z" fill="#75D8BC"/>
<g style="mix-blend-mode:overlay" opacity="0.6">
<path d="M363.351 108.27H419.732C422.537 108.267 424.81 106.004 424.812 103.211V98.0331C424.81 95.2394 422.538 92.9745 419.732 92.9686H363.351V95.8487H419.732C420.923 95.8633 421.884 96.8207 421.899 98.0061V103.184C421.899 104.375 420.929 105.341 419.732 105.341H363.351V108.27Z" fill="#030F1C"/>
</g>
<path d="M424.168 105.714H424.125L424.168 105.633V105.714Z" fill="#FFE6A5"/>
<path d="M419.733 95.8487C420.923 95.8632 421.885 96.8207 421.899 98.0061V103.184C421.899 104.375 420.929 105.341 419.733 105.341H366V95.8487H419.733Z" fill="#FFE6A5"/>
<g style="mix-blend-mode:overlay" opacity="0.6">
<path d="M419.733 95.8487C420.923 95.8632 421.885 96.8207 421.899 98.0061V98.7612H366V95.8217L419.733 95.8487Z" fill="#030F1C"/>
</g>
<path d="M424.168 95.6114C424.141 95.5574 424.114 95.5035 424.081 95.4496H424.168V95.6114Z" fill="#FFE6A5"/>
<path fill-rule="evenodd" clip-rule="evenodd" d="M424.19 110.972H367.814V108.092H424.19C424.475 108.096 424.76 108.125 425.04 108.178H453.902C456.104 108.178 457.889 109.956 457.889 112.148V119.241C457.889 121.433 456.104 123.21 453.902 123.21H425.474C425.055 123.327 424.624 123.388 424.19 123.394H367.814V120.513H424.19C425.4 120.51 426.38 119.534 426.383 118.329V113.157C426.38 111.951 425.4 110.975 424.19 110.972ZM427.315 109.165L427.337 109.183L427.337 109.183L427.337 109.183L427.337 109.184L427.338 109.184C427.416 109.247 427.49 109.307 427.564 109.376C427.467 109.311 427.385 109.246 427.299 109.176L427.315 109.165ZM428.214 110.066C428.133 109.964 428.051 109.861 427.959 109.759L427.943 109.769C427.986 109.817 428.029 109.864 428.072 109.911C428.122 109.964 428.17 110.017 428.214 110.066ZM428.907 111.29C428.954 111.411 428.993 111.537 429.03 111.655C429.049 111.716 429.068 111.775 429.086 111.83C429.032 111.646 428.978 111.474 428.907 111.29ZM429.097 119.597C429.073 119.691 429.046 119.784 429.017 119.874C428.989 119.965 428.959 120.052 428.924 120.136C428.956 120.052 428.987 119.965 429.017 119.874C429.037 119.807 429.057 119.739 429.076 119.669L429.097 119.597ZM428.263 121.333C428.192 121.425 428.116 121.511 428.04 121.598C428.093 121.548 428.135 121.499 428.174 121.453L428.174 121.453L428.174 121.453C428.204 121.418 428.232 121.385 428.263 121.355V121.333Z" fill="#DEE6EE"/>
<g style="mix-blend-mode:overlay" opacity="0.6">
<path d="M367.814 123.394H424.19C426.997 123.391 429.272 121.125 429.275 118.329V113.157C429.272 110.361 426.997 108.095 424.19 108.092H367.814V110.972H424.19C425.4 110.975 426.38 111.951 426.383 113.157V118.329C426.38 119.534 425.4 120.51 424.19 120.513H367.814V123.394Z" fill="#030F1C"/>
</g>
<path d="M428.626 120.815H428.583C428.583 120.815 428.583 120.756 428.626 120.729V120.815Z" fill="#FFE6A5"/>
<path d="M424.19 110.972C425.4 110.975 426.381 111.951 426.384 113.157V118.329C426.381 119.534 425.4 120.51 424.19 120.513H370.458V110.972H424.19Z" fill="#FFE6A5"/>
<g style="mix-blend-mode:overlay" opacity="0.6">
<path d="M424.19 110.972C425.4 110.975 426.381 111.951 426.384 113.157V113.906H370.458V110.972H424.19Z" fill="#030F1C"/>
</g>
<path d="M428.625 110.735C428.625 110.681 428.571 110.627 428.538 110.573H428.625V110.735Z" fill="#FFE6A5"/>
<g style="mix-blend-mode:overlay" opacity="0.6">
<rect width="51.4255" height="11.0945" transform="matrix(-1 0 0 1 473.103 406.657)" fill="#030F1C"/>
</g>
<g style="mix-blend-mode:overlay" opacity="0.6">
<rect width="51.4255" height="11.0945" transform="matrix(-1 0 0 1 473.103 406.657)" fill="#030F1C"/>
</g>
<g style="mix-blend-mode:overlay" opacity="0.6">
<rect width="62.5826" height="283.63" transform="matrix(-1 0 0 1 498 123.032)" fill="#030F1C"/>
</g>
<g style="mix-blend-mode:overlay" opacity="0.6">
<rect width="189.476" height="5.73331" transform="matrix(-1 0 0 1 421.666 406.673)" fill="#030F1C"/>
</g>
<g style="mix-blend-mode:overlay" opacity="0.6">
<path d="M392.018 151.996V146.014C392.018 144.902 391.115 144 389.998 143.997H391.433C392.551 144 393.456 144.901 393.459 146.014V151.996C393.459 152.531 393.246 153.044 392.866 153.422C392.486 153.8 391.971 154.013 391.433 154.013H389.998C390.535 154.013 391.05 153.8 391.429 153.422C391.808 153.043 392.02 152.53 392.018 151.996Z" fill="#030F1C"/>
</g>
<g style="mix-blend-mode:overlay" opacity="0.6">
<rect width="35.9898" height="10.0158" rx="3.74" transform="matrix(-1 0 0 1 393.508 143.997)" fill="#030F1C"/>
</g>
<g style="mix-blend-mode:overlay" opacity="0.6">
<path fill-rule="evenodd" clip-rule="evenodd" d="M331.846 139.186V194.777H331.727V198.59H425.263V198.364V135.179H420.957V135.216H331.808V139.186H331.846ZM333.038 194.777V139.186H420.957V194.777H333.038Z" fill="#030F1C"/>
</g>
<g style="mix-blend-mode:overlay" opacity="0.6">
<rect width="4.36536" height="63.3364" transform="matrix(-1 0 0 1 425.322 135.2)" fill="#030F1C"/>
</g>
<g style="mix-blend-mode:overlay" opacity="0.6">
<path d="M287.261 151.996V146.014C287.261 144.9 286.354 143.997 285.235 143.997H286.676C287.793 144 288.696 144.902 288.696 146.014V151.996C288.698 152.53 288.486 153.043 288.106 153.422C287.727 153.8 287.213 154.013 286.676 154.013H285.235C285.773 154.014 286.289 153.802 286.669 153.424C287.05 153.045 287.262 152.531 287.261 151.996Z" fill="#030F1C"/>
</g>
<g style="mix-blend-mode:overlay" opacity="0.6">
<rect width="35.9898" height="10.0158" rx="3.74" transform="matrix(-1 0 0 1 288.745 143.997)" fill="#030F1C"/>
</g>
<g style="mix-blend-mode:overlay" opacity="0.6">
<path fill-rule="evenodd" clip-rule="evenodd" d="M227.088 139.186V194.777H226.969V198.59H320.499V198.364V135.179H316.193V135.216H227.05V139.186H227.088ZM228.28 194.777V139.186H316.193V194.777H228.28Z" fill="#030F1C"/>
</g>
<g style="mix-blend-mode:overlay" opacity="0.6">
<rect width="4.36536" height="63.3364" transform="matrix(-1 0 0 1 320.559 135.2)" fill="#030F1C"/>
</g>
<g style="mix-blend-mode:overlay" opacity="0.6">
<path d="M392.018 245.406V239.425C392.018 238.313 391.115 237.411 389.998 237.408H391.433C392.551 237.411 393.456 238.312 393.459 239.425V245.406C393.456 246.519 392.551 247.421 391.433 247.424H389.998C391.115 247.421 392.018 246.518 392.018 245.406Z" fill="#030F1C"/>
</g>
<g style="mix-blend-mode:overlay" opacity="0.6">
<rect width="35.9898" height="10.0158" rx="3.74" transform="matrix(-1 0 0 1 393.508 237.408)" fill="#030F1C"/>
</g>
<g style="mix-blend-mode:overlay" opacity="0.6">
<path fill-rule="evenodd" clip-rule="evenodd" d="M331.846 232.597V288.188L331.727 288.204V292.017H425.263V291.791V228.589H420.957V228.627H331.808V232.597H331.846ZM333.038 288.188V232.597H420.957V288.188H333.038Z" fill="#030F1C"/>
</g>
<g style="mix-blend-mode:overlay" opacity="0.6">
<rect width="4.36536" height="63.3364" transform="matrix(-1 0 0 1 425.322 228.611)" fill="#030F1C"/>
</g>
<g style="mix-blend-mode:overlay" opacity="0.6">
<path d="M287.261 245.406V239.425C287.261 238.311 286.354 237.408 285.235 237.408H286.676C287.793 237.411 288.696 238.313 288.696 239.425V245.406C288.696 246.518 287.793 247.421 286.676 247.424H285.235C286.354 247.424 287.261 246.521 287.261 245.406Z" fill="#030F1C"/>
</g>
<g style="mix-blend-mode:overlay" opacity="0.6">
<rect width="35.9898" height="10.0158" rx="3.74" transform="matrix(-1 0 0 1 288.745 237.408)" fill="#030F1C"/>
</g>
<g style="mix-blend-mode:overlay" opacity="0.6">
<path fill-rule="evenodd" clip-rule="evenodd" d="M227.088 232.597V288.188L226.969 288.204V292.017H320.499V291.791V228.589H316.193V228.627H227.05V232.597H227.088ZM228.28 288.188V232.597H316.193V288.188H228.28Z" fill="#030F1C"/>
</g>
<g style="mix-blend-mode:overlay" opacity="0.6">
<rect width="4.36536" height="63.3364" transform="matrix(-1 0 0 1 320.559 228.611)" fill="#030F1C"/>
</g>
<g style="mix-blend-mode:overlay" opacity="0.6">
<path d="M392.018 338.817V332.836C392.02 332.301 391.807 331.788 391.428 331.41C391.049 331.031 390.535 330.819 389.998 330.819H391.433C391.972 330.816 392.49 331.027 392.873 331.406C393.255 331.784 393.47 332.299 393.47 332.836V338.817C393.467 339.93 392.562 340.832 391.444 340.834H390.009C391.121 340.826 392.018 339.925 392.018 338.817Z" fill="#030F1C"/>
</g>
<g style="mix-blend-mode:overlay" opacity="0.6">
<rect width="35.9898" height="10.0158" rx="3.74" transform="matrix(-1 0 0 1 393.508 330.819)" fill="#030F1C"/>
</g>
<g style="mix-blend-mode:overlay" opacity="0.6">
<path fill-rule="evenodd" clip-rule="evenodd" d="M331.846 326.008V381.599H331.727V385.412H425.263V385.18V321.995H420.957V322.038H331.808V326.008H331.846ZM333.038 381.599V326.008H420.957V381.599H333.038Z" fill="#030F1C"/>
</g>
<g style="mix-blend-mode:overlay" opacity="0.6">
<rect width="4.36536" height="63.3364" transform="matrix(-1 0 0 1 425.322 322.022)" fill="#030F1C"/>
</g>
<g style="mix-blend-mode:overlay" opacity="0.6">
<path d="M287.261 338.817V332.836C287.262 332.3 287.05 331.786 286.669 331.408C286.289 331.029 285.773 330.817 285.235 330.819H286.676C287.213 330.819 287.727 331.031 288.106 331.41C288.486 331.788 288.698 332.301 288.696 332.836V338.817C288.696 339.929 287.793 340.831 286.676 340.834H285.235C286.354 340.834 287.261 339.931 287.261 338.817Z" fill="#030F1C"/>
</g>
<g style="mix-blend-mode:overlay" opacity="0.6">
<rect width="35.9898" height="10.0158" rx="3.74" transform="matrix(-1 0 0 1 288.745 330.819)" fill="#030F1C"/>
</g>
<g style="mix-blend-mode:overlay" opacity="0.6">
<path fill-rule="evenodd" clip-rule="evenodd" d="M227.088 326.008V381.599H226.969V385.412H320.499V385.18V321.995H316.193V322.038H227.05V326.008H227.088ZM228.28 381.599V326.008H316.193V381.599H228.28Z" fill="#030F1C"/>
</g>
<g style="mix-blend-mode:overlay" opacity="0.6">
<rect width="4.36536" height="63.3364" transform="matrix(-1 0 0 1 320.559 322.022)" fill="#030F1C"/>
</g>
<path fill-rule="evenodd" clip-rule="evenodd" d="M260.668 78.6811C259.661 61.5835 247.236 2.91252 247.236 2.91252C247.236 2.91252 250.925 13.0146 262.336 39.8259C265.233 46.6842 267.513 53.7847 269.15 61.0442C270.551 52.8359 272.664 44.7639 275.465 36.9188C285.149 10.1021 288.279 0 288.279 0C288.279 0 279.489 48.995 277.323 70.4775C278.767 64.283 280.949 58.2824 283.822 52.6033C293.5 33.5155 296.631 26.3259 296.631 26.3259C296.631 26.3259 286.097 68.0935 285.257 80.2614C285.21 80.9306 285.166 81.5357 285.124 82.1082L285.124 82.1094L285.124 82.111L285.124 82.1114C285.103 82.4006 285.082 82.6815 285.062 82.9581H260.971C260.884 82.0237 260.82 81.0288 260.75 79.9333C260.724 79.5302 260.697 79.1134 260.668 78.6811ZM271.929 78.4601C271.947 78.5967 271.966 78.7348 271.966 78.8699H271.977L271.976 78.8547C271.96 78.6814 271.944 78.5034 271.912 78.3305L271.917 78.367C271.921 78.3979 271.925 78.429 271.929 78.4601ZM271.717 76.3888C271.717 76.266 271.699 76.1432 271.681 76.0187L271.681 76.0186C271.673 75.9626 271.664 75.9063 271.658 75.8495C271.69 76.049 271.712 76.2109 271.728 76.3888H271.717ZM271.356 73.3522C271.374 73.4493 271.392 73.5464 271.392 73.6435H271.403C271.396 73.6003 271.39 73.5572 271.384 73.514C271.372 73.4277 271.36 73.3414 271.338 73.2551C271.343 73.2875 271.349 73.3199 271.356 73.3522Z" fill="#85CEB4"/>
<path d="M285.023 82.9366C285.023 83.0121 285.023 83.093 285.023 83.1631H291.219V83.2278C295.276 96.365 295.276 110.413 291.219 123.55H254.276C250.217 110.413 250.217 96.3646 254.276 83.2278V83.1631H260.949V82.9366H285.023Z" fill="#FFB66D"/>
<g style="mix-blend-mode:overlay" opacity="0.6">
<path d="M285.274 83.1631H291.221L291.242 83.2278L291.221 83.1631H285.274Z" fill="#030F1C"/>
</g>
<g style="mix-blend-mode:overlay" opacity="0.6">
<path d="M292.362 87.3162C292.027 85.9354 291.669 84.5654 291.241 83.2278C291.647 84.5654 292.027 85.9354 292.362 87.3162Z" fill="#030F1C"/>
</g>
<g style="mix-blend-mode:overlay" opacity="0.6">
<path d="M269.155 61.0388C270.557 52.8305 272.67 44.7585 275.47 36.9134C285.149 10.1021 288.279 0 288.279 0C288.279 0 277.75 58.671 276.906 75.7632C276.749 78.8806 276.613 81.2969 276.494 83.1685H272.302C271.87 75.7179 270.817 68.3159 269.155 61.0388Z" fill="#030F1C"/>
</g>
<g style="mix-blend-mode:overlay" opacity="0.6">
<path d="M254.277 83.2279V83.1631H285.273V83.2279C285.701 84.5655 286.053 85.9246 286.389 87.3162H253.134C253.491 85.9354 253.849 84.5655 254.277 83.2279Z" fill="#030F1C"/>
</g>
<g style="mix-blend-mode:overlay" opacity="0.6">
<path d="M286.411 87.3162C286.075 85.9354 285.723 84.5655 285.295 83.2279V83.1631H291.253V83.2279C291.681 84.5655 292.038 85.9246 292.374 87.3162C295.234 99.0525 294.871 112.207 291.231 123.55H285.273C288.908 112.186 289.271 99.0525 286.411 87.3162Z" fill="#030F1C"/>
</g>
<g style="mix-blend-mode:overlay" opacity="0.6">
<path d="M286.411 87.3162C286.075 85.9354 285.723 84.5655 285.295 83.2279V83.1631H291.253V83.2279C291.681 84.5655 292.038 85.9246 292.374 87.3162C295.234 99.0525 294.871 112.207 291.231 123.55H285.273C288.908 112.186 289.271 99.0525 286.411 87.3162Z" fill="#030F1C"/>
</g>
<path fill-rule="evenodd" clip-rule="evenodd" d="M327.459 414.793C326.295 414.335 325.549 413.196 325.595 411.951C325.579 412.078 325.563 412.206 325.548 412.334C325.738 410.415 326.058 407.87 326.59 404.517C327.072 401.477 328.166 400.606 328.166 400.606C328.166 400.606 337.592 398.725 338.792 399.575C339.389 399.997 340.042 401.409 340.853 403.16C341.136 403.772 341.438 404.425 341.764 405.092C342.011 405.599 342.27 406.116 342.532 406.641C343.873 409.323 345.306 412.189 345.777 414.684C345.609 413.926 345.397 413.177 345.141 412.443C344.571 413.361 343.772 414.114 342.821 414.63C339.483 416.464 330.237 416.614 327.459 414.793ZM244.218 410.675C246.004 409.556 258.632 405.949 258.632 405.949L281.49 400.258C281.49 400.258 284.018 404.749 284.011 409.143C284.029 410.774 283.637 412.383 282.871 413.824C282.239 414.976 281.032 415.698 279.714 415.712C273.345 415.813 248.965 416.115 246.088 415.633C242.709 415.067 242.433 411.794 244.218 410.675Z" fill="#7686D6"/>
<path fill-rule="evenodd" clip-rule="evenodd" d="M337.884 368.401L338.613 398.439C338.613 398.439 340.864 406.121 340.774 406.629C340.218 409.77 328.341 410.89 327.746 406.749C327.656 406.121 328.077 398.992 328.077 398.992L324.583 369.464L337.884 368.401ZM268.723 400.331C271.935 397.599 270.502 382.061 270.502 382.061L281.506 383.795C281.506 383.795 281.305 398.761 281.49 400.258C281.676 401.754 274.441 405.856 268.431 406.782C262.421 407.707 257.446 407.326 257.353 406.765C257.318 406.548 258.413 406.042 260 405.308C262.526 404.139 266.297 402.395 268.723 400.331Z" fill="#FFB7B6"/>
<g style="mix-blend-mode:overlay" opacity="0.6">
<path d="M258.581 415.898C259.626 413.408 262.042 411.762 264.751 411.693C270.19 411.485 271.268 415.81 271.268 415.81L258.581 415.898Z" fill="#030F1C"/>
</g>
<path fill-rule="evenodd" clip-rule="evenodd" d="M342.821 414.63C343.772 414.114 344.572 413.361 345.141 412.444C345.141 412.444 346.124 415.188 345.937 416.483V417.546H325.224V416.483C325.224 416.483 325.315 414.101 325.596 411.951C325.549 413.196 326.295 414.335 327.459 414.793C330.237 416.614 339.483 416.464 342.821 414.63ZM279.714 415.712C281.032 415.698 282.239 414.976 282.871 413.824C283.034 413.524 283.179 413.214 283.306 412.897V412.898C283.151 413.765 282.928 414.619 282.637 415.452C282.19 416.71 280.994 417.551 279.654 417.55L245.674 417.502C244.468 417.5 243.458 416.59 243.336 415.395L243.131 413.385L243.222 413.376C243.495 414.399 244.407 415.351 246.088 415.633C248.966 416.115 273.345 415.813 279.714 415.712Z" fill="#2D2B72"/>
<path d="M274.644 182.197C268.46 229.281 265.105 267.745 264.93 274.327C264.757 280.871 268.653 391.686 268.653 391.686C268.653 391.686 279.008 392.716 283.545 390.446C283.545 390.446 287.014 351.578 288.615 338.244C290.217 324.909 294.301 296.189 294.301 283.343C298.358 265.837 301.738 244.79 301.738 244.79C301.738 244.79 304.174 259.861 307.519 280.343C314.589 323.632 325.717 391.089 326.478 391.51C327.312 391.971 333.528 393.002 340.233 390.607C340.233 390.607 339.221 370.587 339.488 359.238C339.755 347.89 339.103 301.878 335.1 282.018C335.1 282.018 336.991 264.163 339.478 250.891C341.056 242.471 343.235 228.802 341.313 216.156C338.872 200.087 334.354 196.187 331.563 180.916C314.688 173.647 292.234 173.169 274.644 182.197Z" fill="#F76161"/>
<g style="mix-blend-mode:overlay" opacity="0.6">
<path d="M301.738 244.79L295.567 217.814C295.567 217.814 289.015 232.603 289.725 244.079C290.434 255.554 294.692 254.898 295.805 276.57L301.738 244.79Z" fill="#030F1C"/>
</g>
<g style="mix-blend-mode:overlay" opacity="0.6">
<path d="M269.867 221.486C269.867 221.486 275.305 223.215 274.824 229.281C274.344 235.346 271.326 267.152 271.274 278.392C271.222 289.632 273.007 320.721 271.274 326.699C269.541 332.678 266.65 333.164 266.65 333.164C266.65 333.164 265.123 287.241 264.931 274.327C265.588 261.032 269.867 221.486 269.867 221.486Z" fill="white"/>
</g>
<g style="mix-blend-mode:overlay" opacity="0.6">
<path d="M305.705 269.22C305.705 269.22 311.326 270.536 313.847 281.878C316.369 293.219 321.991 333.395 323.142 343.081C324.293 352.766 320.482 358.618 320.482 358.618L305.705 269.22Z" fill="white"/>
</g>
<path d="M337.08 199.508C332.827 199.508 329.455 198.204 327.059 195.632C322.554 190.795 323.065 183.272 323.089 182.954C323.094 182.882 323.127 182.815 323.182 182.769C323.237 182.722 323.308 182.699 323.38 182.705C323.529 182.716 323.64 182.845 323.629 182.994C323.624 183.07 323.114 190.606 327.459 195.267C329.748 197.723 332.985 198.968 337.08 198.968C337.23 198.968 337.351 199.089 337.351 199.238C337.351 199.387 337.23 199.508 337.08 199.508Z" fill="#0B122D"/>
<path d="M272.059 200.694C271.934 200.694 271.826 200.609 271.796 200.489C271.766 200.368 271.823 200.243 271.933 200.185C272.03 200.135 281.598 195.042 281.092 185.898C281.085 185.75 281.199 185.625 281.348 185.617C281.496 185.609 281.623 185.721 281.633 185.869C282.158 195.362 272.284 200.612 272.184 200.663C272.145 200.684 272.103 200.694 272.059 200.694Z" fill="#0B122D"/>
<g style="mix-blend-mode:overlay" opacity="0.6">
<path d="M274.644 182.197L273.583 190.408C273.583 190.408 295.301 202.76 335.613 196.394C335.613 196.394 332.118 185.986 331.563 180.916L274.644 182.197Z" fill="#030F1C"/>
</g>
<path d="M318.953 60.0057C317.677 53.5737 315.636 48.7838 307.345 54.5315C307.345 54.5315 307.272 48.1601 304.338 45.6443C301.404 43.1282 282.869 31.9192 282.159 50.3418C282.159 50.3418 281.819 65.1419 281.819 68.8371C281.819 72.532 287.19 85.0498 291.655 85.0498C292.715 85.0316 293.767 84.8679 294.781 84.5634C294.135 89.6746 292.52 94.617 290.022 99.1281L317.447 93.798C317.447 93.798 312.707 86.4446 311.719 72.0029C315.899 68.2993 319.886 64.7145 318.953 60.0057Z" fill="#FFB7B6"/>
<path d="M328.826 16.8275C315.912 16.8275 315.837 28.9047 315.837 28.9047L317.884 32.5041C302.709 21.5495 294.021 31.5049 294.021 31.5049C281.819 28.8787 275.623 36.7992 274.695 46.2421C273.768 55.685 281.962 59.5144 281.962 59.5144L282.102 52.8747C286.178 50.6143 285.384 48.0132 285.878 46.6956C287.321 53.3671 298.977 56.3733 301.338 58.4991C303.847 60.7572 304.121 65.7865 305.564 65.7865C307.007 65.7865 306.212 58.3574 310.718 55.8305C316.471 52.6033 318.063 59.2575 317.005 62.7073C315.837 66.5141 311.394 71.0712 311.394 71.0712L311.949 77.3321C320.924 71.7475 327.603 59.0623 326.58 47.7964L326.581 47.7974C336.897 47.5167 340.814 43.8558 343.894 37.6633C347.15 31.117 341.741 16.8275 328.826 16.8275Z" fill="#161B36"/>
<g style="mix-blend-mode:overlay" opacity="0.6">
<path d="M294.815 84.1633C294.815 84.1633 302.915 80.0143 305.486 77.3322C305.63 81.7828 304.091 86.1252 301.172 89.4988C298.875 92.0758 295.279 92.8242 292.755 92.9945C293.778 90.1387 294.469 87.1757 294.815 84.1633Z" fill="#030F1C"/>
</g>
<path d="M292.494 52.5154C292.861 52.1039 293.366 51.7839 294.881 51.8753C296.396 51.9668 298.691 53.384 298.186 53.7498C297.681 54.1155 296.166 52.8811 294.973 53.2926C293.779 53.7041 293.094 54.0425 292.693 53.8184C292.188 53.5364 292.317 52.7132 292.494 52.5154Z" fill="#161B36"/>
<path d="M285.929 52.0956C285.448 51.8243 284.866 51.6838 283.462 52.2574C282.058 52.8311 280.345 54.9105 280.941 55.0943C281.538 55.2781 282.571 53.6227 283.835 53.6283C285.098 53.634 285.856 53.7339 286.163 53.3928C286.55 52.9636 286.16 52.2261 285.929 52.0956Z" fill="#161B36"/>
<g style="mix-blend-mode:overlay" opacity="0.6">
<path d="M288.543 70.6204C287.932 70.6301 287.329 70.4762 286.798 70.1748C286.417 69.9726 286.146 69.612 286.059 69.1909C285.932 68.3977 286.647 66.8434 287.39 65.3193C287.51 65.0725 287.608 64.8713 287.665 64.7404C288.625 62.5456 288.189 58.3638 288.184 58.3217C288.174 58.2259 288.216 58.1319 288.294 58.0751C288.372 58.0183 288.475 58.0074 288.563 58.0464C288.652 58.0854 288.713 58.1685 288.723 58.2642C288.742 58.4412 289.179 62.6296 288.162 64.9559C288.103 65.0913 288.001 65.2996 287.877 65.5547C287.424 66.4828 286.483 68.414 286.593 69.1061C286.662 69.3688 286.84 69.5902 287.082 69.7153C287.801 70.1014 288.645 70.1865 289.427 69.9515C289.569 69.906 289.722 69.984 289.767 70.1258C289.813 70.2676 289.735 70.4195 289.592 70.465C289.253 70.5703 288.899 70.6227 288.543 70.6204Z" fill="#030F1C"/>
</g>
<path d="M287.501 75.9239C287.454 75.7616 287.475 75.5874 287.557 75.4399C287.64 75.2925 287.779 75.184 287.942 75.1386C288.754 74.9044 290.252 74.4638 291.393 74.0771C292.582 73.6075 293.739 73.0596 294.855 72.4371C295.049 72.3318 295.285 72.3339 295.477 72.4424C295.67 72.551 295.793 72.7508 295.803 72.9711C295.88 74.6637 295.676 77.9694 293.003 78.6432C289.752 79.4627 288.051 77.7114 287.501 75.9239Z" fill="#161B36"/>
<path d="M288.914 78.0341C288.914 78.0341 291.711 74.1436 295.706 75.0323C295.706 75.0323 295.713 78.0708 293.137 78.7556C290.364 79.4929 288.914 78.0341 288.914 78.0341Z" fill="#E55151"/>
<path d="M283.025 62.4574C282.843 62.4786 282.662 62.4069 282.545 62.2667C282.428 62.1265 282.39 61.9369 282.444 61.7627C282.756 60.7553 283.256 60.163 283.93 60.0016C284.956 59.7612 285.832 60.632 285.929 60.7325C286.137 60.9459 286.132 61.2865 285.918 61.4941C285.705 61.7017 285.362 61.6979 285.153 61.4856C285.014 61.345 284.533 60.9669 284.181 61.0507C283.914 61.1162 283.664 61.4817 283.479 62.0804C283.416 62.2845 283.238 62.4323 283.025 62.4574Z" fill="#161B36"/>
<path d="M295.515 60.9844C295.302 61.0096 295.094 60.9072 294.985 60.7234C294.664 60.1844 294.336 59.8871 294.061 59.8856C293.707 59.8862 293.32 60.3655 293.217 60.5346C293.064 60.7888 292.733 60.8715 292.476 60.7196C292.22 60.5678 292.136 60.2384 292.287 59.9826C292.358 59.8624 293.016 58.8094 294.059 58.807C294.753 58.8072 295.378 59.2668 295.917 60.1738C296.01 60.3307 296.018 60.5239 295.937 60.6875C295.856 60.851 295.697 60.9627 295.515 60.9844V60.9844Z" fill="#161B36"/>
<path d="M314.322 58.5273C313.018 58.0863 311.757 59.2662 310.803 60.6011L310.798 60.608C310.141 61.5536 309.579 62.561 309.119 63.6156C309.061 63.7529 309.126 63.911 309.264 63.9688C309.401 64.0265 309.56 63.962 309.618 63.8247C310.047 62.8325 310.572 61.8842 311.186 60.9934C311.744 60.8952 312.319 60.9997 312.806 61.2878C313.293 61.647 313.604 62.1952 313.662 62.796C313.683 62.9261 313.796 63.0215 313.929 63.0217C313.943 63.0218 313.958 63.0206 313.973 63.0181C314.044 63.0064 314.107 62.9672 314.149 62.9091C314.191 62.8509 314.208 62.7786 314.196 62.7081C314.117 61.9588 313.72 61.2788 313.106 60.839C312.661 60.558 312.143 60.4137 311.617 60.4242C312.406 59.4496 313.307 58.7538 314.148 59.0382C314.289 59.0854 314.442 59.0098 314.49 58.8691C314.538 58.7284 314.463 58.5755 314.322 58.5273H314.322Z" fill="#0B122D"/>
<path d="M294.378 84.6331C294.25 84.6332 294.14 84.544 294.113 84.4194C294.087 84.2948 294.151 84.1686 294.268 84.1169C294.36 84.0766 303.434 80.0341 307.264 75.147C307.356 75.0296 307.526 75.0087 307.644 75.1004C307.762 75.192 307.783 75.3614 307.691 75.4788C303.777 80.4731 294.865 84.4435 294.488 84.6099C294.453 84.6252 294.416 84.6331 294.378 84.6331Z" fill="#0B122D"/>
<path d="M308.476 45.6607C308.362 45.6607 308.261 45.5896 308.222 45.4829C305.294 37.4371 296.81 33.8378 296.725 33.8023C296.587 33.7448 296.522 33.5871 296.58 33.4498C296.637 33.3124 296.795 33.2474 296.933 33.3045C297.021 33.3409 305.723 37.0329 308.731 45.2991C308.782 45.4392 308.709 45.5938 308.569 45.6446C308.539 45.6552 308.508 45.6606 308.476 45.6607Z" fill="white"/>
<path d="M337.954 41.5652C337.846 41.5653 337.748 41.5015 337.705 41.4029C337.662 41.3043 337.682 41.1897 337.756 41.1112C343.452 35.0511 339.73 27.4127 339.692 27.3363C339.649 27.2501 339.655 27.1475 339.709 27.067C339.762 26.9866 339.854 26.9407 339.951 26.9466C340.048 26.9525 340.134 27.0093 340.177 27.0956C340.217 27.1755 344.102 35.1491 338.151 41.4799C338.1 41.5344 338.029 41.5653 337.954 41.5652Z" fill="white"/>
<path d="M326.687 39.7845C323.176 32.3945 317.342 29.0584 315.837 28.9047C313.929 28.7099 313.252 29.6738 313.252 29.6738L313.252 29.6748C315.041 30.5766 316.745 31.6357 318.345 32.8393C324.415 37.3528 326.818 43.8826 326.68 50.6593C327.168 50.4061 327.632 50.1101 328.068 49.7748C328.713 49.2551 330.198 47.1746 326.687 39.7845Z" fill="#F76161"/>
<path fill-rule="evenodd" clip-rule="evenodd" d="M347.975 120.501C350.121 126.285 352.811 133.538 356.488 142.688C360.227 151.994 359.312 159.618 348.023 161.879C345.537 162.376 337.695 163.82 329.155 165.284C329.813 170.831 330.8 176.335 332.111 181.766C332.379 182.891 331.927 184.063 330.974 184.722C321.83 190.851 284.359 193.458 275.023 186.148C274.052 185.37 273.573 184.134 273.768 182.909C276.311 166.072 275.169 154.971 273.268 150.18C272.98 149.455 272.695 148.774 272.42 148.116C270.882 144.444 269.661 141.526 270.126 136.1C270.289 134.205 270.97 131.139 271.857 127.149C272.552 124.019 273.373 120.321 274.17 116.174C272.883 116.006 271.552 115.818 270.177 115.611C260.788 114.216 251.509 112.169 242.407 109.486C239.293 108.556 236.148 107.525 233.006 106.376C231.803 105.956 230.65 105.404 229.569 104.73C222.709 100.296 226.471 92.3364 240.279 74.7963C241.588 73.133 249.811 63.0237 254.336 57.4615C255.713 55.7682 256.748 54.4963 257.14 54.0124C260.026 59.7939 266.856 60.1436 266.856 60.1436L248.58 92.2154C248.358 92.6044 248.354 93.0798 248.568 93.4728C248.783 93.8657 249.186 94.1206 249.634 94.147C252.138 94.2896 292.546 94.3176 292.564 94.3176C292.564 94.3176 288.01 110.01 298.582 109.356C313.152 108.454 317.038 92.5315 317.038 92.5315C317.038 92.5315 325.286 94.6807 329.423 96.0215C339.806 98.4775 341.058 101.853 347.975 120.501ZM328.686 151.417C331.971 150.245 336.413 148.602 338.682 147.759C339.061 147.618 339.366 147.327 339.522 146.955C339.678 146.583 339.673 146.163 339.507 145.795C338.107 142.689 334.65 135.035 331.58 128.37C331.278 132.795 330.715 137.199 329.892 141.558C329.244 144.81 328.841 148.106 328.686 151.417Z" fill="#2D2B72"/>
<g style="mix-blend-mode:overlay" opacity="0.6">
<path d="M274.17 116.174C274.758 113.113 275.331 109.807 275.83 106.306C272.394 107.472 266.853 109.26 263.517 109.864C258.417 110.787 254.378 106.935 247.954 106.98C244.626 107.004 242.407 109.486 242.407 109.486C251.509 112.169 260.788 114.216 270.177 115.611C271.552 115.818 272.883 116.006 274.17 116.174Z" fill="#030F1C"/>
</g>
<path d="M244.032 94.9819C242.85 94.9881 241.681 94.7324 240.61 94.2333C240.502 94.1822 240.456 94.0539 240.507 93.9463C240.558 93.8388 240.686 93.7924 240.795 93.8425C244.112 95.3974 247.412 93.8672 247.445 93.8516C247.515 93.8183 247.598 93.8247 247.662 93.8684C247.726 93.9121 247.761 93.9864 247.755 94.0634C247.749 94.1404 247.702 94.2083 247.633 94.2416C246.496 94.7317 245.271 94.9838 244.032 94.9819Z" fill="#0B122D"/>
<g style="mix-blend-mode:overlay" opacity="0.6">
<path d="M241.285 79.9229C240.043 82.3978 228.937 96.0703 230.437 100.665C231.579 104.164 235.836 103.804 235.455 107.248C233.399 106.645 231.423 105.8 229.569 104.73C222.709 100.296 226.471 92.3364 240.279 74.7964C240.878 75.2544 242.153 78.1944 241.285 79.9229Z" fill="white"/>
</g>
<g style="mix-blend-mode:overlay" opacity="0.6">
<path d="M271.743 146.473C271.743 146.473 276.338 150.692 281.067 150.78C284.297 150.839 284.984 152.583 281.653 153.296C280.107 153.627 277.236 153.36 274.18 153.278C273.565 150.945 272.749 148.668 271.743 146.473L271.743 146.473Z" fill="#030F1C"/>
</g>
<g style="mix-blend-mode:overlay" opacity="0.6">
<path d="M316.636 154.096C317.26 154.087 317.875 154.24 318.422 154.539C321.387 153.745 324.14 152.972 325.809 152.418C326.542 152.175 327.571 151.815 328.738 151.398C328.764 150.586 328.796 149.764 328.841 148.924C329.139 143.344 330.825 139.49 331.643 128.507C329.66 124.202 327.835 120.302 326.815 118.274C327.078 123.722 327.396 135.579 325.599 141.558C323.978 146.951 317.533 149.703 313.172 150.449C306.508 151.588 307.385 154.315 316.636 154.096Z" fill="#030F1C"/>
</g>
<g style="mix-blend-mode:overlay" opacity="0.6">
<path d="M329.148 165.285C327.463 165.574 325.753 165.863 324.05 166.146C324.417 168.505 324.464 170.638 324.158 171.896C322.177 180.043 313.532 185.624 308.669 186.779C305.652 187.524 302.798 188.814 300.248 190.585C300.248 190.585 321.399 190.477 330.974 184.722C330.974 184.722 332.612 184.039 332.11 181.767C330.66 176.365 329.669 170.852 329.148 165.285V165.285Z" fill="#030F1C"/>
</g>
<path d="M294.673 130.973H294.664C294.515 130.968 294.397 130.844 294.401 130.695L295.026 109.499C295.038 109.354 295.158 109.241 295.305 109.237C295.454 109.242 295.572 109.366 295.567 109.515L294.943 130.711C294.939 130.857 294.819 130.973 294.673 130.973Z" fill="#0B122D"/>
<path d="M309.708 168.607C309.592 168.61 309.493 168.523 309.482 168.408C309.472 168.293 309.553 168.189 309.668 168.171L324.033 165.945C324.111 165.932 324.19 165.962 324.239 166.023C324.289 166.084 324.302 166.167 324.273 166.24C324.245 166.314 324.179 166.366 324.101 166.378L309.735 168.604C309.726 168.605 309.717 168.606 309.708 168.607Z" fill="#0B122D"/>
<g style="mix-blend-mode:overlay" opacity="0.6">
<path d="M343.52 149.862C338.413 151.896 323.618 158.382 321.187 153.808C328.886 151.656 338.681 147.759 338.681 147.759C339.053 147.639 339.356 147.366 339.513 147.01C339.669 146.653 339.665 146.247 339.501 145.893C338.362 143.57 336.451 138.787 333.029 131.613C334.186 131.152 336.594 131.609 337.351 133.003C338.228 134.625 342.64 143.279 344.51 146.768C344.93 147.552 344.871 149.324 343.52 149.862Z" fill="white"/>
</g>
<path d="M344.37 151.029C344.262 151.029 344.171 150.952 344.153 150.846C344.129 150.702 343.517 147.321 339.495 147.206C339.417 147.204 339.345 147.16 339.308 147.092C339.27 147.023 339.273 146.939 339.314 146.872C339.355 146.806 339.429 146.766 339.508 146.768C341.947 146.716 344.08 148.398 344.587 150.775C344.607 150.894 344.526 151.007 344.406 151.026C344.394 151.028 344.382 151.029 344.37 151.029Z" fill="#0B122D"/>
<path d="M332.502 128.152C332.457 128.152 332.413 128.138 332.376 128.113C326.083 123.761 326.063 114.289 326.063 114.194C326.064 114.074 326.163 113.976 326.284 113.976H326.285C326.343 113.977 326.399 114 326.44 114.041C326.481 114.083 326.504 114.139 326.504 114.197C326.503 114.29 326.526 123.534 332.627 127.753C332.706 127.807 332.74 127.907 332.712 127.998C332.683 128.09 332.598 128.152 332.502 128.152L332.502 128.152Z" fill="#0B122D"/>
<path d="M309.233 175.906L290.79 144.737L285.746 136.211C285.345 135.533 284.614 135.116 283.824 135.117H253.935C253.05 135.218 252.264 135.726 251.812 136.49C251.713 136.628 251.623 136.772 251.542 136.921C251.416 137.145 251.314 137.381 251.236 137.626C251.236 137.631 251.231 137.631 251.231 137.636C250.989 138.214 251.009 138.867 251.283 139.43L251.252 139.367C251.265 139.405 251.281 139.442 251.299 139.477L251.315 139.498C251.32 139.504 251.32 139.509 251.326 139.514C251.339 139.547 251.355 139.578 251.373 139.609L267.804 167.38L270.783 172.408L274.861 179.303C275.261 179.982 275.993 180.398 276.783 180.397H306.672C306.781 180.397 306.891 180.388 306.999 180.371C308.726 180.366 310.11 177.389 309.233 175.906Z" fill="#00B9B9"/>
<g style="mix-blend-mode:overlay" opacity="0.6">
<path d="M251.132 139.037C251.113 138.961 251.098 138.884 251.087 138.806C251.097 138.884 251.112 138.961 251.132 139.037Z" fill="#030F1C"/>
<path d="M251.25 139.366C251.268 139.402 251.28 139.441 251.3 139.475L251.326 139.517C251.3 139.467 251.273 139.417 251.25 139.366Z" fill="#030F1C"/>
<path d="M251.225 139.311C251.189 139.222 251.158 139.132 251.133 139.04C251.156 139.132 251.187 139.223 251.225 139.311Z" fill="#030F1C"/>
<path d="M307 180.371C307.734 180.263 308.366 179.799 308.686 179.132C309.006 178.465 308.972 177.684 308.595 177.047L289.792 145.274L285.107 137.353C284.707 136.674 283.975 136.258 283.185 136.259H253.296C252.394 136.254 251.579 136.795 251.236 137.626C251.314 137.381 251.417 137.145 251.543 136.921C251.622 136.771 251.712 136.627 251.812 136.49C252.265 135.726 253.051 135.218 253.935 135.117H283.824C284.614 135.116 285.346 135.533 285.746 136.211L290.79 144.737L309.234 175.906C310.111 177.389 308.727 180.366 307 180.371Z" fill="#030F1C"/>
</g>
<g style="mix-blend-mode:overlay" opacity="0.6">
<path d="M253.023 138.303H255.092C255.227 138.303 255.352 138.374 255.42 138.49L255.925 139.351C255.994 139.468 255.995 139.613 255.927 139.731C255.859 139.848 255.733 139.921 255.597 139.921H253.529C253.394 139.921 253.269 139.849 253.201 139.733L252.695 138.872C252.627 138.755 252.626 138.61 252.694 138.493C252.762 138.375 252.887 138.303 253.023 138.303V138.303Z" fill="#030F1C"/>
</g>
<g style="mix-blend-mode:overlay" opacity="0.6">
<path d="M273.412 152.462H276.125C276.924 152.493 277.671 152.864 278.177 153.481C279.343 154.852 278.803 156.576 277.207 156.576H274.494C273.695 156.544 272.949 156.173 272.443 155.557C271.277 154.185 271.817 152.462 273.412 152.462Z" fill="#030F1C"/>
</g>
<path fill-rule="evenodd" clip-rule="evenodd" d="M317.038 92.5315L326.363 95.0801C326.363 95.0801 328.158 105.185 312.489 107.155C313.842 113.184 303.887 122.217 295.252 109.147C295.252 109.147 311.047 112.111 317.038 92.5315ZM282.558 94.306L292.564 94.3176C289.163 106.694 295.252 109.147 295.252 109.147C285.709 119.426 283.003 107.226 287.276 103.892C284.464 101.465 282.762 98.006 282.558 94.306Z" fill="#F76161"/>
<path fill-rule="evenodd" clip-rule="evenodd" d="M282.353 49.7506C282.774 48.6866 282.64 47.4843 281.997 46.5372C281.997 46.5372 282.2 46.3515 282.504 46.076C283.24 45.4121 285.549 42.6452 284.534 41.3283C283.631 40.1567 282.635 40.835 281.842 41.4481C282.128 41.1313 283.069 39.6369 281.566 37.8679C280.512 36.6216 278.394 38.4647 278.394 38.4647C278.394 38.4647 278.59 36.1265 277.215 35.4932C275.71 34.8053 274.111 36.4093 274.007 36.526C274.023 36.3939 274.273 34.188 272.261 34.0241C271.46 33.9609 269.691 35.4144 267.803 37.6963C267.57 37.9796 267.335 38.2741 267.1 38.5799C267.047 38.6494 266.996 38.7159 266.941 38.787L266.941 38.7911C266.516 39.3508 266.092 39.9495 265.677 40.5751L265.679 40.5785C265.415 40.9764 265.159 41.3575 264.91 41.7262C263.245 44.1976 261.953 46.1136 261.583 48.8298H261.585C261.339 50.0636 260.458 51.431 259.848 52.3789C259.773 52.4946 259.703 52.6041 259.638 52.7063L259.638 52.7062L257.689 54.9757C259.983 58.5488 263.863 59.6621 265.754 60.0003L267.354 57.2568C268.055 56.6006 268.905 56.1216 269.83 55.8603C272.42 55.1489 274.95 54.2372 277.397 53.1336C277.397 53.1336 281.609 51.4594 282.353 49.7506ZM304.878 158.724L304.885 158.761C304.247 158.863 303.597 158.874 302.956 158.793C302.712 158.712 302.4 158.64 302.051 158.558L302.051 158.558C301.163 158.351 300.037 158.088 299.17 157.505C298.513 157.063 297.054 155.228 295.777 153.621C294.709 152.277 293.768 151.094 293.531 151.022C293.011 150.863 291.489 153.221 292.602 154.902C292.952 155.431 293.325 155.935 293.663 156.39L293.663 156.39C294.399 157.383 294.966 158.148 294.756 158.452C294.532 158.777 293.409 158.923 292.351 159.061L292.351 159.061C292.168 159.084 291.988 159.108 291.814 159.132C289.434 159.393 283.957 160.025 283.424 160.38C282.742 160.834 282.417 162.06 283.711 162.346C284.375 162.493 283.449 162.916 282.666 163.274L282.666 163.274C282.342 163.422 282.043 163.559 281.891 163.66C281.208 164.114 280.883 165.34 282.178 165.626C283.18 165.847 284.776 166.209 284.335 166.503C283.652 166.958 283.328 168.184 284.622 168.469C284.836 168.516 285.13 168.571 285.447 168.629L285.448 168.629C286.414 168.807 287.592 169.023 287.329 169.198C286.718 169.605 286.428 170.701 287.585 170.957C288.31 171.118 292.192 170.648 294.993 170.275C296.691 170.611 301.401 170.157 303.284 168.973C304.43 168.342 305.662 167.88 306.941 167.602C307.42 164.513 306.862 161.353 305.354 158.613C305.071 158.682 304.905 158.721 304.878 158.724ZM295.886 109.23C288.213 107.768 292.564 94.3176 292.564 94.3176L317.038 92.5315C311.763 109.772 298.887 109.533 295.886 109.23Z" fill="#FFB7B6"/>
<path d="M275.734 46.1266C274.978 46.3025 274.476 46.2422 274.241 45.9479C273.796 45.3883 274.309 44.0347 274.545 43.5604C274.587 43.4751 274.568 43.3723 274.499 43.3072C274.429 43.2421 274.325 43.2299 274.242 43.2772C273.175 43.8866 272.37 44.0187 271.849 43.671C270.792 42.9645 271.107 40.5159 271.111 40.4912C271.11 40.4755 271.108 40.46 271.104 40.4447L273.632 37.2992C273.708 37.2075 273.695 37.0718 273.603 36.9957C273.511 36.9196 273.375 36.9318 273.298 37.0228L270.637 40.3347L270.637 40.3357C269.878 40.6462 269.286 40.6742 268.881 40.4098C268.218 39.9777 268.225 38.8889 268.225 38.878C268.227 38.7587 268.131 38.6607 268.011 38.6589C267.953 38.6561 267.897 38.6773 267.855 38.7175C267.813 38.7577 267.79 38.8134 267.791 38.8712C267.79 38.9254 267.779 40.206 268.641 40.77C269.265 41.1041 270.013 41.1149 270.646 40.7989C270.595 41.5734 270.596 43.3534 271.607 44.0295C272.175 44.4095 272.95 44.3762 273.916 43.9324C273.678 44.5796 273.421 45.6128 273.901 46.2161C274.177 46.527 274.584 46.6899 275 46.6554C275.281 46.6509 275.56 46.6146 275.833 46.5473C275.909 46.5304 275.97 46.474 275.993 46.3998C276.016 46.3255 275.997 46.2447 275.943 46.1882C275.89 46.1317 275.81 46.1082 275.734 46.1266L275.734 46.1266Z" fill="#030F1C"/>
<path d="M281.998 46.1374C281.875 45.9378 279.289 41.7705 276.947 41.0046L278.266 39.3103C278.339 39.216 278.322 39.0803 278.227 39.0073C278.133 38.9342 277.996 38.9514 277.923 39.0457L276.48 40.8985C276.339 40.88 276.196 40.8777 276.054 40.8915C275.697 40.9165 275.379 41.124 275.212 41.4399C274.362 43.0392 276.813 47.7169 277.096 48.245C277.133 48.3156 277.207 48.3597 277.287 48.3596C277.364 48.3595 277.434 48.3197 277.473 48.2547C277.512 48.1897 277.514 48.109 277.479 48.042C276.742 46.663 274.967 42.8251 275.596 41.642C275.694 41.4519 275.887 41.3292 276.101 41.3211C278.343 41.0755 281.596 46.3101 281.628 46.3631C281.691 46.4635 281.824 46.4945 281.925 46.4326C282.027 46.3707 282.059 46.239 281.998 46.1373L281.998 46.1374Z" fill="#030F1C"/>
<path d="M292.23 161.781C292.225 161.73 292.199 161.682 292.159 161.649C292.119 161.616 292.067 161.6 292.015 161.605L283.388 162.435C283.282 162.445 283.203 162.538 283.21 162.643C283.218 162.749 283.308 162.83 283.414 162.826L283.426 162.825L292.053 161.995C292.105 161.99 292.152 161.965 292.186 161.925C292.219 161.885 292.235 161.833 292.23 161.781Z" fill="#0B122D"/>
<path d="M292.767 165.394C292.752 165.287 292.654 165.211 292.547 165.224L283.783 166.329C283.679 166.342 283.603 166.435 283.612 166.54C283.621 166.644 283.71 166.723 283.816 166.719L283.833 166.718L292.596 165.613C292.648 165.606 292.695 165.58 292.727 165.539C292.759 165.497 292.773 165.445 292.767 165.394Z" fill="#0B122D"/>
<path d="M294.144 168.263L286.781 169.023C286.675 169.034 286.598 169.126 286.605 169.232C286.612 169.337 286.703 169.418 286.809 169.414L286.822 169.413L294.184 168.653C294.293 168.642 294.371 168.545 294.36 168.438C294.348 168.331 294.252 168.253 294.144 168.263Z" fill="#0B122D"/>
<path d="M131.769 197.942C131.769 197.942 138.262 278.92 137.902 292.192C137.541 305.464 136.461 387.252 136.461 387.252C136.461 387.252 127.816 391.915 118.81 387.252C118.81 387.252 113.408 336.672 110.886 321.607C108.364 306.541 109.085 286.094 109.085 286.094L96.1169 254.169L73.7217 388.291C73.7217 388.291 62.257 391.198 56.8542 387.611C56.8542 387.611 57.9342 362.142 56.8542 337.031C55.7731 311.922 57.9342 293.627 61.1764 283.942C61.1764 283.942 53.9774 233.722 55.4181 200.003L131.769 197.942Z" fill="#201F20"/>
<path d="M55.6238 220.723C55.6398 220.722 55.6557 220.721 55.6714 220.718C72.425 217.749 69.6736 199.256 69.6437 199.069C69.6198 198.922 69.4813 198.823 69.334 198.846C69.1867 198.869 69.0861 199.007 69.109 199.154C69.1378 199.335 71.8038 217.312 55.5767 220.187C55.4386 220.212 55.3421 220.337 55.3543 220.476C55.3666 220.616 55.4835 220.722 55.6238 220.723V220.723Z" fill="white"/>
<path d="M133.48 216.952C133.605 216.952 133.713 216.868 133.743 216.747C133.773 216.626 133.716 216.501 133.606 216.444C133.488 216.383 121.895 210.213 122.508 199.126C122.512 199.055 122.487 198.985 122.439 198.932C122.391 198.878 122.324 198.846 122.253 198.842C122.181 198.838 122.11 198.862 122.056 198.91C122.002 198.958 121.97 199.025 121.967 199.097C121.335 210.534 133.235 216.859 133.355 216.922C133.394 216.942 133.436 216.952 133.48 216.952Z" fill="white"/>
<path d="M109.001 290.785C109.01 290.785 109.019 290.784 109.028 290.783C109.099 290.776 109.165 290.742 109.211 290.686C109.256 290.631 109.278 290.56 109.271 290.489C109.262 290.401 108.445 281.661 111.96 275.83C112.036 275.702 111.995 275.537 111.866 275.46C111.738 275.384 111.572 275.425 111.495 275.553C107.888 281.538 108.723 290.453 108.732 290.542C108.745 290.68 108.862 290.785 109.001 290.785Z" fill="white"/>
<g style="mix-blend-mode:overlay" opacity="0.6">
<path d="M131.769 197.942L132.246 204.305C102.136 216.189 55.2672 207.894 55.2672 207.894L55.4184 200.003L131.769 197.942Z" fill="#030F1C"/>
</g>
<g style="mix-blend-mode:overlay" opacity="0.6">
<path d="M96.1169 254.169L103.327 227.444C103.327 227.444 107.103 241.917 105.482 257.577C103.861 273.235 105.482 277.226 105.482 277.226L96.1169 254.169Z" fill="#030F1C"/>
</g>
<g style="mix-blend-mode:overlay" opacity="0.6">
<path d="M133.348 218.46C133.348 218.46 125.975 219.058 125.761 225.59C125.591 230.763 126.966 250.46 128.407 264.45C129.848 278.44 129.569 304.746 129.843 315.866C130.117 326.986 137.326 325.561 137.326 325.561C137.326 325.561 138.261 293.916 137.727 285.725C137.193 277.536 135.807 244.916 133.348 218.46" fill="white"/>
</g>
<g style="mix-blend-mode:overlay" opacity="0.6">
<path d="M94.0166 267.093C94.0166 267.093 84.1381 266.811 81.9352 279.734C79.2272 295.619 73.5296 341.814 72.3295 349.944C71.1288 358.076 71.7545 367.939 77.0039 368.641L94.0166 267.093Z" fill="white"/>
</g>
<path fill-rule="evenodd" clip-rule="evenodd" d="M74.533 388.121L57.0077 386.27L42.9849 408.624H77.5557L74.533 388.121ZM154.337 401.956L135.392 388.291H119.723L117.859 408.624H169.736C169.556 407.36 168.844 403.82 166.314 402.933L154.337 401.956Z" fill="#6FA3EF"/>
<path fill-rule="evenodd" clip-rule="evenodd" d="M70.1413 392.348C70.1413 391.759 69.664 391.282 69.0752 391.282H58.8205C58.2318 391.282 57.7545 391.759 57.7545 392.348C57.7545 392.937 58.2318 393.414 58.8205 393.414H69.0752C69.664 393.414 70.1413 392.937 70.1413 392.348ZM68.0458 394.937C68.6346 394.937 69.1119 395.414 69.1119 396.003C69.1119 396.592 68.6346 397.069 68.0458 397.069H57.7912C57.2024 397.069 56.7251 396.592 56.7251 396.003C56.7251 395.414 57.2024 394.937 57.7912 394.937H68.0458ZM67.0916 398.426C67.6804 398.426 68.1577 398.903 68.1577 399.492C68.1577 400.08 67.6804 400.558 67.0916 400.558H56.8369C56.2481 400.558 55.7708 400.08 55.7708 399.492C55.7708 398.903 56.2481 398.426 56.8369 398.426H67.0916ZM148.737 397.917H139.224C138.635 397.917 138.157 398.394 138.157 398.981C138.157 399.568 138.635 400.044 139.224 400.044H151.685L148.737 397.917ZM134.362 394.439H143.874L146.822 396.565H134.362C133.773 396.565 133.295 396.089 133.295 395.502C133.295 394.915 133.773 394.439 134.362 394.439ZM139.506 391.282H129.994C129.404 391.282 128.926 391.758 128.926 392.345C128.926 392.932 129.404 393.408 129.994 393.408H142.454L139.506 391.282Z" fill="white"/>
<path fill-rule="evenodd" clip-rule="evenodd" d="M73.2972 384.304C74.383 384.304 75.2633 385.184 75.2633 386.27C75.2633 387.355 74.3831 388.236 73.2972 388.236H57.4867C56.4009 388.236 55.5206 387.355 55.5206 386.27C55.5206 385.184 56.4009 384.304 57.4867 384.304H73.2972ZM127.045 408.624C127.045 408.624 128.667 400.044 118.646 400.044L117.86 408.624C117.86 408.624 117.586 412.577 118.886 412.577H166.459C167.972 412.652 169.304 411.594 169.567 410.109L169.736 408.624H127.045ZM135.838 384.37H118.639C117.951 384.37 117.393 384.926 117.393 385.611V387.051C117.393 387.737 117.951 388.292 118.639 388.292H135.838C136.525 388.292 137.082 387.737 137.082 387.053V385.609C137.082 384.925 136.525 384.37 135.838 384.37ZM70.3199 401.419H50.2204C48.3014 401.419 46.461 402.178 45.1041 403.53C43.7471 404.881 42.9848 406.714 42.9848 408.625V412.588H77.5555V408.625C77.5555 404.645 74.316 401.419 70.3199 401.419Z" fill="#2F65BC"/>
<path d="M74.3086 45.2092C74.3085 36.6 83.8557 39.3443 85.4805 39.8837C87.1053 40.4231 90.8966 28.0179 90.8966 28.0179C90.8966 28.0179 110.394 26.3998 114.186 30.1753C114.186 30.1753 115.269 46.356 114.727 56.6037C114.186 66.8514 110.879 71.1563 107.088 71.1563C105.889 71.0892 104.711 70.8153 103.606 70.3466V89.2116L80.6723 77.374L83.4967 55.0892C83.3806 55.0213 83.3141 54.9856 83.3141 54.9856C83.3141 54.9856 74.3086 53.3401 74.3086 45.2092Z" fill="#F7B17D"/>
<path d="M114.879 42.1004C114.879 42.1004 119.602 37.7263 120.144 28.5573C120.685 19.3883 118.735 9.69643 112.972 10.0551C107.208 10.4139 99.8841 10.7532 94.1207 10.0455C88.3573 9.33772 75.2695 12.4466 74.309 22.4906C71.2323 27.1572 69.7966 32.708 70.2266 38.2741C70.947 47.6007 74.066 59.9058 83.7946 62.6667L84.2449 55.2832C84.2449 55.2832 74.309 46.8982 77.4327 42.9393C81.4416 37.8585 87.0365 42.4591 87.6369 45.9267C87.6369 45.9267 89.4243 44.1285 89.6781 37.5566C89.6781 37.5566 94.4809 34.0891 94.601 29.3062C94.601 29.3062 109.97 27.7518 113.212 30.3823L114.879 42.1004Z" fill="#161B36"/>
<g style="mix-blend-mode:overlay" opacity="0.6">
<path d="M103.588 70.3188C103.588 70.3188 95.7836 66.7033 93.2621 64.0728C93.2621 64.0728 93.8445 71.1649 98.9988 76.1495C104.153 81.1341 103.588 77.1061 103.588 77.1061L103.588 70.3188Z" fill="#030F1C"/>
</g>
<ellipse rx="1.0131" ry="1.65905" transform="matrix(-1 0 0 1 102.578 42.5431)" fill="#161B36"/>
<ellipse rx="1.0131" ry="1.65906" transform="matrix(-1 0 0 1 112.601 43.2325)" fill="#161B36"/>
<path d="M104.67 35.9068C104.31 35.5033 103.815 35.1894 102.329 35.2791C100.843 35.3688 98.5919 36.7588 99.0872 37.1175C99.5825 37.4762 101.068 36.2655 102.239 36.6691C103.41 37.0727 104.082 37.4046 104.475 37.1848C104.971 36.9082 104.844 36.1008 104.67 35.9068Z" fill="#161B36"/>
<path d="M111.11 35.4952C111.582 35.229 112.152 35.0912 113.529 35.6539C114.907 36.2165 116.587 38.256 116.002 38.4362C115.416 38.6165 114.403 36.9929 113.164 36.9984C111.925 37.0039 111.181 37.1019 110.88 36.7674C110.501 36.3464 110.883 35.6231 111.11 35.4952Z" fill="#161B36"/>
<g style="mix-blend-mode:overlay" opacity="0.6">
<path d="M108.912 53.7339C109.434 53.753 109.952 53.6332 110.413 53.3868C110.715 53.2186 110.926 52.9242 110.986 52.5846C111.099 51.8817 110.377 50.7938 109.494 49.5486C109.269 49.2512 109.064 48.94 108.878 48.6169C108.698 48.2337 108.75 44.7413 108.903 41.5866L108.362 41.5602C108.309 42.6545 108.06 48.1473 108.387 48.845C108.584 49.1984 108.806 49.5374 109.052 49.8597C109.608 50.6439 110.538 51.9565 110.452 52.4998C110.415 52.6838 110.297 52.8413 110.129 52.9272C109.352 53.2601 108.476 53.2871 107.68 53.0028L107.514 53.5164C107.966 53.6598 108.437 53.7332 108.912 53.7339Z" fill="#030F1C"/>
</g>
<path d="M109.568 58.8654C109.613 58.7062 109.594 58.5353 109.513 58.3907C109.431 58.2461 109.296 58.1397 109.135 58.0952C108.339 57.8655 106.87 57.4334 105.751 57.0541C104.585 56.5935 103.45 56.0562 102.355 55.4456C102.165 55.3424 101.934 55.3444 101.745 55.4508C101.556 55.5573 101.435 55.7533 101.426 55.9694C101.35 57.6294 101.55 60.8715 104.172 61.5324C107.36 62.3361 109.029 60.6185 109.568 58.8654Z" fill="#161B36"/>
<path d="M108.182 60.935C108.182 60.935 105.438 57.1193 101.52 57.991C101.52 57.991 101.514 60.9711 104.04 61.6426C106.76 62.3657 108.182 60.935 108.182 60.935Z" fill="#E55151"/>
<path d="M80.2862 43.3695C82.8792 42.4917 85.2942 48.1228 85.3957 48.363C85.4537 48.5003 85.389 48.6584 85.2511 48.7162C85.1132 48.7739 84.9544 48.7094 84.8965 48.5721C84.4763 47.6001 83.962 46.6711 83.3609 45.7984C82.8141 45.7037 82.2514 45.8065 81.774 46.0884C81.2997 46.4403 80.9969 46.9755 80.9405 47.5619C80.9189 47.6919 80.806 47.7874 80.6736 47.7876C80.6587 47.7876 80.6439 47.7864 80.6292 47.7839C80.5584 47.7722 80.4951 47.733 80.4532 47.6749C80.4114 47.6167 80.3945 47.5444 80.4063 47.4739C80.5002 46.1694 81.6183 45.1755 82.9304 45.2298C82.1586 44.2791 81.2791 43.6022 80.4602 43.8804C80.3686 43.9114 80.2673 43.8913 80.1946 43.8277C80.1218 43.7641 80.0886 43.6668 80.1075 43.5723C80.1265 43.4777 80.1946 43.4004 80.2862 43.3695H80.2862Z" fill="#0B122D"/>
<path d="M103.607 70.6172C103.735 70.6172 103.845 70.5281 103.872 70.4035C103.899 70.2788 103.834 70.1527 103.717 70.101C103.628 70.0615 94.7289 66.0972 90.9731 61.3051C90.8811 61.1878 90.7109 61.1669 90.5931 61.2585C90.4752 61.3502 90.4542 61.5196 90.5462 61.637C94.3862 66.5362 103.127 70.4307 103.497 70.594C103.532 70.6093 103.569 70.6172 103.607 70.6172Z" fill="#0B122D"/>
<path d="M92.1404 25.8692C92.1878 25.8691 92.2343 25.8568 92.2753 25.8333C96.7602 23.2635 96.1017 16.9869 96.0716 16.7209C96.0649 16.6492 96.0292 16.5834 95.9727 16.5385C95.9161 16.4937 95.8436 16.4738 95.7719 16.4834C95.6234 16.5001 95.5165 16.6336 95.5331 16.7815C95.5403 16.8431 96.18 22.9739 92.005 25.3656C91.8986 25.4266 91.8466 25.5511 91.8784 25.6692C91.9101 25.7873 92.0177 25.8694 92.1404 25.8692L92.1404 25.8692Z" fill="white"/>
<path d="M83.5174 33.1631C83.5871 33.1632 83.6542 33.1364 83.7044 33.0883C88.2922 28.7242 86.4772 21.6555 86.4585 21.5846C86.4202 21.4406 86.272 21.3548 86.1274 21.3929C85.9828 21.431 85.8966 21.5786 85.9349 21.7226C85.9528 21.7906 87.6843 28.557 83.3305 32.6985C83.2506 32.7747 83.2252 32.8915 83.2663 32.9937C83.3075 33.096 83.4069 33.163 83.5175 33.1631H83.5174Z" fill="white"/>
<path fill-rule="evenodd" clip-rule="evenodd" d="M177.909 180.058L122.402 207.415C121.324 207.947 120.883 209.248 121.416 210.321L139.924 247.56C140.18 248.076 140.631 248.469 141.179 248.653C141.726 248.837 142.324 248.797 142.842 248.542L198.349 221.185C198.866 220.929 199.261 220.48 199.446 219.935C199.631 219.39 199.591 218.794 199.334 218.278L193.854 207.251L195.063 206.655C195.238 206.569 195.371 206.417 195.433 206.234C195.495 206.05 195.482 205.849 195.396 205.675L194.286 203.443L195.19 202.997C195.486 202.851 195.607 202.494 195.461 202.199L191.316 193.859C191.169 193.564 190.81 193.444 190.514 193.59L189.611 194.035L188.501 191.802C188.414 191.629 188.262 191.496 188.078 191.434C187.893 191.372 187.692 191.385 187.517 191.471L186.308 192.067L180.827 181.04C180.571 180.524 180.12 180.131 179.572 179.947C179.025 179.763 178.427 179.803 177.909 180.058ZM0.912094 250.007V250.006C0.912094 246.725 6.63863 244.125 9.93349 244.125H30.8694C31.1075 242.729 31.7614 241.436 32.7463 240.415C35.0285 237.998 38.9562 236.772 44.4204 236.772C49.7249 236.772 53.5907 238.011 55.9111 240.454C56.8938 241.476 57.5786 242.745 57.8918 244.125H81.0476C84.3426 244.125 87.0137 246.785 87.0138 250.066V296.434C87.0138 301.135 81.4821 303.813 78.1873 303.813L78.0093 303.81C77.9392 303.815 77.8691 303.815 77.7993 303.815H6.68649C3.39117 303.813 0.720367 301.153 0.717987 297.871V251.503C0.7164 250.998 0.781662 250.495 0.912094 250.007ZM55.6515 244.125C55.3838 243.306 54.9347 242.558 54.3374 241.936C52.4688 239.969 49.0398 238.929 44.4203 238.929C39.6871 238.929 36.2116 239.937 34.3699 241.845C33.7425 242.477 33.2946 243.264 33.0719 244.125H55.6515Z" fill="#36C9D8"/>
<path d="M32.9081 145.103C34.3001 141.074 42.7221 102.672 48.6203 95.1964C55.1035 86.9731 58.2166 86.1676 61.6262 85.2455C67.6767 83.389 78.6535 80.8018 78.6535 80.8018L96.6367 84.4391L107.257 81.554C107.257 81.554 123.319 87.9889 127.799 91.891L127.799 91.8887C127.799 91.8887 134.909 97.1887 136.462 104.24C138.014 111.292 137.405 154.617 137.224 156.791C137.115 158.101 145.56 177.48 152.293 192.683L135.821 200.801C134.463 198.711 133.065 196.554 131.683 194.415C132.127 197.173 132.013 199.605 130.433 200.965C117.713 211.914 53.9702 202.793 53.9702 202.793C53.922 196.584 54.5786 190.39 55.9275 184.327C58.7082 172.674 58.1478 166.812 57.6229 160.006C57.476 158.099 57.1202 152.611 56.6767 145.614L53.3646 154.169C52.3952 162.163 48.3547 218.439 48.3547 218.439C43.2257 216.131 35.1323 218.439 35.1323 218.439C35.1323 218.439 31.9873 171.335 31.8085 162.91C31.6297 154.48 31.4729 149.245 32.9081 145.103Z" fill="#3268AE"/>
<g style="mix-blend-mode:overlay" opacity="0.6">
<path d="M103.05 91.3424L91.9323 86.047L96.6383 84.4392L103.05 91.3424Z" fill="#030F1C"/>
</g>
<path d="M102.878 206.557C103.021 206.557 103.139 206.446 103.148 206.304C103.404 202.111 102.67 190.111 101.961 178.507C101.236 166.668 100.487 154.426 100.79 150.509C101.355 143.19 102.44 109.489 101.941 103.256C101.452 97.1432 96.9433 84.7557 96.8978 84.6314C96.8467 84.4915 96.6913 84.4193 96.5508 84.4702C96.4103 84.5211 96.3379 84.6758 96.389 84.8158C96.4339 84.9395 100.918 97.2588 101.402 103.299C101.899 109.515 100.814 143.159 100.25 150.467C99.9443 154.422 100.694 166.683 101.42 178.54C102.129 190.128 102.862 202.111 102.607 206.271C102.598 206.42 102.712 206.548 102.861 206.557L102.878 206.557Z" fill="#0B122D"/>
<g style="mix-blend-mode:overlay" opacity="0.6">
<path d="M57.2486 154.536C57.0633 151.477 56.8658 148.449 56.6695 145.631L66.794 119.478C67.1143 122.631 68.338 137.237 65.2445 151.662C60.8028 172.369 68.848 185.872 76.692 193.757C83.3526 200.452 96.8236 201.769 106.58 206.267C88.1391 207.717 53.9702 202.793 53.9702 202.793C53.9702 202.793 54.053 194.157 56.6942 180.842C58.8242 170.104 57.8298 164.131 57.2486 154.536Z" fill="#030F1C"/>
</g>
<path d="M128.092 168.899L128.102 168.899C128.252 168.893 128.369 168.768 128.363 168.62C127.314 139.938 129.228 106.087 129.248 105.748C129.252 105.677 129.227 105.607 129.179 105.554C129.132 105.5 129.064 105.468 128.993 105.464C128.92 105.458 128.849 105.481 128.795 105.529C128.741 105.577 128.709 105.646 128.707 105.718C128.687 106.057 126.772 139.933 127.822 168.639C127.827 168.784 127.947 168.899 128.092 168.899Z" fill="#0B122D"/>
<path d="M122.869 191.368C122.919 191.368 122.968 191.355 123.01 191.329C127.668 188.502 129.165 182.653 129.227 182.405C129.262 182.261 129.173 182.116 129.029 182.08C128.884 182.045 128.738 182.132 128.701 182.276C128.686 182.334 127.193 188.159 122.729 190.868C122.625 190.931 122.576 191.055 122.609 191.171C122.641 191.288 122.748 191.368 122.869 191.368Z" fill="#0B122D"/>
<g style="mix-blend-mode:overlay" opacity="0.6">
<path opacity="0.6" d="M131.586 95.518C131.586 95.518 125.413 91.1072 118.985 89.7351C114.79 88.7943 110.689 87.4818 106.729 85.8133L108.495 82.0598C108.495 82.0598 122.421 87.8289 126.333 90.7859C128.255 92.1646 130.016 93.7517 131.586 95.518" fill="white"/>
</g>
<g style="mix-blend-mode:overlay" opacity="0.6">
<path d="M93.3262 91.5749L69.8649 82.9835L78.6535 80.8018L93.3262 91.5749Z" fill="#030F1C"/>
</g>
<g style="mix-blend-mode:overlay" opacity="0.6">
<path d="M98.9773 109.689C98.9776 110.151 99.3541 110.525 99.8182 110.525C100.282 110.525 100.658 110.15 100.658 109.688C100.658 109.226 100.282 108.851 99.8177 108.851C99.5948 108.851 99.3809 108.94 99.2233 109.097C99.0657 109.254 98.9772 109.467 98.9773 109.689Z" fill="#030F1C"/>
</g>
<g style="mix-blend-mode:overlay" opacity="0.6">
<path d="M98.3869 126.28C98.3866 126.619 98.5912 126.924 98.9053 127.054C99.2194 127.184 99.5811 127.113 99.8217 126.873C100.062 126.634 100.134 126.274 100.004 125.961C99.8745 125.648 99.5679 125.444 99.2279 125.444C98.7638 125.444 98.3875 125.818 98.3869 126.28Z" fill="#030F1C"/>
</g>
<g style="mix-blend-mode:overlay" opacity="0.6">
<path d="M96.9959 144.511C96.9962 144.973 97.3726 145.347 97.8367 145.347C98.3008 145.347 98.6769 144.972 98.6768 144.51C98.6766 144.048 98.3004 143.673 97.8363 143.673C97.6133 143.673 97.3995 143.762 97.2419 143.919C97.0843 144.076 96.9958 144.289 96.9959 144.511Z" fill="#030F1C"/>
</g>
<g style="mix-blend-mode:overlay" opacity="0.6">
<path d="M96.6961 161.537C96.6958 161.876 96.9004 162.181 97.2144 162.311C97.5283 162.441 97.8899 162.369 98.1304 162.13C98.3709 161.891 98.443 161.531 98.3132 161.218C98.1833 160.905 97.8769 160.701 97.537 160.701C97.073 160.701 96.6967 161.075 96.6961 161.537Z" fill="#030F1C"/>
</g>
<g style="mix-blend-mode:overlay" opacity="0.6">
<path d="M97.5363 185.508C97.536 185.847 97.7407 186.152 98.0548 186.282C98.369 186.412 98.7307 186.341 98.9713 186.101C99.2119 185.862 99.2839 185.502 99.1538 185.189C99.0236 184.876 98.7169 184.672 98.3768 184.672C97.9129 184.672 97.5367 185.046 97.5363 185.508Z" fill="#030F1C"/>
</g>
<g style="mix-blend-mode:overlay" opacity="0.6">
<path d="M129.086 181.734C128.972 179.258 128.827 176.854 128.671 174.505C130.857 179.049 132.259 183.948 131.33 191.472C130.496 187.958 129.202 184.263 129.086 181.734Z" fill="#030F1C"/>
</g>
<path d="M129.305 157.141C129.36 157.141 129.414 157.124 129.46 157.092C133.187 154.505 137.185 156.407 137.225 156.426C137.359 156.492 137.521 156.437 137.587 156.304C137.653 156.17 137.598 156.008 137.464 155.943C137.421 155.922 133.146 153.877 129.15 156.65C129.053 156.717 129.011 156.84 129.047 156.952C129.082 157.064 129.187 157.141 129.305 157.141V157.141Z" fill="#0B122D"/>
<g style="mix-blend-mode:overlay" opacity="0.6">
<path d="M152.293 192.683L149.175 194.22C144.68 184.923 135.326 160.551 134.311 158.133C133.197 155.482 134.689 119.614 135.322 117.125C135.954 114.637 137.358 113.774 137.358 113.774C137.358 113.774 137.766 145.642 137.224 156.791C140.266 165.503 147.636 182.024 152.293 192.683Z" fill="white"/>
</g>
<path d="M61.1833 126.576C61.2383 126.577 61.292 126.56 61.3372 126.529C69.0921 121.189 69.1392 109.533 69.1387 109.416C69.1358 109.268 69.0154 109.149 68.8668 109.147C68.795 109.148 68.7262 109.176 68.6756 109.227C68.625 109.278 68.5967 109.346 68.5971 109.418C68.5976 109.532 68.5473 120.908 61.0294 126.085C60.932 126.152 60.8897 126.275 60.925 126.387C60.9602 126.5 61.0649 126.576 61.1833 126.577V126.576Z" fill="#0B122D"/>
<path d="M46.361 158.953C46.4582 158.953 46.5479 158.901 46.5959 158.817C48.6883 155.173 53.3575 154.443 53.4046 154.436C53.5525 154.414 53.6547 154.277 53.6328 154.13C53.6109 153.983 53.4732 153.881 53.3252 153.903C53.1232 153.932 48.3508 154.674 46.1262 158.55C46.0782 158.633 46.0785 158.736 46.1269 158.819C46.1753 158.902 46.2645 158.953 46.361 158.953L46.361 158.953Z" fill="#0B122D"/>
<path fill-rule="evenodd" clip-rule="evenodd" d="M80.9006 71.5395L78.6544 80.8018L93.3268 91.5751C93.3268 91.5751 93.9403 87.1351 96.6379 84.4394L103.05 91.3427L107.258 81.5541L103.184 76.9866C103.184 76.9866 101.207 82.2339 96.6378 84.439C89.6758 82.7848 83.8692 78.0252 80.9006 71.5395ZM92.7117 118.36L92.7819 121.272L74.9563 121.698L74.8861 118.786L92.7117 118.36Z" fill="#FCC92C"/>
<g style="mix-blend-mode:overlay" opacity="0.6">
<path fill-rule="evenodd" clip-rule="evenodd" d="M180.057 184.088L184.473 192.972L183.513 193.445C183.339 193.531 183.205 193.683 183.143 193.867C183.081 194.05 183.094 194.251 183.181 194.425L190.075 208.298C190.255 208.66 190.696 208.808 191.059 208.629L192.019 208.156L196.435 217.04C196.665 217.504 196.701 218.04 196.535 218.53C196.368 219.02 196.013 219.424 195.548 219.654L144.862 244.635C144.397 244.864 143.859 244.9 143.367 244.735C142.874 244.569 142.468 244.216 142.238 243.752L125.861 210.799C125.631 210.336 125.594 209.8 125.761 209.31C125.927 208.82 126.282 208.416 126.747 208.186L177.433 183.205C177.898 182.975 178.437 182.939 178.929 183.105C179.421 183.271 179.827 183.624 180.057 184.088ZM171.255 227.643C171.448 227.548 171.596 227.381 171.666 227.178C171.735 226.975 171.721 226.753 171.626 226.56L166.138 215.424C165.94 215.023 165.453 214.857 165.05 215.054C164.647 215.251 164.481 215.736 164.679 216.137L170.167 227.273C170.365 227.674 170.852 227.839 171.255 227.643ZM160.889 232.446C160.819 232.649 160.671 232.816 160.477 232.911C160.074 233.107 159.588 232.942 159.39 232.541L151.157 215.837C150.959 215.435 151.126 214.951 151.528 214.754C151.931 214.557 152.418 214.722 152.616 215.124L160.849 231.828C160.944 232.02 160.958 232.243 160.889 232.446ZM142.282 209.56C141.879 209.757 141.713 210.242 141.91 210.643L154.001 235.174C154.199 235.576 154.686 235.741 155.089 235.544C155.492 235.347 155.658 234.863 155.46 234.461L143.369 209.93C143.171 209.529 142.685 209.363 142.282 209.56ZM153.124 206.26C152.926 205.859 153.092 205.374 153.495 205.177C153.898 204.98 154.385 205.146 154.582 205.547L166.237 229.194C166.435 229.595 166.269 230.08 165.866 230.277C165.463 230.473 164.976 230.308 164.778 229.907L153.124 206.26ZM165.327 202.048C164.924 202.244 164.758 202.729 164.956 203.131L175.556 224.639C175.754 225.04 176.241 225.206 176.644 225.009C177.046 224.812 177.213 224.327 177.015 223.926L166.414 202.417C166.217 202.016 165.73 201.851 165.327 202.048ZM166.835 193.378C166.638 192.977 166.804 192.492 167.207 192.295C167.61 192.098 168.097 192.264 168.294 192.665L182.403 221.292C182.601 221.693 182.435 222.178 182.032 222.375C181.629 222.572 181.142 222.406 180.945 222.005L166.835 193.378Z" fill="white"/>
</g>
<g style="mix-blend-mode:overlay" opacity="0.6">
<path fill-rule="evenodd" clip-rule="evenodd" d="M83.8253 262.02L83.8253 297.752C83.8219 300.978 81.2353 303.613 77.9967 303.689L78.2467 303.694C81.5417 303.694 87.0732 301.015 87.0732 296.314V249.947C87.0732 246.665 84.4021 244.005 81.1071 244.005H9.99307C6.69807 244.005 0.971535 246.605 0.971535 249.887L0.972084 249.896C1.65446 247.277 4.02699 245.447 6.74384 245.445H77.8568C81.1511 245.445 83.8225 248.103 83.8253 251.384L83.8253 260.914C83.7683 260.915 83.7118 260.924 83.6574 260.941L44.8919 273.186C44.3511 272.273 43.366 271.713 42.3018 271.713C41.2376 271.713 40.2528 272.274 39.7123 273.187L0.943268 260.941C0.888847 260.924 0.832314 260.915 0.775337 260.914V262.02L39.3369 274.201C39.3065 274.37 39.2907 274.541 39.2897 274.713V275.758C39.2897 277.415 40.6385 278.759 42.3024 278.759C43.9662 278.759 45.3151 277.415 45.3151 275.758V274.713C45.3141 274.54 45.2982 274.368 45.2675 274.197L83.8253 262.02Z" fill="#030F1C"/>
</g>
<path fill-rule="evenodd" clip-rule="evenodd" d="M35.631 218.31C35.5712 220.848 35.3154 224.142 34.4681 226.164C33.2876 228.98 33.1985 237.882 34.3636 239.948C34.7737 240.565 35.3563 241.049 36.0396 241.34C36.7618 241.796 37.5315 242.173 38.3353 242.465C38.7037 242.557 39.0742 242.429 39.4559 242.297C39.8145 242.173 40.1831 242.045 40.5694 242.094C40.9305 242.139 41.3284 242.344 41.7308 242.552C42.1884 242.788 42.6519 243.027 43.0743 243.038C43.5485 243.05 44.0341 242.851 44.5119 242.655C44.9122 242.491 45.3071 242.329 45.6852 242.296C46.166 242.253 46.6429 242.345 47.1004 242.433C47.6449 242.537 48.162 242.637 48.6258 242.498C49.2141 242.323 50.696 240.949 50.9276 240.622C51.4927 239.823 51.1575 238.31 50.8863 237.087C50.6928 236.213 50.5319 235.487 50.7544 235.273C50.9654 235.069 51.1378 235.38 51.426 235.9C51.8675 236.697 52.5807 237.983 54.1204 238.66C56.666 239.778 58.1233 237.499 57.788 236.832C57.4527 236.166 52.4141 230.538 51.0326 229.093C50.0389 228.055 49.422 226.592 48.9362 225.44C48.7459 224.989 48.5756 224.585 48.4108 224.274C48.0416 223.577 47.9214 220.457 47.8829 218.243C43.5279 216.569 37.3988 217.873 35.631 218.31ZM169.857 231.154C170.71 230.845 171.663 231.191 172.115 231.975L173.328 233.93C173.569 234.318 173.625 234.793 173.482 235.227C173.339 235.661 173.01 236.009 172.585 236.179L172.109 236.37C171.436 236.639 170.667 236.409 170.253 235.816L168.937 233.929C168.621 233.453 168.542 232.86 168.721 232.319C168.9 231.778 169.319 231.348 169.857 231.154ZM177.856 231.194C178.293 231.664 178.669 232.186 178.977 232.747C179.293 233.827 178.546 235.405 176.929 234.567C176.147 234.026 175.425 233.405 174.775 232.713L177.856 231.194ZM165.719 233.178V233.178C165.113 233.288 164.598 233.686 164.34 234.243C164.082 234.801 164.113 235.449 164.424 235.979L165.289 237.551C165.595 238.107 166.245 238.378 166.857 238.206L167.713 237.965C168.092 237.858 168.407 237.594 168.575 237.239C168.744 236.885 168.751 236.475 168.594 236.116L167.81 234.317C167.471 233.493 166.599 233.018 165.719 233.178ZM160.643 234.93C161.439 234.819 162.197 235.304 162.425 236.072L163.036 237.617C163.164 237.941 163.134 238.306 162.955 238.606C162.776 238.905 162.469 239.106 162.121 239.148L161.207 239.261C160.715 239.321 160.241 239.056 160.037 238.607L159.335 237.062C159.176 236.605 159.23 236.102 159.483 235.689C159.736 235.276 160.162 234.998 160.643 234.93Z" fill="#F7B17D"/>
</svg>
