<svg width="57" height="56" viewBox="0 0 57 56" fill="none" xmlns="http://www.w3.org/2000/svg">
<path d="M42.6226 9.33325H14.8331C10.9962 9.33325 7.88574 12.4673 7.88574 16.3333V39.6666C7.88574 43.5326 10.9962 46.6666 14.8331 46.6666H42.6226C46.4595 46.6666 49.57 43.5326 49.57 39.6666V16.3333C49.57 12.4673 46.4595 9.33325 42.6226 9.33325Z" stroke="#1B5BF7" stroke-width="3.5" stroke-linecap="round" stroke-linejoin="round"/>
<path d="M21.781 28.0001C24.3389 28.0001 26.4126 25.9107 26.4126 23.3334C26.4126 20.7561 24.3389 18.6667 21.781 18.6667C19.223 18.6667 17.1494 20.7561 17.1494 23.3334C17.1494 25.9107 19.223 28.0001 21.781 28.0001Z" stroke="#1B5BF7" stroke-width="3.5" stroke-linecap="round" stroke-linejoin="round"/>
<path d="M35.6758 18.6667H40.3074" stroke="#1B5BF7" stroke-width="3.5" stroke-linecap="round" stroke-linejoin="round"/>
<path d="M35.6758 28H40.3074" stroke="#1B5BF7" stroke-width="3.5" stroke-linecap="round" stroke-linejoin="round"/>
<path d="M17.1494 37.3333H40.3073" stroke="#1B5BF7" stroke-width="3.5" stroke-linecap="round" stroke-linejoin="round"/>
</svg>
