<svg width="25" height="25" viewBox="0 0 25 25" fill="none" xmlns="http://www.w3.org/2000/svg">
<path d="M7.29134 19.7917C8.44193 19.7917 9.37467 18.8589 9.37467 17.7083C9.37467 16.5577 8.44193 15.625 7.29134 15.625C6.14075 15.625 5.20801 16.5577 5.20801 17.7083C5.20801 18.8589 6.14075 19.7917 7.29134 19.7917Z" stroke="#FF5722" stroke-width="2" stroke-linecap="round" stroke-linejoin="round"/>
<path d="M17.7083 19.7917C18.8589 19.7917 19.7917 18.8589 19.7917 17.7083C19.7917 16.5577 18.8589 15.625 17.7083 15.625C16.5577 15.625 15.625 16.5577 15.625 17.7083C15.625 18.8589 16.5577 19.7917 17.7083 19.7917Z" stroke="#FF5722" stroke-width="2" stroke-linecap="round" stroke-linejoin="round"/>
<path d="M5.20801 17.7085H3.12467V13.5418M2.08301 5.2085H13.5413V17.7085M9.37468 17.7085H15.6247M19.7913 17.7085H21.8747V11.4585M21.8747 11.4585H13.5413M21.8747 11.4585L18.7497 6.25016H13.5413" stroke="#FF5722" stroke-width="2" stroke-linecap="round" stroke-linejoin="round"/>
<path d="M3.125 9.375H7.29167" stroke="#FF5722" stroke-width="2" stroke-linecap="round" stroke-linejoin="round"/>
</svg>
