<svg width="56" height="56" viewBox="0 0 56 56" fill="none" xmlns="http://www.w3.org/2000/svg">
<path d="M16.333 23.3333L27.9997 9.33325L39.6663 23.3333" stroke="#1B5BF7" stroke-width="3.5" stroke-linecap="round" stroke-linejoin="round"/>
<path d="M49 23.3333L44.3333 41.9999C44.1152 43.3374 43.5287 44.5368 42.676 45.3895C41.8233 46.2422 40.7584 46.6941 39.6667 46.6666H16.3333C15.2416 46.6941 14.1767 46.2422 13.324 45.3895C12.4713 44.5368 11.8848 43.3374 11.6667 41.9999L7 23.3333H49Z" stroke="#1B5BF7" stroke-width="3.5" stroke-linecap="round" stroke-linejoin="round"/>
<path d="M27.9997 39.6666C30.577 39.6666 32.6663 37.5772 32.6663 34.9999C32.6663 32.4226 30.577 30.3333 27.9997 30.3333C25.4223 30.3333 23.333 32.4226 23.333 34.9999C23.333 37.5772 25.4223 39.6666 27.9997 39.6666Z" stroke="#1B5BF7" stroke-width="3.5" stroke-linecap="round" stroke-linejoin="round"/>
</svg>
