<svg width="48" height="48" viewBox="0 0 48 48" fill="none" xmlns="http://www.w3.org/2000/svg">
<circle cx="24" cy="24" r="24" fill="#F4F7FF"/>
<path fill-rule="evenodd" clip-rule="evenodd" d="M15.4287 18C15.4287 19.8936 16.9637 21.4286 18.8573 21.4286C20.7508 21.4286 22.2859 19.8936 22.2859 18C22.2859 16.1065 20.7508 14.5715 18.8573 14.5715C16.9637 14.5715 15.4287 16.1065 15.4287 18ZM20.5717 18C20.5717 18.9468 19.8041 19.7143 18.8574 19.7143C17.9106 19.7143 17.1431 18.9468 17.1431 18C17.1431 17.0533 17.9106 16.2858 18.8574 16.2858C19.8041 16.2858 20.5717 17.0533 20.5717 18Z" fill="#1B5BF7"/>
<path opacity="0.3" fill-rule="evenodd" clip-rule="evenodd" d="M26.5704 22.2857V24H21.4276C20.8031 24 20.2176 23.833 19.7133 23.5413V28.2857C19.7133 29.2325 20.4808 30 21.4276 30H26.5704V31.7143H21.4276C19.534 31.7143 17.999 30.1793 17.999 28.2857V20.5714V20.1429V19.7143H19.7133V20.1429V20.5714C19.7133 21.5182 20.4808 22.2857 21.4276 22.2857H26.5704Z" fill="#1B5BF7"/>
<path fill-rule="evenodd" clip-rule="evenodd" d="M25.7139 30.8572C25.7139 32.7507 27.2489 34.2857 29.1424 34.2857C31.036 34.2857 32.571 32.7507 32.571 30.8572C32.571 28.9636 31.036 27.4286 29.1424 27.4286C27.2489 27.4286 25.7139 28.9636 25.7139 30.8572ZM30.8568 30.8572C30.8568 31.8039 30.0893 32.5714 29.1425 32.5714C28.1958 32.5714 27.4282 31.8039 27.4282 30.8572C27.4282 29.9104 28.1958 29.1429 29.1425 29.1429C30.0893 29.1429 30.8568 29.9104 30.8568 30.8572Z" fill="#1B5BF7"/>
<path fill-rule="evenodd" clip-rule="evenodd" d="M25.7139 23.1429C25.7139 25.0364 27.2489 26.5714 29.1424 26.5714C31.036 26.5714 32.571 25.0364 32.571 23.1429C32.571 21.2493 31.036 19.7143 29.1424 19.7143C27.2489 19.7143 25.7139 21.2493 25.7139 23.1429ZM30.8568 23.1429C30.8568 24.0896 30.0893 24.8571 29.1425 24.8571C28.1958 24.8571 27.4282 24.0896 27.4282 23.1429C27.4282 22.1961 28.1958 21.4286 29.1425 21.4286C30.0893 21.4286 30.8568 22.1961 30.8568 23.1429Z" fill="#1B5BF7"/>
</svg>
