<svg width="24" height="24" viewBox="0 0 24 24" fill="none" xmlns="http://www.w3.org/2000/svg">
<g clip-path="url(#clip0)">
<path d="M12.7979 12C12.7979 10.9387 13.2195 9.92073 13.97 9.17021C14.7205 8.41969 15.7385 7.99805 16.7999 7.99805C17.8612 7.99805 18.8792 8.41969 19.6297 9.17021C20.3802 9.92073 20.8019 10.9387 20.8019 12C20.8019 13.0614 20.3802 14.0794 19.6297 14.8299C18.8792 15.5804 17.8612 16.002 16.7999 16.002C15.7385 16.002 14.7205 15.5804 13.97 14.8299C13.2195 14.0794 12.7979 13.0614 12.7979 12Z" fill="#1ABCFE"/>
<path d="M4.79988 19.998C4.80146 18.9376 5.2238 17.9212 5.97415 17.172C6.7245 16.4228 7.74152 16.002 8.80187 16.002H12.7979V19.998C12.8187 20.5361 12.7307 21.073 12.5392 21.5764C12.3476 22.0797 12.0564 22.5393 11.683 22.9274C11.3096 23.3156 10.8617 23.6243 10.3661 23.8352C9.87052 24.0462 9.33747 24.1549 8.79887 24.1549C8.26028 24.1549 7.72723 24.0462 7.23166 23.8352C6.73608 23.6243 6.28818 23.3156 5.91478 22.9274C5.54138 22.5393 5.25017 22.0797 5.0586 21.5764C4.86702 21.073 4.77902 20.5361 4.79988 19.998Z" fill="#0ACF83"/>
<path d="M12.7979 0V7.998H16.7999C17.8336 7.95795 18.8118 7.5191 19.529 6.77352C20.2463 6.02795 20.6469 5.03357 20.6469 3.999C20.6469 2.96443 20.2463 1.97005 19.529 1.22448C18.8118 0.478896 17.8336 0.0400513 16.7999 0H12.7979Z" fill="#FF7262"/>
<path d="M4.7998 4.002C4.80139 5.06236 5.22373 6.07874 5.97408 6.82796C6.72443 7.57719 7.74145 7.998 8.80181 7.998H12.7978V0H8.80181C7.74041 0 6.72248 0.421638 5.97196 1.17216C5.22144 1.92268 4.7998 2.9406 4.7998 4.002Z" fill="#F24E1E"/>
<path d="M4.7998 12C4.7998 13.0614 5.22144 14.0794 5.97196 14.8299C6.72248 15.5804 7.74041 16.002 8.80181 16.002H12.7978V7.99805H8.80181C7.74041 7.99805 6.72248 8.41969 5.97196 9.17021C5.22144 9.92073 4.7998 10.9387 4.7998 12Z" fill="#A259FF"/>
</g>
<defs>
<clipPath id="clip0">
<rect width="24" height="24" fill="white"/>
</clipPath>
</defs>
</svg>
