<svg width="25" height="25" viewBox="0 0 25 25" fill="none" xmlns="http://www.w3.org/2000/svg">
<path d="M7.29199 10.417L12.5003 4.16699L17.7087 10.417" stroke="#F50000" stroke-width="2" stroke-linecap="round" stroke-linejoin="round"/>
<path d="M21.875 10.417L19.7917 18.7503C19.6943 19.3474 19.4324 19.8829 19.0518 20.2635C18.6711 20.6442 18.1957 20.8459 17.7083 20.8337H7.29167C6.80428 20.8459 6.32888 20.6442 5.94821 20.2635C5.56755 19.8829 5.30573 19.3474 5.20833 18.7503L3.125 10.417H21.875Z" stroke="#F50000" stroke-width="2" stroke-linecap="round" stroke-linejoin="round"/>
<path d="M12.5003 17.7087C13.6509 17.7087 14.5837 16.7759 14.5837 15.6253C14.5837 14.4747 13.6509 13.542 12.5003 13.542C11.3497 13.542 10.417 14.4747 10.417 15.6253C10.417 16.7759 11.3497 17.7087 12.5003 17.7087Z" stroke="#F50000" stroke-width="2" stroke-linecap="round" stroke-linejoin="round"/>
</svg>
