<svg width="163" height="98" viewBox="0 0 163 98" fill="none" xmlns="http://www.w3.org/2000/svg">
<path d="M147 0.285156H16.1426C7.30602 0.285156 0.142578 7.4486 0.142578 16.2852V81.9995C0.142578 90.836 7.30602 97.9995 16.1426 97.9995H147C155.836 97.9995 163 90.836 163 81.9995V16.2852C163 7.4486 155.836 0.285156 147 0.285156Z" fill="white"/>
<path fill-rule="evenodd" clip-rule="evenodd" d="M70.0585 46.4615V45.9657C70.7695 45.9657 71.1245 45.7258 71.1245 45.2459V42.862C71.0525 42.8226 70.9525 42.7892 70.8255 42.7617C70.6985 42.7341 70.5485 42.7202 70.3735 42.7202H69.0685C68.7995 42.7202 68.5635 42.7675 68.3605 42.862V45.2459C68.3605 45.7258 68.6875 45.9657 69.3405 45.9657V46.4615H65.4775V45.9657C66.2095 45.9657 66.5765 45.7258 66.5765 45.2459V40.0884C66.5765 39.4669 66.2095 39.1562 65.4775 39.1562V38.6367H69.3405V39.1562C68.6875 39.1562 68.3605 39.4669 68.3605 40.0884V42.0119C68.4695 42.0513 68.5785 42.0791 68.6875 42.0948C68.7965 42.1106 68.9235 42.1184 69.0685 42.1184H70.3735C70.7515 42.1184 71.0015 42.0869 71.1245 42.0239V40.0884C71.1245 39.4669 70.7695 39.1562 70.0585 39.1562V38.6367H73.8995V39.1562C73.2395 39.1562 72.9095 39.4669 72.9095 40.0884V45.2459C72.9095 45.7258 73.2395 45.9657 73.8995 45.9657V46.4615H70.0585Z" fill="black"/>
<path fill-rule="evenodd" clip-rule="evenodd" d="M82.4754 42.5078C82.4754 43.1764 82.3774 43.7666 82.1814 44.278C81.9854 44.7896 81.7154 45.2203 81.3704 45.5704C81.0264 45.9204 80.6194 46.1859 80.1524 46.3671C79.6844 46.548 79.1744 46.6383 78.6234 46.6383C78.1004 46.6383 77.6114 46.5617 77.1544 46.4083C76.6974 46.2547 76.2974 46.0149 75.9574 45.6884C75.6164 45.3619 75.3474 44.9428 75.1514 44.4316C74.9554 43.92 74.8574 43.3101 74.8574 42.6022C74.8574 41.8862 74.9524 41.2703 75.1404 40.755C75.3294 40.2396 75.5924 39.8149 75.9294 39.4803C76.2674 39.1459 76.6664 38.9003 77.1264 38.7429C77.5874 38.5856 78.0864 38.5068 78.6234 38.5068C79.1524 38.5068 79.6514 38.5914 80.1194 38.7606C80.5874 38.9299 80.9954 39.1816 81.3434 39.5159C81.6914 39.8503 81.9674 40.2674 82.1704 40.767C82.3734 41.2666 82.4754 41.8468 82.4754 42.5078ZM78.7104 46.0483C79.0944 46.0483 79.4104 45.9596 79.6564 45.7827C79.9034 45.6057 80.0974 45.3619 80.2394 45.0512C80.3804 44.74 80.4784 44.3744 80.5324 43.9535C80.5874 43.5325 80.6144 43.0821 80.6144 42.6022C80.6144 42.1536 80.5874 41.717 80.5324 41.2923C80.4784 40.8673 80.3764 40.4894 80.2284 40.1592C80.0794 39.8287 79.8704 39.5632 79.6024 39.3625C79.3344 39.1619 78.9824 39.0615 78.5464 39.0615C78.1474 39.0615 77.8284 39.1561 77.5894 39.3449C77.3494 39.5338 77.1664 39.7875 77.0394 40.1059C76.9124 40.4247 76.8294 40.7906 76.7894 41.2037C76.7494 41.6167 76.7294 42.0512 76.7294 42.5078C76.7294 43.0035 76.7584 43.4676 76.8164 43.9005C76.8744 44.3329 76.9784 44.7087 77.1264 45.0275C77.2754 45.3461 77.4764 45.5959 77.7304 45.7769C77.9844 45.9577 78.3114 46.0483 78.7104 46.0483Z" fill="black"/>
<path fill-rule="evenodd" clip-rule="evenodd" d="M87.622 41.1871C87.564 40.8722 87.491 40.5853 87.404 40.3254C87.317 40.0658 87.21 39.8416 87.083 39.6527C86.956 39.4641 86.811 39.3183 86.648 39.2159C86.485 39.1137 86.301 39.0627 86.098 39.0627C85.677 39.0627 85.351 39.1552 85.119 39.3399C84.887 39.525 84.771 39.7669 84.771 40.0658C84.771 40.2781 84.811 40.4512 84.89 40.5853C84.97 40.719 85.086 40.839 85.239 40.9452C85.391 41.0511 85.578 41.1498 85.799 41.24C86.02 41.3308 86.269 41.4348 86.544 41.5528C86.856 41.6865 87.143 41.8206 87.404 41.9543C87.665 42.088 87.888 42.2491 88.073 42.4381C88.258 42.627 88.401 42.8552 88.503 43.1224C88.605 43.3901 88.655 43.7285 88.655 44.1374C88.655 44.531 88.596 44.8809 88.476 45.1879C88.356 45.4949 88.186 45.7563 87.964 45.9728C87.743 46.1892 87.478 46.3544 87.17 46.4684C86.862 46.5826 86.523 46.6394 86.153 46.6394C85.884 46.6394 85.625 46.6042 85.375 46.5335C85.124 46.4626 84.905 46.3368 84.716 46.1556C84.571 46.2657 84.421 46.3641 84.265 46.4506C84.109 46.5372 83.947 46.6079 83.78 46.6631C83.693 46.3876 83.632 46.1106 83.595 45.8312C83.559 45.5517 83.541 45.2626 83.541 44.9638C83.541 44.7592 83.546 44.5586 83.557 44.3618C83.568 44.1651 83.588 43.9645 83.617 43.7599H84.324C84.324 44.0196 84.355 44.2831 84.417 44.5507C84.479 44.8179 84.578 45.0642 84.716 45.2881C84.854 45.5124 85.034 45.6954 85.255 45.8372C85.476 45.9788 85.743 46.0495 86.055 46.0495C86.338 46.0495 86.575 46.0161 86.767 45.9491C86.96 45.8822 87.116 45.7899 87.235 45.6718C87.355 45.5536 87.442 45.4182 87.497 45.2644C87.551 45.1112 87.578 44.9481 87.578 44.775C87.578 44.4993 87.513 44.2694 87.382 44.0843C87.252 43.8996 87.038 43.7522 86.74 43.6419C86.298 43.4767 85.891 43.3135 85.521 43.1521C85.152 42.9906 84.83 42.798 84.558 42.5739C84.286 42.3494 84.074 42.0839 83.922 41.7771C83.769 41.4705 83.693 41.0926 83.693 40.644C83.693 40.3059 83.753 40.001 83.873 39.7296C83.992 39.4581 84.154 39.2279 84.357 39.0391C84.56 38.8501 84.798 38.7066 85.07 38.6083C85.342 38.5101 85.63 38.4609 85.935 38.4609C86.203 38.4609 86.461 38.5138 86.708 38.6202C86.954 38.7265 87.161 38.9054 87.328 39.1572C87.408 38.9999 87.524 38.8699 87.676 38.7677C87.828 38.6655 87.981 38.5905 88.133 38.5433C88.242 38.929 88.309 39.3598 88.334 39.8357C88.36 40.3119 88.373 40.7622 88.373 41.1871H87.622Z" fill="black"/>
<path fill-rule="evenodd" clip-rule="evenodd" d="M94.2285 46.4615V45.9657C94.9395 45.9657 95.2945 45.7258 95.2945 45.2459V42.862C95.2225 42.8226 95.1225 42.7892 94.9955 42.7617C94.8685 42.7341 94.7175 42.7202 94.5435 42.7202H93.2385C92.9695 42.7202 92.7335 42.7675 92.5305 42.862V45.2459C92.5305 45.7258 92.8575 45.9657 93.5105 45.9657V46.4615H89.6465V45.9657C90.3795 45.9657 90.7465 45.7258 90.7465 45.2459V40.0884C90.7465 39.4669 90.3795 39.1562 89.6465 39.1562V38.6367H93.5105V39.1562C92.8575 39.1562 92.5305 39.4669 92.5305 40.0884V42.0119C92.6395 42.0513 92.7485 42.0791 92.8575 42.0948C92.9655 42.1106 93.0925 42.1184 93.2385 42.1184H94.5435C94.9215 42.1184 95.1715 42.0869 95.2945 42.0239V40.0884C95.2945 39.4669 94.9395 39.1562 94.2285 39.1562V38.6367H98.0695V39.1562C97.4095 39.1562 97.0795 39.4669 97.0795 40.0884V45.2459C97.0795 45.7258 97.4095 45.9657 98.0695 45.9657V46.4615H94.2285Z" fill="black"/>
<path fill-rule="evenodd" clip-rule="evenodd" d="M99.1446 46.4615V45.9657C99.8196 45.9657 100.157 45.7258 100.157 45.2459V40.0884C100.157 39.4669 99.8046 39.1562 99.1016 39.1562V38.6367H102.921V39.1562C102.276 39.1562 101.953 39.4669 101.953 40.0884V45.2459C101.953 45.7258 102.294 45.9657 102.976 45.9657V46.4615H99.1446Z" fill="black"/>
<path fill-rule="evenodd" clip-rule="evenodd" d="M110.093 46.4615V45.9657C110.724 45.9657 111.04 45.7061 111.04 45.1869L110.953 40.2534L108.798 46.4615H107.819L105.49 40.2891L105.447 45.0215C105.447 45.6512 105.802 45.9657 106.513 45.9657V46.4615H103.804V45.9657C104.13 45.9657 104.381 45.8811 104.555 45.7121C104.729 45.543 104.819 45.2814 104.827 44.9271L104.914 39.7696C104.914 39.6753 104.908 39.5907 104.897 39.516C104.886 39.4412 104.846 39.3782 104.778 39.3272C104.709 39.2762 104.602 39.2347 104.456 39.2032C104.312 39.1719 104.108 39.1562 103.847 39.1562V38.6367H106.763L108.864 44.3488L110.888 38.6367H113.456V39.1562C113.238 39.1562 113.064 39.1738 112.934 39.2092C112.803 39.2447 112.7 39.2918 112.624 39.3508C112.547 39.4097 112.498 39.4748 112.477 39.5457C112.455 39.6164 112.444 39.691 112.444 39.7696L112.575 45.1043C112.589 45.6788 112.912 45.9657 113.543 45.9657V46.4615H110.093Z" fill="black"/>
<path fill-rule="evenodd" clip-rule="evenodd" d="M122.128 42.5078C122.128 43.1764 122.03 43.7666 121.834 44.278C121.638 44.7896 121.368 45.2203 121.024 45.5704C120.679 45.9204 120.273 46.1859 119.805 46.3671C119.337 46.548 118.827 46.6383 118.276 46.6383C117.754 46.6383 117.264 46.5617 116.807 46.4083C116.35 46.2547 115.951 46.0149 115.61 45.6884C115.269 45.3619 115 44.9428 114.805 44.4316C114.609 43.92 114.511 43.3101 114.511 42.6022C114.511 41.8862 114.605 41.2703 114.794 40.755C114.982 40.2396 115.245 39.8149 115.583 39.4803C115.92 39.1459 116.319 38.9003 116.78 38.7429C117.24 38.5856 117.739 38.5068 118.276 38.5068C118.805 38.5068 119.304 38.5914 119.772 38.7606C120.24 38.9299 120.648 39.1816 120.996 39.5159C121.345 39.8503 121.62 40.2674 121.823 40.767C122.026 41.2666 122.128 41.8468 122.128 42.5078ZM118.363 46.0483C118.747 46.0483 119.063 45.9596 119.31 45.7827C119.556 45.6057 119.75 45.3619 119.892 45.0512C120.033 44.74 120.131 44.3744 120.186 43.9535C120.24 43.5325 120.267 43.0821 120.267 42.6022C120.267 42.1536 120.24 41.717 120.186 41.2923C120.131 40.8673 120.03 40.4894 119.881 40.1592C119.732 39.8287 119.524 39.5632 119.255 39.3625C118.987 39.1619 118.635 39.0615 118.2 39.0615C117.801 39.0615 117.482 39.1561 117.242 39.3449C117.003 39.5338 116.819 39.7875 116.693 40.1059C116.566 40.4247 116.482 40.7906 116.442 41.2037C116.402 41.6167 116.382 42.0512 116.382 42.5078C116.382 43.0035 116.411 43.4676 116.47 43.9005C116.527 44.3329 116.631 44.7087 116.78 45.0275C116.928 45.3461 117.13 45.5959 117.384 45.7769C117.638 45.9577 117.964 46.0483 118.363 46.0483Z" fill="black"/>
<path fill-rule="evenodd" clip-rule="evenodd" d="M125.252 46.556L122.804 39.8525C122.601 39.388 122.293 39.1562 121.879 39.1562V38.6367H125.492V39.1562H124.948C124.737 39.1562 124.632 39.2032 124.632 39.2978C124.632 39.463 124.661 39.6282 124.719 39.7932L126.45 44.7739L128.038 40.0295C128.067 39.9348 128.082 39.8052 128.082 39.64C128.082 39.3173 127.755 39.1562 127.102 39.1562V38.6367H129.801V39.1562H129.399C129.297 39.1562 129.208 39.2032 129.132 39.2978C129.056 39.3921 128.978 39.5299 128.898 39.7109L126.319 46.6384L125.252 46.556Z" fill="black"/>
<path fill-rule="evenodd" clip-rule="evenodd" d="M65.5205 58.8656V58.37C66.1955 58.37 66.5325 58.1299 66.5325 57.6501V52.4927C66.5325 51.871 66.1805 51.5603 65.4775 51.5603V51.041H69.2965V51.5603C68.6515 51.5603 68.3285 51.871 68.3285 52.4927V57.6501C68.3285 58.1299 68.6695 58.37 69.3505 58.37V58.8656H65.5205Z" fill="black"/>
<path fill-rule="evenodd" clip-rule="evenodd" d="M74.2267 58.4526C74.6117 58.4526 74.9267 58.3641 75.1737 58.187C75.4197 58.0102 75.6137 57.766 75.7557 57.4555C75.8967 57.1445 75.9947 56.7787 76.0497 56.3577C76.1037 55.9366 76.1307 55.4866 76.1307 55.0063C76.1307 54.5579 76.1037 54.1211 76.0497 53.6966C75.9947 53.2714 75.8937 52.8937 75.7447 52.5635C75.5957 52.2329 75.3877 51.9673 75.1187 51.7668C74.8507 51.566 74.4987 51.4657 74.0637 51.4657C73.6717 51.4657 73.3567 51.5602 73.1167 51.749C72.8777 51.9381 72.6937 52.1916 72.5677 52.5102C72.4407 52.829 72.3567 53.1947 72.3167 53.6079C72.2767 54.0208 72.2567 54.4557 72.2567 54.912C72.2567 55.4078 72.2857 55.8718 72.3447 56.3046C72.4027 56.7374 72.5037 57.113 72.6487 57.4318C72.7937 57.7503 72.9957 58.0001 73.2527 58.181C73.5107 58.3622 73.8347 58.4526 74.2267 58.4526ZM78.0247 59.4675C77.9447 59.7664 77.8417 60.0044 77.7147 60.1816C77.5877 60.3585 77.4537 60.4944 77.3117 60.5888C77.1707 60.6833 77.0287 60.7442 76.8877 60.7716C76.7457 60.7994 76.6167 60.8129 76.5007 60.8129C76.1167 60.8129 75.7507 60.6792 75.4017 60.4116C75.0537 60.1443 74.7377 59.6839 74.4557 59.0307C73.9107 59.0307 73.3927 58.9619 72.8987 58.8243C72.4057 58.6866 71.9737 58.4605 71.6037 58.1456C71.2347 57.8311 70.9387 57.4161 70.7177 56.9007C70.4957 56.3854 70.3857 55.7538 70.3857 55.0063C70.3857 54.2905 70.4797 53.6746 70.6687 53.1593C70.8567 52.6439 71.1197 52.2194 71.4577 51.885C71.7947 51.5504 72.1937 51.3044 72.6547 51.147C73.1147 50.9897 73.6137 50.9111 74.1507 50.9111C74.6727 50.9111 75.1677 50.9957 75.6357 51.1651C76.1037 51.334 76.5117 51.5857 76.8597 51.9201C77.2087 52.2544 77.4837 52.6715 77.6877 53.1711C77.8907 53.6707 77.9917 54.2513 77.9917 54.912C77.9917 55.9111 77.7847 56.7333 77.3717 57.3786C76.9577 58.0237 76.4067 58.4839 75.7177 58.7596C75.7827 58.9169 75.8667 59.0683 75.9677 59.214C76.0697 59.3593 76.1787 59.4851 76.2947 59.5915C76.4107 59.6978 76.5277 59.7822 76.6477 59.8452C76.7677 59.908 76.8787 59.9397 76.9797 59.9397C77.2557 59.9397 77.4627 59.7822 77.5997 59.4675H78.0247Z" fill="black"/>
<path fill-rule="evenodd" clip-rule="evenodd" d="M79.8296 58.8664V58.3708C80.5846 58.3708 80.9616 58.0403 80.9616 57.3795V52.0449C80.9616 51.809 80.8126 51.6908 80.5156 51.6908C80.2906 51.6908 80.0966 51.7321 79.9326 51.8148C79.7696 51.8975 79.6286 52.0213 79.5086 52.1865C79.3886 52.3517 79.2876 52.5584 79.2036 52.8061C79.1206 53.054 79.0466 53.3432 78.9806 53.6738L78.3066 53.5675L78.6106 50.9473C78.7996 50.9788 79.0066 51.0024 79.2316 51.0182C79.4566 51.0339 79.6336 51.0418 79.7646 51.0418H84.0626C84.2226 51.0418 84.4186 51.0339 84.6506 51.0182C84.8826 51.0024 85.0926 50.9788 85.2816 50.9473V53.532L84.6506 53.5909C84.6146 52.9694 84.4926 52.5053 84.2856 52.1983C84.0796 51.8915 83.7216 51.7381 83.2136 51.7381C82.9026 51.7381 82.7456 51.8403 82.7456 52.0449V57.3795C82.7456 58.0403 83.1306 58.3708 83.8996 58.3708V58.8664H79.8296Z" fill="black"/>
<path fill-rule="evenodd" clip-rule="evenodd" d="M85.9346 58.8656V58.37C86.6096 58.37 86.9466 58.1299 86.9466 57.6501V52.4927C86.9466 51.871 86.5946 51.5603 85.8916 51.5603V51.041H89.7106V51.5603C89.0646 51.5603 88.7426 51.871 88.7426 52.4927V57.6501C88.7426 58.1299 89.0836 58.37 89.7656 58.37V58.8656H85.9346Z" fill="black"/>
<path fill-rule="evenodd" clip-rule="evenodd" d="M94.956 53.5905C94.898 53.2758 94.825 52.9887 94.738 52.729C94.651 52.4693 94.544 52.2452 94.417 52.0563C94.29 51.8675 94.145 51.7219 93.982 51.6197C93.819 51.5173 93.635 51.4661 93.432 51.4661C93.012 51.4661 92.685 51.5586 92.453 51.7435C92.221 51.9284 92.105 52.1703 92.105 52.4693C92.105 52.6819 92.145 52.855 92.225 52.9887C92.304 53.1224 92.421 53.2425 92.573 53.3486C92.725 53.4549 92.912 53.5532 93.133 53.6438C93.354 53.7342 93.603 53.8384 93.879 53.9564C94.19 54.0903 94.477 54.224 94.738 54.3577C95 54.4914 95.223 54.6527 95.407 54.8415C95.592 55.0304 95.736 55.2586 95.837 55.526C95.939 55.7937 95.99 56.132 95.99 56.5412C95.99 56.9344 95.93 57.2845 95.81 57.5915C95.69 57.8983 95.52 58.1599 95.298 58.3764C95.077 58.5926 94.813 58.7578 94.504 58.872C94.196 58.986 93.857 59.043 93.487 59.043C93.218 59.043 92.959 59.0076 92.709 58.9369C92.459 58.866 92.239 58.7402 92.05 58.5592C91.905 58.6693 91.755 58.7677 91.599 58.8542C91.443 58.9408 91.282 59.0115 91.115 59.0667C91.028 58.7914 90.966 58.514 90.93 58.2346C90.893 57.9553 90.875 57.6662 90.875 57.3672C90.875 57.1626 90.881 56.962 90.892 56.7653C90.902 56.5685 90.922 56.3681 90.951 56.1635H91.659C91.659 56.423 91.689 56.6867 91.751 56.9541C91.813 57.2217 91.912 57.4676 92.05 57.6917C92.188 57.916 92.368 58.099 92.589 58.2406C92.81 58.3822 93.077 58.4531 93.389 58.4531C93.672 58.4531 93.909 58.4195 94.102 58.3527C94.294 58.2858 94.45 58.1933 94.57 58.0754C94.689 57.9572 94.776 57.8216 94.831 57.6682C94.885 57.5146 94.912 57.3515 94.912 57.1784C94.912 56.9029 94.847 56.6728 94.716 56.4879C94.586 56.303 94.372 56.1556 94.074 56.0453C93.632 55.8801 93.226 55.7169 92.856 55.5557C92.486 55.3944 92.165 55.2016 91.892 54.9773C91.621 54.753 91.408 54.4875 91.256 54.1805C91.104 53.8739 91.028 53.4962 91.028 53.0474C91.028 52.7093 91.087 52.4046 91.207 52.133C91.327 51.8616 91.488 51.6315 91.691 51.4427C91.894 51.2539 92.132 51.11 92.404 51.0119C92.676 50.9135 92.964 50.8643 93.269 50.8643C93.538 50.8643 93.795 50.9174 94.042 51.0236C94.288 51.1299 94.495 51.3088 94.662 51.5607C94.742 51.4033 94.858 51.2735 95.01 51.1712C95.163 51.0689 95.315 50.9941 95.467 50.9469C95.576 51.3324 95.643 51.7632 95.669 52.2393C95.694 52.7153 95.707 53.1658 95.707 53.5905H94.956Z" fill="black"/>
<path fill-rule="evenodd" clip-rule="evenodd" d="M104.522 54.912C104.522 55.5807 104.424 56.1709 104.228 56.6823C104.032 57.1937 103.762 57.6244 103.417 57.9746C103.072 58.3247 102.666 58.5902 102.198 58.7712C101.73 58.9522 101.221 59.0426 100.67 59.0426C100.147 59.0426 99.6573 58.9659 99.2013 58.8125C98.7433 58.6591 98.3443 58.419 98.0043 58.0925C97.6623 57.766 97.3943 57.3471 97.1983 56.8357C97.0023 56.3243 96.9043 55.7144 96.9043 55.0063C96.9043 54.2905 96.9993 53.6746 97.1873 53.1593C97.3763 52.6439 97.6393 52.2194 97.9763 51.8848C98.3143 51.5504 98.7123 51.3044 99.1733 51.147C99.6343 50.9897 100.133 50.9111 100.67 50.9111C101.199 50.9111 101.698 50.9957 102.166 51.1651C102.634 51.334 103.042 51.5857 103.39 51.9201C103.738 52.2544 104.014 52.6715 104.217 53.1711C104.42 53.6707 104.522 54.2513 104.522 54.912ZM100.757 58.4526C101.141 58.4526 101.457 58.3641 101.703 58.187C101.95 58.0102 102.144 57.766 102.285 57.4555C102.427 57.1445 102.525 56.7787 102.579 56.3577C102.634 55.9366 102.661 55.4864 102.661 55.0063C102.661 54.5579 102.634 54.1211 102.579 53.6966C102.525 53.2714 102.423 52.8937 102.274 52.5635C102.126 52.2329 101.917 51.9673 101.649 51.7668C101.38 51.566 101.028 51.4657 100.593 51.4657C100.194 51.4657 99.8753 51.5602 99.6363 51.749C99.3963 51.9381 99.2133 52.1916 99.0863 52.5102C98.9593 52.829 98.8763 53.1947 98.8363 53.6079C98.7963 54.0208 98.7763 54.4555 98.7763 54.912C98.7763 55.4078 98.8053 55.8718 98.8633 56.3046C98.9213 56.7372 99.0243 57.113 99.1733 57.4318C99.3223 57.7503 99.5233 58.0001 99.7773 58.181C100.031 58.362 100.358 58.4526 100.757 58.4526Z" fill="black"/>
<path fill-rule="evenodd" clip-rule="evenodd" d="M108.352 57.4734C108.352 57.6622 108.366 57.8078 108.395 57.9102C108.424 58.0124 108.475 58.0911 108.548 58.1461C108.62 58.2012 108.713 58.2346 108.825 58.2464C108.938 58.2582 109.077 58.2642 109.244 58.2642C109.948 58.2642 110.476 57.9987 110.827 57.4676C111.179 56.9365 111.355 56.1005 111.355 54.9597C111.355 53.8345 111.181 53.0004 110.833 52.4576C110.485 51.9147 109.897 51.6432 109.07 51.6432C108.925 51.6432 108.805 51.649 108.711 51.661C108.617 51.6726 108.542 51.7004 108.488 51.7435C108.433 51.7868 108.397 51.8515 108.379 51.9384C108.361 52.0248 108.352 52.139 108.352 52.2806V57.4734ZM105.544 58.866V58.3704C105.754 58.3704 105.927 58.3586 106.061 58.3349C106.195 58.3113 106.299 58.2642 106.371 58.1933C106.444 58.1226 106.493 58.0223 106.518 57.8923C106.544 57.7626 106.556 57.5915 106.556 57.3791V52.5756C106.556 52.3082 106.538 52.1133 106.502 51.9914C106.466 51.8695 106.408 51.785 106.328 51.7377C106.248 51.6904 106.141 51.6589 106.007 51.6432C105.873 51.6276 105.707 51.5961 105.512 51.5489V51.0296C105.693 51.0532 105.863 51.069 106.023 51.0768C106.183 51.0847 106.346 51.0887 106.513 51.0887C106.738 51.0887 106.943 51.0847 107.128 51.0768C107.313 51.069 107.514 51.059 107.732 51.047C107.949 51.0354 108.201 51.0256 108.488 51.0178C108.774 51.0099 109.135 51.0059 109.571 51.0059C110.136 51.0059 110.639 51.0785 111.078 51.2242C111.517 51.3699 111.887 51.6001 112.188 51.9147C112.489 52.2294 112.717 52.6386 112.873 53.1421C113.029 53.6457 113.107 54.2516 113.107 54.9597C113.107 55.6363 113.04 56.2205 112.906 56.712C112.772 57.2039 112.556 57.6092 112.258 57.9278C111.961 58.2464 111.573 58.4825 111.094 58.6359C110.615 58.7893 110.028 58.866 109.331 58.866H105.544Z" fill="black"/>
<path fill-rule="evenodd" clip-rule="evenodd" d="M114.196 58.8656V58.37C114.871 58.37 115.208 58.1299 115.208 57.6501V52.4927C115.208 51.871 114.856 51.5603 114.152 51.5603V51.041H117.972V51.5603C117.326 51.5603 117.003 51.871 117.003 52.4927V57.6501C117.003 58.1299 117.344 58.37 118.026 58.37V58.8656H114.196Z" fill="black"/>
<path fill-rule="evenodd" clip-rule="evenodd" d="M120.311 58.8656V58.37C121.036 58.37 121.399 58.2166 121.399 57.9098V55.6791L119.625 52.4927C119.277 51.871 118.885 51.5603 118.45 51.5603V51.041H122.074V51.5603C121.559 51.5603 121.301 51.6664 121.301 51.8789C121.301 51.9577 121.359 52.0953 121.475 52.292L122.901 54.8532L124.228 52.3039C124.265 52.1857 124.283 52.0284 124.283 51.8317C124.283 51.6507 124 51.5603 123.434 51.5603V51.041H126.056V51.5603C125.665 51.5603 125.378 51.6901 125.197 51.9498L123.216 55.632V57.9569C123.216 58.2323 123.564 58.37 124.261 58.37V58.8656H120.311Z" fill="black"/>
<path fill-rule="evenodd" clip-rule="evenodd" d="M133.348 54.912C133.348 55.5807 133.25 56.1709 133.054 56.6823C132.858 57.1937 132.588 57.6244 132.243 57.9746C131.899 58.3247 131.493 58.5902 131.025 58.7712C130.557 58.9522 130.047 59.0426 129.496 59.0426C128.973 59.0426 128.484 58.9659 128.027 58.8125C127.57 58.6591 127.171 58.419 126.83 58.0925C126.489 57.766 126.22 57.3471 126.024 56.8357C125.829 56.3243 125.73 55.7144 125.73 55.0063C125.73 54.2905 125.825 53.6746 126.014 53.1593C126.202 52.6439 126.465 52.2194 126.802 51.8848C127.14 51.5504 127.539 51.3044 127.999 51.147C128.46 50.9897 128.959 50.9111 129.496 50.9111C130.025 50.9111 130.524 50.9957 130.992 51.1651C131.46 51.334 131.868 51.5857 132.216 51.9201C132.565 52.2544 132.84 52.6715 133.043 53.1711C133.246 53.6707 133.348 54.2513 133.348 54.912ZM129.583 58.4526C129.967 58.4526 130.283 58.3641 130.53 58.187C130.776 58.0102 130.97 57.766 131.112 57.4555C131.253 57.1445 131.351 56.7787 131.406 56.3577C131.46 55.9366 131.487 55.4864 131.487 55.0063C131.487 54.5579 131.46 54.1211 131.406 53.6966C131.351 53.2714 131.25 52.8937 131.101 52.5635C130.952 52.2329 130.743 51.9673 130.475 51.7668C130.207 51.566 129.855 51.4657 129.42 51.4657C129.021 51.4657 128.701 51.5602 128.462 51.749C128.222 51.9381 128.039 52.1916 127.912 52.5102C127.785 52.829 127.702 53.1947 127.662 53.6079C127.622 54.0208 127.602 54.4555 127.602 54.912C127.602 55.4078 127.631 55.8718 127.689 56.3046C127.747 56.7372 127.851 57.113 127.999 57.4318C128.148 57.7503 128.349 58.0001 128.604 58.181C128.857 58.362 129.184 58.4526 129.583 58.4526Z" fill="black"/>
<path fill-rule="evenodd" clip-rule="evenodd" d="M30.0969 59.1987V57.885C31.9811 57.885 32.9232 57.2489 32.9232 55.9767V49.6587C32.7309 49.5543 32.4665 49.4657 32.13 49.3928C31.7937 49.3197 31.3946 49.2833 30.9333 49.2833H27.4724C26.761 49.2833 26.1361 49.4084 25.5977 49.6587V55.9767C25.5977 57.2489 26.4629 57.885 28.1935 57.885V59.1987H17.9551V57.885C19.8969 57.885 20.868 57.2489 20.868 55.9767V42.3082C20.868 40.6607 19.8969 39.8371 17.9551 39.8371V38.4609H28.1935V39.8371C26.4629 39.8371 25.5977 40.6607 25.5977 42.3082V47.4066C25.8861 47.5109 26.1745 47.5837 26.4629 47.6255C26.7514 47.6673 27.0878 47.6881 27.4724 47.6881H30.9333C31.9331 47.6881 32.5964 47.6047 32.9232 47.438V42.3082C32.9232 40.6607 31.9811 39.8371 30.0969 39.8371V38.4609H40.2775V39.8371C38.5278 39.8371 37.653 40.6607 37.653 42.3082V55.9767C37.653 57.2489 38.5278 57.885 40.2775 57.885V59.1987H30.0969Z" fill="black"/>
<path fill-rule="evenodd" clip-rule="evenodd" d="M43.1329 59.1987V57.885C44.921 57.885 45.815 57.2489 45.815 55.9767V42.3082C45.815 40.6607 44.8826 39.8371 43.0176 39.8371V38.4609H53.1404V39.8371C51.4293 39.8371 50.5737 40.6607 50.5737 42.3082V55.9767C50.5737 57.2489 51.4774 57.885 53.2847 57.885V59.1987H43.1329Z" fill="black"/>
<path fill-rule="evenodd" clip-rule="evenodd" d="M135.252 58.8664V58.3708C136.006 58.3708 136.384 58.0403 136.384 57.3795V52.0449C136.384 51.809 136.235 51.6908 135.938 51.6908C135.713 51.6908 135.519 51.7321 135.355 51.8148C135.192 51.8975 135.051 52.0213 134.931 52.1865C134.811 52.3517 134.71 52.5584 134.626 52.8061C134.543 53.054 134.469 53.3432 134.403 53.6738L133.729 53.5675L134.033 50.9473C134.222 50.9788 134.429 51.0024 134.654 51.0182C134.879 51.0339 135.056 51.0418 135.187 51.0418H139.485C139.645 51.0418 139.84 51.0339 140.073 51.0182C140.305 51.0024 140.515 50.9788 140.704 50.9473V53.532L140.073 53.5909C140.037 52.9694 139.915 52.5053 139.708 52.1983C139.501 51.8915 139.144 51.7381 138.636 51.7381C138.325 51.7381 138.168 51.8403 138.168 52.0449V57.3795C138.168 58.0403 138.553 58.3708 139.322 58.3708V58.8664H135.252Z" fill="black"/>
<mask id="mask0" mask-type="alpha" maskUnits="userSpaceOnUse" x="141" y="51" width="5" height="8">
<path d="M141.313 51.041H145.187V58.8656H141.313V51.041Z" fill="white"/>
</mask>
<g mask="url(#mask0)">
<path fill-rule="evenodd" clip-rule="evenodd" d="M141.357 58.8656V58.37C142.032 58.37 142.369 58.1299 142.369 57.6501V52.4927C142.369 51.871 142.017 51.5603 141.313 51.5603V51.041H145.133V51.5603C144.487 51.5603 144.164 51.871 144.164 52.4927V57.6501C144.164 58.1299 144.505 58.37 145.187 58.37V58.8656H141.357Z" fill="black"/>
</g>
<mask id="mask1" mask-type="alpha" maskUnits="userSpaceOnUse" x="53" y="27" width="12" height="44">
<path d="M53.2832 27.2578H64.882V70.5167H53.2832V27.2578Z" fill="white"/>
</mask>
<g mask="url(#mask1)">
<path fill-rule="evenodd" clip-rule="evenodd" d="M64.873 27.6662C64.917 27.4408 64.785 27.2578 64.577 27.2578H62.066C61.858 27.2578 61.654 27.4408 61.61 27.6662L53.2917 70.1083C53.2476 70.3339 53.3804 70.5168 53.5882 70.5168H56.0987C56.3066 70.5168 56.5111 70.3339 56.5552 70.1083L64.873 27.6662Z" fill="#FF2828"/>
</g>
</svg>
