<svg width="576" height="436" viewBox="0 0 576 436" fill="none" xmlns="http://www.w3.org/2000/svg">
<path d="M268.518 0H394.327C398.475 0 401.838 3.39116 401.838 7.57437V124.03C401.838 128.214 398.475 131.605 394.327 131.605H268.518C264.37 131.605 261.007 128.214 261.007 124.03V7.57437C261.007 3.39116 264.37 0 268.518 0Z" fill="#F2E9FF"/>
<g style="mix-blend-mode:overlay">
<path d="M261.684 85.4587H401.576V124.277C401.576 128.461 398.213 131.852 394.065 131.852H269.195C265.046 131.852 261.684 128.461 261.684 124.277V85.4587Z" fill="black"/>
</g>
<path fill-rule="evenodd" clip-rule="evenodd" d="M281.052 113.454C280.015 113.454 279.174 112.606 279.174 111.56C279.174 110.514 280.015 109.667 281.052 109.667H297.707C298.744 109.667 299.585 110.514 299.585 111.56C299.585 112.606 298.744 113.454 297.707 113.454H281.052ZM323.301 113.454C322.264 113.454 321.423 112.606 321.423 111.56C321.423 110.514 322.264 109.667 323.301 109.667H339.957C340.994 109.667 341.834 110.514 341.834 111.56C341.834 112.606 340.994 113.454 339.957 113.454H323.301ZM363.673 111.56C363.673 112.606 364.513 113.454 365.551 113.454H382.206C383.243 113.454 384.084 112.606 384.084 111.56C384.084 110.514 383.243 109.667 382.206 109.667H365.551C364.513 109.667 363.673 110.514 363.673 111.56Z" fill="white"/>
<g style="mix-blend-mode:overlay">
<path fill-rule="evenodd" clip-rule="evenodd" d="M281.052 103.986C280.015 103.986 279.174 103.138 279.174 102.092C279.174 101.046 280.015 100.199 281.052 100.199H291.135C292.172 100.199 293.013 101.046 293.013 102.092C293.013 103.138 292.172 103.986 291.135 103.986H281.052ZM323.301 103.986C322.264 103.986 321.423 103.138 321.423 102.092C321.423 101.046 322.264 100.199 323.301 100.199H333.385C334.422 100.199 335.262 101.046 335.262 102.092C335.262 103.138 334.422 103.986 333.385 103.986H323.301ZM363.673 102.092C363.673 103.138 364.513 103.986 365.551 103.986H375.634C376.671 103.986 377.512 103.138 377.512 102.092C377.512 101.046 376.671 100.199 375.634 100.199H365.551C364.513 100.199 363.673 101.046 363.673 102.092Z" fill="#231F20"/>
</g>
<g style="mix-blend-mode:overlay">
<path d="M289.427 47.8708L278.987 57.8501L278.339 57.1589L288.845 47.1323L297.464 41.2338L297.605 41.1675L307.791 38.4881L317.18 47.0945L325.968 51.1278L335.122 42.4836L335.207 42.4173L344.849 36.7839L354.566 31.728L363.908 42.4173L373.193 47.3406L382.056 38.4218L382.723 39.094L373.334 48.4957L363.354 43.2126L363.223 43.1085L354.303 32.9115L345.262 37.6454L335.723 43.1747L326.156 52.2166L316.767 47.9277L316.645 47.8424L307.547 39.5296L297.924 42.067L289.427 47.8708Z" fill="#231F20"/>
</g>
<path fill-rule="evenodd" clip-rule="evenodd" d="M352.913 23.3106C352.913 22.5263 353.543 21.8904 354.321 21.8904C355.099 21.8904 355.729 22.5263 355.729 23.3106V43.1271C355.729 43.9114 355.099 44.5473 354.321 44.5473C353.543 44.5473 352.913 43.9114 352.913 43.1271V23.3106ZM297.988 31.3584C297.211 31.3584 296.58 31.9942 296.58 32.7786V52.595C296.58 53.3794 297.211 54.0152 297.988 54.0152C298.766 54.0152 299.397 53.3794 299.397 52.595V32.7786C299.397 31.9942 298.766 31.3584 297.988 31.3584ZM279.211 50.2943C278.433 50.2943 277.803 50.9302 277.803 51.7145V62.063C277.803 62.8474 278.433 63.4832 279.211 63.4832C279.989 63.4832 280.619 62.8474 280.619 62.063V51.7145C280.619 50.9302 279.989 50.2943 279.211 50.2943ZM315.358 42.2466C315.358 41.4622 315.989 40.8264 316.766 40.8264C317.544 40.8264 318.175 41.4622 318.175 42.2466V52.5951C318.175 53.3794 317.544 54.0152 316.766 54.0152C315.989 54.0152 315.358 53.3794 315.358 52.5951V42.2466ZM335.544 36.0924C334.766 36.0924 334.135 36.7282 334.135 37.5126V47.8611C334.135 48.6454 334.766 49.2813 335.544 49.2813C336.321 49.2813 336.952 48.6454 336.952 47.8611V37.5126C336.952 36.7282 336.321 36.0924 335.544 36.0924ZM373.098 36.0924C372.32 36.0924 371.69 36.7282 371.69 37.5126V57.329C371.69 58.1134 372.32 58.7492 373.098 58.7492C373.876 58.7492 374.507 58.1134 374.507 57.329V37.5126C374.507 36.7282 373.876 36.0924 373.098 36.0924Z" fill="#3268AE"/>
<path fill-rule="evenodd" clip-rule="evenodd" d="M306.674 31.5487C306.238 31.8024 305.97 32.2712 305.97 32.7786V43.1271C305.97 43.9114 306.6 44.5473 307.378 44.5473C308.156 44.5473 308.786 43.9114 308.786 43.1271V32.7786C308.786 32.2712 308.518 31.8024 308.082 31.5487C307.646 31.295 307.11 31.295 306.674 31.5487ZM288.601 40.8264C287.823 40.8264 287.192 41.4622 287.192 42.2466V52.595C287.192 53.3794 287.823 54.0152 288.601 54.0152C289.378 54.0152 290.009 53.3794 290.009 52.595V42.2466C290.009 41.4622 289.378 40.8264 288.601 40.8264ZM324.748 45.087C324.748 44.3026 325.378 43.6668 326.156 43.6668C326.934 43.6668 327.564 44.3026 327.564 45.087V55.4354C327.564 56.2198 326.934 56.8556 326.156 56.8556C325.378 56.8556 324.748 56.2198 324.748 55.4354V45.087ZM344.933 31.3584C344.156 31.3584 343.525 31.9943 343.525 32.7786V43.1271C343.525 43.9114 344.156 44.5473 344.933 44.5473C345.711 44.5473 346.342 43.9114 346.342 43.1271V32.7786C346.342 31.9943 345.711 31.3584 344.933 31.3584ZM362.302 32.7786C362.302 31.9943 362.933 31.3584 363.711 31.3584C364.489 31.3584 365.119 31.9943 365.119 32.7786V49.7547C365.119 50.539 364.489 51.1749 363.711 51.1749C362.933 51.1749 362.302 50.539 362.302 49.7547V32.7786ZM382.488 31.3584C381.71 31.3584 381.08 31.9943 381.08 32.7786V43.1271C381.08 43.9114 381.71 44.5473 382.488 44.5473C383.266 44.5473 383.896 43.9114 383.896 43.1271V32.7786C383.896 31.9943 383.266 31.3584 382.488 31.3584Z" fill="#EC7EF2"/>
<path d="M357.341 232.912V233.859H357.242V232.912H225.194V233.859H225.105V232.912H0V406.176H13.4916V429.633C13.4916 433.082 16.2631 435.879 19.6835 435.882C20.2073 435.876 20.7281 435.801 21.2327 435.659C23.9629 434.953 25.8742 432.475 25.8801 429.633V406.176H86.5831V429.633C86.5831 433.084 89.3574 435.882 92.7797 435.882C93.3035 435.876 93.8243 435.801 94.3289 435.659C97.0591 434.953 98.9704 432.475 98.9763 429.633V406.176H162.571V429.633C162.571 433.084 165.345 435.882 168.768 435.882C169.29 435.875 169.809 435.801 170.312 435.659C173.043 434.955 174.955 432.476 174.96 429.633V406.176H225.105V405.617H225.194V406.176H235.658V429.633C235.658 433.082 238.429 435.879 241.85 435.882C242.374 435.876 242.894 435.801 243.399 435.659C246.129 434.953 248.04 432.475 248.046 429.633V406.176H310.139V429.633C310.139 433.082 312.91 435.879 316.331 435.882C316.855 435.876 317.375 435.801 317.88 435.659C320.61 434.953 322.521 432.475 322.527 429.633V406.176H357.266V405.617H357.35V406.176H386.132V429.633C386.132 433.084 388.906 435.882 392.328 435.882C392.852 435.875 393.373 435.801 393.877 435.659C396.607 434.953 398.516 432.474 398.52 429.633V406.176H459.218V429.633C459.218 433.084 461.993 435.882 465.415 435.882C465.939 435.875 466.459 435.801 466.964 435.659C469.693 434.953 471.603 432.474 471.607 429.633V406.176H489.403V232.912H357.341Z" fill="#DEE6EE"/>
<g style="mix-blend-mode:overlay" opacity="0.6">
<rect x="234.015" y="244.851" width="113.43" height="67.9989" fill="#030F1C"/>
</g>
<g style="mix-blend-mode:overlay" opacity="0.6">
<rect x="234.015" y="327.033" width="113.43" height="67.999" fill="#030F1C"/>
</g>
<g style="mix-blend-mode:overlay" opacity="0.6">
<rect y="232.912" width="92.7938" height="173.245" fill="#030F1C"/>
</g>
<g style="mix-blend-mode:overlay" opacity="0.6">
<rect x="234.015" y="244.851" width="113.43" height="67.9989" fill="#030F1C"/>
</g>
<g style="mix-blend-mode:overlay" opacity="0.6">
<rect x="234.015" y="327.033" width="113.43" height="67.999" fill="#030F1C"/>
</g>
<g style="mix-blend-mode:overlay" opacity="0.2">
<rect x="302.29" y="244.851" width="45.1506" height="67.9989" fill="#030F1C"/>
</g>
<g style="mix-blend-mode:overlay" opacity="0.2">
<rect x="302.29" y="327.033" width="45.1506" height="67.999" fill="#030F1C"/>
</g>
<g style="mix-blend-mode:overlay" opacity="0.6">
<rect x="13.4873" y="406.157" width="12.3932" height="3.19072" fill="#030F1C"/>
</g>
<g style="mix-blend-mode:overlay" opacity="0.6">
<path d="M16.5895 429.614V406.176H13.4912V429.633C13.4912 433.082 16.2627 435.879 19.6831 435.882C20.2069 435.876 20.7277 435.801 21.2322 435.659C18.4962 434.951 16.5846 432.462 16.5895 429.614Z" fill="#030F1C"/>
</g>
<g style="mix-blend-mode:overlay" opacity="0.6">
<rect x="86.583" y="406.157" width="12.3932" height="3.19072" fill="#030F1C"/>
</g>
<g style="mix-blend-mode:overlay" opacity="0.6">
<path d="M89.6627 429.614V406.176H86.5645V429.633C86.5645 433.084 89.3388 435.882 92.761 435.882C93.2848 435.876 93.8056 435.801 94.3102 435.659C91.5732 434.952 89.6601 432.463 89.6627 429.614Z" fill="#030F1C"/>
</g>
<g style="mix-blend-mode:overlay" opacity="0.6">
<rect x="162.566" y="406.157" width="12.3932" height="3.19072" fill="#030F1C"/>
</g>
<g style="mix-blend-mode:overlay" opacity="0.6">
<path d="M165.67 429.614V406.176H162.571V429.633C162.571 433.084 165.346 435.882 168.768 435.882C169.29 435.875 169.809 435.801 170.312 435.659C167.576 434.951 165.665 432.462 165.67 429.614Z" fill="#030F1C"/>
</g>
<g style="mix-blend-mode:overlay" opacity="0.6">
<rect x="235.663" y="406.157" width="12.3932" height="3.19072" fill="#030F1C"/>
</g>
<g style="mix-blend-mode:overlay" opacity="0.6">
<path d="M238.766 429.614V406.176H235.658V429.633C235.658 433.082 238.43 435.879 241.85 435.882C242.374 435.876 242.895 435.801 243.399 435.659C240.667 434.948 238.76 432.46 238.766 429.614Z" fill="#030F1C"/>
</g>
<g style="mix-blend-mode:overlay" opacity="0.6">
<rect x="310.134" y="406.157" width="12.3932" height="3.19072" fill="#030F1C"/>
</g>
<g style="mix-blend-mode:overlay" opacity="0.6">
<path d="M313.237 429.614V406.176H310.139V429.633C310.139 433.082 312.91 435.879 316.331 435.882C316.854 435.876 317.375 435.801 317.88 435.659C315.144 434.951 313.232 432.462 313.237 429.614Z" fill="#030F1C"/>
</g>
<g style="mix-blend-mode:overlay" opacity="0.6">
<rect x="386.122" y="406.157" width="12.3932" height="3.19072" fill="#030F1C"/>
</g>
<g style="mix-blend-mode:overlay" opacity="0.6">
<path d="M389.22 429.614V406.176H386.122V429.633C386.122 433.084 388.896 435.882 392.319 435.882C392.842 435.876 393.363 435.801 393.868 435.659C391.131 434.952 389.218 432.463 389.22 429.614Z" fill="#030F1C"/>
</g>
<g style="mix-blend-mode:overlay" opacity="0.6">
<rect x="459.214" y="406.157" width="12.3931" height="3.19072" fill="#030F1C"/>
</g>
<g style="mix-blend-mode:overlay" opacity="0.6">
<path d="M462.316 429.614V406.176H459.218V429.633C459.218 433.084 461.992 435.882 465.414 435.882C465.938 435.875 466.459 435.801 466.964 435.659C464.226 434.953 462.312 432.464 462.316 429.614Z" fill="#030F1C"/>
</g>
<g style="mix-blend-mode:overlay" opacity="0.6">
<rect x="107.412" y="244.586" width="4.70377" height="149.632" fill="#030F1C"/>
</g>
<g style="mix-blend-mode:overlay" opacity="0.6">
<rect x="149.079" y="304.263" width="4.95724" height="27.4855" fill="#030F1C"/>
</g>
<g style="mix-blend-mode:overlay" opacity="0.6">
<rect x="166.838" y="304.263" width="4.95723" height="27.4855" fill="#030F1C"/>
</g>
<g style="mix-blend-mode:overlay" opacity="0.6">
<path d="M210.087 393.21H210.092V391.998H112.102V394.166H210.087V393.21Z" fill="#030F1C"/>
</g>
<g style="mix-blend-mode:overlay" opacity="0.6">
<rect x="112.102" y="244.572" width="97.9858" height="2.16817" fill="#030F1C"/>
</g>
<g style="mix-blend-mode:overlay" opacity="0.6">
<rect x="210.092" y="244.572" width="1.92935" height="149.57" fill="#030F1C"/>
</g>
<g style="mix-blend-mode:overlay" opacity="0.6">
<rect x="158.304" y="246.74" width="2.75092" height="145.243" fill="#030F1C"/>
</g>
<g style="mix-blend-mode:overlay" opacity="0.6">
<rect x="368.641" y="244.586" width="4.70374" height="149.632" fill="#030F1C"/>
</g>
<g style="mix-blend-mode:overlay" opacity="0.6">
<rect x="410.312" y="304.263" width="4.95724" height="27.4855" fill="#030F1C"/>
</g>
<g style="mix-blend-mode:overlay" opacity="0.6">
<rect x="428.066" y="304.263" width="4.95731" height="27.4855" fill="#030F1C"/>
</g>
<g style="mix-blend-mode:overlay" opacity="0.6">
<path d="M471.32 393.21V391.998H373.334V394.166H471.32V393.21Z" fill="#030F1C"/>
</g>
<g style="mix-blend-mode:overlay" opacity="0.6">
<rect x="373.334" y="244.572" width="97.9857" height="2.16817" fill="#030F1C"/>
</g>
<g style="mix-blend-mode:overlay" opacity="0.6">
<rect x="471.32" y="244.572" width="1.92923" height="149.57" fill="#030F1C"/>
</g>
<g style="mix-blend-mode:overlay" opacity="0.6">
<rect x="419.532" y="246.74" width="2.75082" height="145.243" fill="#030F1C"/>
</g>
<path d="M184.83 111.402C184.83 103.845 193.105 106.254 194.513 106.728C195.921 107.201 199.207 96.3128 199.207 96.3128C199.207 96.3128 216.107 94.8926 219.393 98.2064C219.393 98.2064 220.332 112.408 219.863 121.403C219.393 130.397 216.527 134.176 213.241 134.176C212.202 134.117 211.181 133.877 210.223 133.465V150.023L190.346 139.633L192.794 120.074C192.693 120.014 192.635 119.983 192.635 119.983C192.635 119.983 184.83 118.538 184.83 111.402Z" fill="#FFB7B6"/>
<path d="M219.93 110.518C219.93 110.518 219.014 102.744 218.897 100.592C218.729 97.496 215.87 96.8463 214.189 99.0177C211.771 102.242 207.667 103.684 203.786 102.672C200.381 101.873 198.947 100.954 198.635 104.42C198.322 107.886 197.151 113.641 196.059 112.102C194.966 110.562 193.743 107.178 191.578 106.784C188.27 106.183 186.224 110.166 187.005 112.541C187.785 114.917 188.889 116.399 192.972 118.646L191.699 128.822C181.58 115.291 177.768 96.7088 191.493 92.4059C196.62 90.7984 201.946 80.3806 211.867 82.7505C218.897 84.4297 218.897 89.8609 219.397 94.5836C228.841 94.9772 219.93 110.518 219.93 110.518Z" fill="#352316"/>
<ellipse rx="0.878104" ry="1.45617" transform="matrix(-1 0 0 1 209.331 109.062)" fill="#161B36"/>
<ellipse rx="0.878102" ry="1.45617" transform="matrix(-1 0 0 1 218.019 109.667)" fill="#161B36"/>
<path d="M211.145 103.237C210.833 102.883 210.404 102.607 209.116 102.686C207.828 102.765 205.876 103.985 206.306 104.3C206.735 104.614 208.023 103.552 209.038 103.906C210.052 104.26 210.635 104.552 210.976 104.359C211.405 104.116 211.295 103.407 211.145 103.237Z" fill="#161B36"/>
<path d="M216.727 102.876C217.136 102.642 217.63 102.521 218.824 103.015C220.018 103.509 221.474 105.299 220.967 105.457C220.46 105.615 219.581 104.19 218.507 104.195C217.433 104.2 216.789 104.286 216.528 103.992C216.199 103.623 216.53 102.988 216.727 102.876Z" fill="#161B36"/>
<g style="mix-blend-mode:overlay" opacity="0.6">
<path d="M214.821 118.884C215.274 118.901 215.724 118.796 216.123 118.579C216.385 118.432 216.567 118.173 216.62 117.875C216.717 117.258 216.092 116.303 215.326 115.21C215.131 114.949 214.953 114.676 214.792 114.393C214.637 114.057 214.681 110.991 214.814 108.222L214.345 108.199C214.299 109.16 214.084 113.981 214.367 114.593C214.538 114.903 214.73 115.2 214.943 115.483C215.425 116.172 216.232 117.324 216.156 117.801C216.125 117.962 216.022 118.101 215.877 118.176C215.203 118.468 214.444 118.492 213.754 118.242L213.61 118.693C214.002 118.819 214.41 118.883 214.821 118.884Z" fill="#030F1C"/>
</g>
<path d="M215.39 123.388C215.43 123.248 215.413 123.098 215.342 122.971C215.272 122.844 215.154 122.751 215.016 122.712C214.325 122.51 213.052 122.131 212.082 121.798C211.071 121.394 210.088 120.922 209.139 120.386C208.974 120.296 208.773 120.298 208.61 120.391C208.446 120.484 208.341 120.656 208.333 120.846C208.267 122.303 208.441 125.149 210.713 125.729C213.476 126.434 214.923 124.927 215.39 123.388Z" fill="#161B36"/>
<path d="M214.188 125.204C214.188 125.204 211.811 121.855 208.414 122.62C208.414 122.62 208.409 125.236 210.599 125.826C212.956 126.46 214.188 125.204 214.188 125.204Z" fill="#E55151"/>
<path d="M190.01 109.787C192.261 109.019 194.351 113.959 194.439 114.17C194.489 114.291 194.433 114.429 194.313 114.48C194.194 114.531 194.056 114.474 194.006 114.354C193.642 113.501 193.197 112.686 192.677 111.92C192.203 111.836 191.714 111.926 191.3 112.174C190.888 112.482 190.626 112.952 190.577 113.467C190.558 113.581 190.46 113.665 190.346 113.665C190.333 113.665 190.32 113.664 190.307 113.662C190.246 113.652 190.191 113.617 190.155 113.566C190.118 113.515 190.104 113.452 190.114 113.39C190.196 112.244 191.166 111.371 192.304 111.42C191.636 110.585 190.873 109.991 190.161 110.235C190.081 110.263 189.994 110.245 189.93 110.189C189.867 110.133 189.839 110.048 189.855 109.965C189.871 109.882 189.93 109.814 190.01 109.787H190.01Z" fill="#0B122D"/>
<path d="M210.223 133.703C210.334 133.703 210.43 133.625 210.453 133.515C210.476 133.406 210.42 133.295 210.318 133.25C210.241 133.215 202.528 129.735 199.273 125.529C199.193 125.427 199.046 125.409 198.944 125.489C198.842 125.569 198.823 125.718 198.903 125.821C202.231 130.121 209.807 133.539 210.128 133.682C210.158 133.696 210.19 133.703 210.223 133.703Z" fill="#0B122D"/>
<path d="M199.225 100.316C199.277 100.316 199.328 100.299 199.369 100.266C202.911 97.4924 201.593 92.1151 201.535 91.8877C201.503 91.7616 201.375 91.6858 201.25 91.7181C201.125 91.7504 201.049 91.8787 201.08 92.0051C201.094 92.0578 202.378 97.3102 199.081 99.8924C199.002 99.9545 198.97 100.061 199.003 100.156C199.035 100.252 199.125 100.316 199.225 100.316V100.316Z" fill="white"/>
<g style="mix-blend-mode:overlay" opacity="0.6">
<path d="M210.208 133.574C210.208 133.574 203.443 130.401 201.258 128.092C201.258 128.092 201.762 134.317 206.23 138.692C210.697 143.067 210.208 139.532 210.208 139.532L210.208 133.574Z" fill="#030F1C"/>
</g>
<path fill-rule="evenodd" clip-rule="evenodd" d="M222.531 418.754H233.18V405.248H222.011L222.531 418.754ZM180.278 405.664L169.27 405.282L168.802 418.754H179.451L180.278 405.664Z" fill="#FFB7B6"/>
<path fill-rule="evenodd" clip-rule="evenodd" d="M159.381 429.574L159.353 429.572L168.054 416.04C168.172 415.856 168.53 415.792 168.89 415.78C168.245 414.93 167.813 414.072 167.97 413.404C168.097 412.864 168.563 412.507 169.355 412.343C169.987 412.193 170.654 412.347 171.156 412.759C171.933 413.381 172.402 414.548 172.687 415.716C173.095 415.71 173.52 415.707 173.949 415.709C174.537 414.472 175.27 413.318 176.034 413.083C176.366 412.979 176.728 413.054 176.99 413.282C177.496 413.638 177.78 414.232 177.739 414.849C177.695 415.226 177.566 415.589 177.362 415.91C177.616 415.947 177.867 416.003 178.112 416.077C178.678 415.967 180.08 416.347 180.148 416.814L182.067 430.185C182.128 430.398 182.16 430.617 182.16 430.838V432.678H159.02V430.838C159.023 430.392 159.148 429.955 159.381 429.574ZM170.862 413.126C170.578 412.888 170.22 412.759 169.851 412.76C169.716 412.761 169.582 412.775 169.45 412.803C168.853 412.927 168.508 413.165 168.427 413.511C168.292 414.089 168.792 414.939 169.509 415.803L169.53 415.806L169.53 415.806C169.563 415.809 169.596 415.813 169.622 415.816C169.643 415.816 169.725 415.813 169.86 415.807L169.86 415.807C170.267 415.788 171.148 415.748 172.203 415.725C171.939 414.675 171.524 413.656 170.862 413.126ZM176.695 413.648C177.078 413.907 177.297 414.348 177.27 414.81C177.222 415.183 177.082 415.539 176.861 415.844C176.162 415.766 175.326 415.728 174.474 415.715C175.004 414.63 175.608 413.705 176.173 413.531C176.355 413.472 176.555 413.517 176.695 413.648Z" fill="#4C3939"/>
<path fill-rule="evenodd" clip-rule="evenodd" d="M222.382 415.871C222.382 415.871 228.123 420.482 233.093 415.871C234.611 416.291 236.076 416.883 237.462 417.636L237.463 417.635L237.523 417.667C237.775 417.795 238.029 417.926 238.289 418.061C238.627 418.233 239.057 418.452 239.547 418.696C239.232 417.911 238.666 416.26 239.12 415.493C239.273 415.237 239.545 415.078 239.841 415.072C240.152 415.039 240.458 415.167 240.655 415.412C241.106 415.981 240.981 417.156 240.827 417.944C241.637 417.229 243.011 416.162 243.716 416.437C244.003 416.568 244.178 416.866 244.154 417.183C244.182 417.582 244.039 417.973 243.761 418.257C243.034 419.029 241.461 419.215 240.683 419.259C241.577 419.698 242.578 420.179 243.586 420.644C243.686 420.546 243.75 420.486 243.761 420.476C243.856 420.387 244.004 420.393 244.092 420.488C244.18 420.584 244.175 420.734 244.08 420.823L244.047 420.854C244.844 421.216 245.635 421.562 246.368 421.86C246.673 421.978 246.972 422.091 247.263 422.198C247.401 422.062 247.487 421.981 247.5 421.969C247.595 421.88 247.743 421.885 247.831 421.981C247.919 422.077 247.914 422.227 247.819 422.316C247.817 422.317 247.795 422.338 247.755 422.376C248.393 422.605 248.998 422.811 249.561 422.992C251.314 423.543 252.858 423.939 253.416 424.078C253.492 424.097 253.57 424.116 253.642 424.134C257.407 425.053 261.077 427.268 261.665 429.228H261.75V431.136C261.75 431.55 261.587 431.947 261.297 432.24C261.007 432.533 260.614 432.697 260.203 432.697H220.879C220.469 432.697 220.075 432.533 219.785 432.24C219.495 431.947 219.332 431.55 219.332 431.136V429.674C219.332 429.674 219.235 421.85 219.339 419.602C219.443 417.355 222.382 415.871 222.382 415.871ZM240.289 415.708C240.186 415.585 240.028 415.523 239.87 415.545C239.729 415.54 239.595 415.614 239.523 415.737C239.196 416.289 239.696 417.89 240.11 418.829L240.128 418.813L240.196 418.576C240.372 417.968 240.731 416.267 240.289 415.708ZM243.546 416.879C243.629 416.911 243.676 417.023 243.687 417.211C243.706 417.478 243.61 417.741 243.422 417.93C242.797 418.594 241.307 418.751 240.608 418.789C241.613 417.812 242.909 416.86 243.436 416.86C243.474 416.859 243.511 416.866 243.546 416.879Z" fill="#4C3939"/>
<path opacity="0.4" d="M222.428 428.124C221.508 428.124 220.762 427.379 220.762 426.46C220.763 425.541 221.508 424.796 222.428 424.796C223.347 424.796 224.093 425.541 224.093 426.46C224.093 427.379 223.347 428.124 222.428 428.124Z" fill="#2F282D"/>
<path d="M223 423.748H219.79V423.279H223C224.681 423.281 226.043 424.642 226.045 426.321V429.241H261.871V431.131C261.871 431.541 261.708 431.935 261.418 432.225C261.127 432.515 260.733 432.678 260.323 432.678H220.952C220.541 432.678 220.147 432.515 219.857 432.225C219.566 431.935 219.403 431.541 219.403 431.131V429.241H225.576V426.321C225.574 424.901 224.422 423.749 223 423.748Z" fill="#2F282D"/>
<path opacity="0.4" d="M163.863 427.493H177.317C179.992 427.493 182.16 428.991 182.16 430.838V432.678H159.02V430.838C159.02 428.991 161.188 427.493 163.863 427.493Z" fill="#030F1C"/>
<path d="M239.642 418.808C239.725 419.011 239.791 419.159 239.816 419.214C239.826 419.236 239.839 419.256 239.856 419.274C239.121 419.996 238.438 420.77 237.812 421.588C237.735 421.692 237.757 421.838 237.86 421.916C237.964 421.993 238.11 421.973 238.188 421.87C238.868 420.984 239.615 420.151 240.422 419.379C240.501 419.378 240.626 419.374 240.779 419.365C241.674 419.8 242.677 420.277 243.686 420.737C242.9 421.498 242.171 422.316 241.505 423.185C241.428 423.289 241.449 423.436 241.553 423.514C241.657 423.592 241.804 423.57 241.881 423.467C242.571 422.57 243.328 421.727 244.147 420.945C244.959 421.311 245.765 421.659 246.508 421.957C246.786 422.069 247.072 422.177 247.361 422.283C246.6 423.025 245.894 423.821 245.249 424.664C245.172 424.768 245.193 424.915 245.297 424.992C245.4 425.069 245.547 425.049 245.625 424.946C246.303 424.063 247.048 423.232 247.852 422.461C250.724 423.478 253.754 424.194 253.754 424.194C253.754 424.194 253.26 426.174 251.542 426.642C249.825 427.11 240.069 423.756 237.49 422.509C234.911 421.261 237.555 417.757 237.555 417.757C237.555 417.757 238.397 418.191 239.642 418.808Z" fill="#2F282D"/>
<g style="mix-blend-mode:overlay" opacity="0.4">
<path d="M173.05 417.913C172.981 417.173 172.86 416.439 172.689 415.716C173.097 415.709 173.523 415.707 173.951 415.709C173.585 416.478 173.275 417.28 173.05 417.913Z" fill="#030F1C"/>
</g>
<g style="mix-blend-mode:overlay" opacity="0.4">
<path fill-rule="evenodd" clip-rule="evenodd" d="M169.311 416.303C170.101 417.196 170.961 418.025 171.882 418.782C170.929 418.855 169.995 419.088 169.12 419.472C169.044 419.509 168.994 419.583 168.988 419.666C168.982 419.75 169.02 419.83 169.09 419.877C169.159 419.924 169.249 419.931 169.324 419.894C170.333 419.476 171.41 419.245 172.501 419.213C172.562 419.152 172.655 419.134 172.735 419.169C172.814 419.204 172.863 419.285 172.859 419.371C172.973 419.388 173.083 419.318 173.116 419.207C173.484 418.011 173.939 416.844 174.477 415.714C175.329 415.728 176.165 415.765 176.864 415.843C175.867 417.345 173.403 418.758 173.372 418.775C173.284 418.825 173.238 418.927 173.258 419.026C173.279 419.126 173.361 419.201 173.462 419.212C174.744 419.361 176.014 419.594 177.265 419.909C177.286 419.915 177.307 419.918 177.328 419.918C177.446 419.918 177.545 419.831 177.561 419.715C177.577 419.599 177.504 419.489 177.392 419.458C176.335 419.182 175.263 418.973 174.18 418.831C175.044 418.277 176.638 417.14 177.365 415.91C178.132 416.031 178.648 416.217 178.679 416.501C178.838 417.958 178.25 424.419 177.469 424.874C176.689 425.329 165.702 425.225 165.634 424.96C165.478 424.355 168.333 418.104 169.311 416.303ZM177.301 421.061C177.165 421.021 173.906 420.096 168.298 421.055C168.17 421.077 168.085 421.198 168.106 421.326C168.128 421.453 168.249 421.539 168.377 421.518C173.858 420.578 177.126 421.499 177.169 421.511L177.169 421.511C177.25 421.535 177.337 421.514 177.397 421.456C177.458 421.398 177.483 421.312 177.463 421.231C177.444 421.15 177.382 421.085 177.301 421.061L177.301 421.061ZM177.67 423.35C174.231 422.961 170.758 422.961 167.319 423.351L167.319 423.351C167.191 423.363 167.075 423.272 167.059 423.145C167.044 423.016 167.136 422.9 167.265 422.884C170.744 422.491 174.256 422.491 177.736 422.885C177.857 422.903 177.945 423.011 177.937 423.134C177.929 423.256 177.827 423.352 177.703 423.352C177.692 423.352 177.681 423.351 177.67 423.35Z" fill="#030F1C"/>
</g>
<g style="mix-blend-mode:overlay" opacity="0.4">
<path d="M169.568 415.872C169.593 415.839 169.614 415.816 169.625 415.816C169.706 415.816 170.802 415.755 172.205 415.724C172.444 416.732 172.59 417.76 172.643 418.794C171.53 417.917 170.501 416.938 169.568 415.872Z" fill="#030F1C"/>
</g>
<path d="M231.465 245.407C231.465 245.407 236.976 315.621 236.664 327.27C236.352 338.92 235.415 410.705 235.415 410.705C235.415 410.705 227.922 414.798 220.117 410.705C220.117 410.705 215.433 366.312 213.248 353.088C211.062 339.864 211.687 321.918 211.687 321.918L200.447 293.896L181.036 411.618C181.036 411.618 171.099 414.169 166.416 411.02C166.416 411.02 167.352 388.666 166.416 366.626C165.479 344.587 167.352 328.53 170.162 320.029C170.162 320.029 163.922 275.003 165.171 245.407H231.465Z" fill="#2D2B72"/>
<g style="mix-blend-mode:overlay" opacity="0.6">
<path d="M182.506 402.701C182.506 402.701 175.74 405.613 166.664 402.701V404.618C171.683 406.361 177.128 406.4 182.171 404.731L182.506 402.701Z" fill="white"/>
</g>
<g style="mix-blend-mode:overlay" opacity="0.6">
<path d="M235.52 402.701C235.52 402.701 228.331 405.613 219.256 402.701L219.493 404.894C219.493 404.894 227.315 407.565 235.493 404.731L235.52 402.701Z" fill="white"/>
</g>
<g style="mix-blend-mode:overlay" opacity="0.6">
<path d="M165.348 264.54C165.362 264.54 165.376 264.539 165.39 264.537C179.911 261.931 177.526 245.699 177.501 245.535C177.48 245.407 177.36 245.319 177.232 245.339C177.104 245.36 177.017 245.481 177.037 245.61C177.062 245.769 179.372 261.547 165.308 264.071C165.188 264.092 165.104 264.202 165.115 264.324C165.126 264.446 165.227 264.54 165.348 264.54Z" fill="#030F1C"/>
</g>
<g style="mix-blend-mode:overlay" opacity="0.6">
<path d="M232.831 261.231C232.939 261.231 233.033 261.157 233.059 261.051C233.084 260.945 233.035 260.835 232.939 260.785C232.838 260.731 222.789 255.316 223.321 245.585C223.324 245.523 223.303 245.461 223.261 245.415C223.22 245.368 223.162 245.34 223.099 245.336C223.037 245.332 222.976 245.353 222.929 245.395C222.882 245.437 222.855 245.497 222.852 245.56C222.304 255.597 232.618 261.149 232.722 261.204C232.756 261.222 232.793 261.231 232.831 261.231Z" fill="#030F1C"/>
</g>
<g style="mix-blend-mode:overlay" opacity="0.6">
<path d="M231.464 245.407L231.761 250.129C205.663 260.561 165.04 253.281 165.04 253.281L165.17 245.407H231.464Z" fill="#030F1C"/>
</g>
<g style="mix-blend-mode:overlay" opacity="0.6">
<path d="M200.446 293.896L206.695 270.44C206.695 270.44 209.969 283.143 208.564 296.887C207.159 310.631 208.564 314.134 208.564 314.134L200.446 293.896Z" fill="#030F1C"/>
</g>
<g style="mix-blend-mode:overlay" opacity="0.6">
<path d="M232.716 262.554C232.716 262.554 229.955 261.31 228.862 265.717C227.77 270.125 229.065 291.85 230.314 304.129C231.563 316.408 233.066 335.142 233.303 344.902C233.541 354.662 236.164 356.558 236.164 356.558C236.164 356.558 236.974 328.783 236.512 321.595C236.049 314.407 234.847 285.775 232.716 262.554Z" fill="white"/>
</g>
<g style="mix-blend-mode:overlay" opacity="0.6">
<path d="M198.625 305.241C198.625 305.241 189.739 315.665 187.678 329.654C185.616 343.642 183.899 371.402 182.858 378.538C181.817 385.675 179.359 393.573 183.909 394.189L198.625 305.241Z" fill="white"/>
</g>
<g style="mix-blend-mode:overlay" opacity="0.6">
<path d="M211.613 326.035C211.621 326.035 211.628 326.035 211.636 326.034C211.698 326.028 211.755 325.997 211.794 325.949C211.834 325.9 211.853 325.838 211.847 325.776C211.839 325.698 211.132 318.027 214.177 312.909C214.243 312.797 214.207 312.651 214.096 312.584C213.985 312.517 213.841 312.554 213.774 312.666C210.648 317.919 211.372 325.744 211.379 325.822C211.391 325.943 211.492 326.035 211.613 326.035Z" fill="#030F1C"/>
</g>
<path d="M129.641 200.825C126.987 194.421 126.828 187.736 129.465 184.642C135.305 177.79 149.635 162.677 157.35 156.179C162.776 151.609 167.385 148.545 171.297 147.025C171.659 146.814 172.04 146.637 172.434 146.495C176.597 145.026 189.398 142.297 189.398 142.297L205.499 149.6L214.167 143.556C214.167 143.556 229.882 150.378 232.379 153.736C232.393 153.755 232.406 153.78 232.419 153.801C237.779 158.3 242.649 165.592 246.508 172.574C249.493 178.027 252.161 183.65 254.501 189.415C254.686 189.868 255.089 190.194 255.569 190.276C256.048 190.357 256.535 190.184 256.857 189.816L270.86 174.755C270.183 174.204 270.039 173.221 270.528 172.495L272.838 169.089C273.361 168.319 275.428 168.227 276.192 168.754L287.311 176.494C288.075 177.021 288.166 179.326 287.643 180.097L285.733 182.982C285.221 183.736 284.205 183.941 283.443 183.444C270.97 205.999 265.987 215.963 259.821 217.412C256.555 218.179 253.306 216.697 249.156 213.755C242.031 208.713 235.781 202.518 230.662 195.419C230.283 200.201 230.008 204.303 229.986 206.946C229.924 214.32 230.665 222.85 230.87 232.449C230.968 236.994 235.241 245.927 231.755 248.821C220.503 258.161 165.461 248.821 165.461 248.821C165.549 243.371 166.247 237.95 167.543 232.659C170.196 222.492 169.832 217.336 169.52 211.354C169.353 208.144 168.796 193.396 168.283 179.895C160.377 185.622 148.895 193.785 147.805 194.92C146.892 195.875 147.741 198.759 150.541 207.292C150.739 207.898 151.352 209.757 151.693 210.788L151.697 210.786C152.556 210.437 153.533 210.856 153.879 211.722L155.409 215.549C155.755 216.415 154.684 218.2 153.826 218.549L141.273 223.588C140.415 223.938 138.462 222.736 138.116 221.87L136.794 218.667C136.561 218.08 136.674 217.409 137.088 216.933L137.075 216.928C134.018 210.774 131.669 205.722 129.641 200.825Z" fill="#34AD82"/>
<g style="mix-blend-mode:overlay" opacity="0.6">
<path d="M232.431 173.685C232.652 173.892 232.874 174.105 233.1 174.335C238.873 180.192 236.342 189.693 237.068 194.33C237.794 198.967 251.014 204.874 249.156 213.755C242.031 208.713 235.782 202.518 230.662 195.419C231.187 188.792 231.909 180.86 232.431 173.685Z" fill="#030F1C"/>
</g>
<path d="M257.744 198.831C257.838 198.831 257.923 198.775 257.96 198.687C257.997 198.6 257.978 198.498 257.912 198.43C255.151 195.558 255.567 191.609 255.572 191.569C255.579 191.507 255.561 191.444 255.522 191.395C255.484 191.346 255.427 191.314 255.365 191.307C255.303 191.298 255.241 191.316 255.192 191.355C255.142 191.394 255.111 191.452 255.105 191.515C255.085 191.685 254.655 195.722 257.575 198.759C257.619 198.805 257.68 198.831 257.744 198.831Z" fill="#0B122D"/>
<g style="mix-blend-mode:overlay" opacity="0.6">
<path d="M283.404 183.423L270.966 174.845C270.219 174.329 279.42 176.772 281.805 180.634C283.35 183.135 285.286 181.555 285.832 180.304C286.597 178.551 285.342 175.124 285.342 175.124C285.354 175.106 287.163 176.417 287.174 176.4L287.311 176.494C288.075 177.021 288.166 179.326 287.643 180.097L285.733 182.981C285.483 183.351 285.096 183.606 284.659 183.689C284.222 183.771 283.771 183.676 283.404 183.423Z" fill="#030F1C"/>
</g>
<path d="M231.716 183.649C231.832 183.649 231.931 183.564 231.948 183.448C233.513 172.967 232.77 165.385 232.763 165.31C232.748 165.181 232.634 165.087 232.505 165.099C232.444 165.105 232.387 165.136 232.347 165.184C232.308 165.233 232.29 165.295 232.296 165.358C232.303 165.433 233.039 172.96 231.484 183.378C231.475 183.44 231.49 183.503 231.527 183.553C231.564 183.604 231.62 183.637 231.681 183.647C231.693 183.648 231.705 183.649 231.716 183.649Z" fill="#0B122D"/>
<path d="M225.406 240.242C225.448 240.242 225.488 240.231 225.524 240.21C229.619 237.827 231.038 232.727 231.096 232.511C231.13 232.385 231.056 232.256 230.932 232.221C230.807 232.187 230.678 232.261 230.643 232.386C230.63 232.438 229.215 237.516 225.289 239.8C225.197 239.854 225.152 239.963 225.18 240.066C225.207 240.17 225.3 240.242 225.406 240.242Z" fill="#0B122D"/>
<g style="mix-blend-mode:overlay" opacity="0.6">
<path d="M168.399 179.812C171.877 177.292 174.644 175.255 175.493 174.521C176.664 173.509 177.743 172.518 178.73 171.549C179.207 176.089 179.63 186.789 176.299 204.192C172.806 222.44 178.707 234.286 185.339 241.369C190.971 247.384 202.615 248.821 210.976 252.972C194.966 253.858 165.462 248.821 165.462 248.821C165.462 248.821 165.101 241.034 168.281 229.617C170.757 223.812 169.125 191.946 168.399 179.812Z" fill="#030F1C"/>
</g>
<g style="mix-blend-mode:overlay" opacity="0.6">
<path d="M199.476 151.03L181.737 144.026L189.398 142.297L199.476 151.03Z" fill="#030F1C"/>
</g>
<path d="M173.686 174.943C173.71 174.943 173.734 174.939 173.757 174.932C181.549 172.45 184.577 162.686 184.606 162.588C184.632 162.507 184.612 162.418 184.554 162.356C184.497 162.294 184.411 162.267 184.329 162.287C184.246 162.306 184.181 162.368 184.157 162.45C184.128 162.546 181.17 172.075 173.615 174.481C173.505 174.516 173.437 174.627 173.454 174.742C173.472 174.858 173.57 174.943 173.686 174.943L173.686 174.943Z" fill="#0B122D"/>
<g style="mix-blend-mode:overlay" opacity="0.6">
<path d="M143.557 196.236C143.879 200.353 145.109 204.346 147.157 207.922C147.538 208.577 149.564 210.275 151.345 209.737C147.909 199.294 146.717 195.861 147.806 194.92C150.793 192.339 161.937 184.474 166.3 181.329C165.215 180.591 163.029 179.686 160.818 180.799C157.18 182.635 143.083 191.138 143.557 196.236Z" fill="white"/>
</g>
<path d="M141.788 199.528C141.905 199.528 142.003 199.441 142.02 199.324C142.042 199.168 142.607 195.502 146.892 195.274C147.021 195.266 147.119 195.155 147.112 195.026C147.105 194.896 146.996 194.796 146.868 194.802C142.188 195.051 141.56 199.217 141.555 199.259C141.537 199.388 141.627 199.508 141.755 199.526C141.766 199.527 141.777 199.528 141.788 199.528Z" fill="#0B122D"/>
<g style="mix-blend-mode:overlay" opacity="0.6">
<path d="M137.722 216.468L151.698 210.786C152.537 210.445 145.419 216.812 140.909 216.672C137.99 216.582 138.22 219.083 138.949 220.234C139.972 221.849 143.496 222.696 143.496 222.696C143.504 222.716 141.419 223.507 141.427 223.526L141.273 223.588C140.415 223.937 138.462 222.736 138.116 221.87L136.794 218.667C136.628 218.252 136.633 217.786 136.807 217.374C136.981 216.961 137.31 216.635 137.722 216.468Z" fill="#030F1C"/>
</g>
<path fill-rule="evenodd" clip-rule="evenodd" d="M203.231 144.876C194.265 139.214 191.538 134.216 191.538 134.216L189.398 142.297L199.476 151.03C199.896 149.913 200.41 148.834 201.012 147.804L205.499 149.6L203.231 144.876ZM214.167 143.556L210.733 139.463C210.733 139.463 210.518 142.807 206.512 144.646L205.499 149.6L208.118 147.774L210.7 151.211L214.167 143.556Z" fill="#2D2B72"/>
<g style="mix-blend-mode:overlay" opacity="0.6">
<path d="M203.231 144.876L205.499 149.6L201.011 147.804C201.593 146.716 202.342 145.727 203.231 144.876Z" fill="#030F1C"/>
</g>
<g style="mix-blend-mode:overlay" opacity="0.6">
<path d="M206.512 144.646L205.499 149.6L208.117 147.774L206.512 144.646Z" fill="#030F1C"/>
</g>
<path fill-rule="evenodd" clip-rule="evenodd" d="M287.81 152.491C287.813 152.484 287.815 152.477 287.817 152.469C287.87 152.149 289.228 144.128 293.124 140.199C294.722 138.508 296.659 137.18 298.805 136.302C299.922 135.856 300.945 136.915 300.945 136.915C301.509 136.682 309.5 135.391 309.967 137.658C310.287 139.213 309.923 139.835 309.625 140.344C309.425 140.686 309.255 140.977 309.343 141.466C309.497 142.314 310.669 143.565 310.669 143.565C310.957 144.134 310.891 144.82 310.501 145.322L310.06 145.891C310.038 145.919 310.716 147.679 310.716 147.679C310.891 148.122 310.879 148.617 310.683 149.051C310.486 149.484 310.122 149.817 309.676 149.972C309.627 149.989 309.599 150.04 309.611 150.09L310.022 151.832C310.398 153.356 309.488 154.9 307.981 155.296C306.316 155.701 304.607 155.482 303.914 155.394C303.706 155.367 303.589 155.352 303.593 155.369C303.727 155.912 303.904 157.558 301.645 158.815C299.063 160.252 294.935 163.255 294.453 163.607L286.782 176.127L276.258 168.801L286.392 155.761L287.81 152.491ZM205.498 149.6L204.028 146.538L206.089 146.707L205.498 149.6ZM152.836 218.946L141.723 223.407L149.425 239.44C149.423 239.444 149.42 239.448 149.417 239.453C149.415 239.457 149.413 239.46 149.41 239.464C149.554 239.76 149.713 240.068 149.878 240.381L149.883 240.392L149.884 240.392C150.248 241.082 150.662 241.806 151.138 242.546C152.644 244.885 154.495 247.549 159.999 252.752C165.503 257.956 167.778 259.66 169.321 259.043C169.941 258.795 170.006 258.372 170.069 257.963C170.11 257.692 170.151 257.427 170.353 257.224C170.578 256.999 171.005 257.065 171.563 257.152C172.261 257.26 173.166 257.401 174.139 257.042C175.174 256.661 175.01 256.077 174.856 255.528C174.769 255.218 174.685 254.92 174.822 254.674C174.96 254.426 175.247 254.427 175.612 254.428C176.246 254.429 177.114 254.43 177.845 253.127C178.109 252.656 178.025 252.334 177.93 251.967C177.796 251.454 177.639 250.852 178.368 249.627C179.619 247.524 169.815 241.838 168.606 241.426C167.397 241.013 166.776 236.342 166.776 236.342C166.776 236.342 163.315 236.744 160.895 235.988C159.8 235.633 158.901 234.833 158.416 233.78L158.312 233.478L158.303 233.48L152.836 218.946Z" fill="#FFB7B6"/>
<path d="M169.936 246.202C169.967 246.148 170.018 246.108 170.078 246.092C170.138 246.075 170.202 246.084 170.256 246.116L177.982 250.611C178.074 250.664 178.119 250.773 178.092 250.877C178.064 250.98 177.971 251.052 177.865 251.052C177.823 251.052 177.783 251.041 177.748 251.02L170.021 246.525C169.968 246.494 169.928 246.442 169.912 246.382C169.896 246.321 169.904 246.256 169.936 246.202Z" fill="#0B122D"/>
<path d="M166.096 249.597C166.127 249.542 166.178 249.502 166.238 249.486C166.298 249.47 166.363 249.479 166.416 249.51L174.94 254.47C175.032 254.523 175.077 254.632 175.05 254.736C175.022 254.839 174.929 254.911 174.823 254.911C174.781 254.911 174.741 254.9 174.706 254.879L166.182 249.92C166.128 249.889 166.088 249.837 166.072 249.776C166.056 249.716 166.065 249.651 166.096 249.597Z" fill="#0B122D"/>
<path d="M164.792 253.52C164.826 253.468 164.88 253.431 164.941 253.419C165.002 253.406 165.065 253.419 165.117 253.453L170.483 257.026C170.57 257.084 170.609 257.192 170.579 257.292C170.549 257.392 170.458 257.461 170.354 257.461C170.308 257.461 170.263 257.447 170.225 257.421L164.859 253.848C164.75 253.776 164.721 253.629 164.792 253.52Z" fill="#0B122D"/>
<path fill-rule="evenodd" clip-rule="evenodd" d="M300.414 143.247C300.503 144.063 300.676 144.867 300.931 145.647L295.92 161.075L299.103 162.064L302.724 149.441C302.768 149.65 302.857 149.847 302.986 150.018C303.317 150.423 303.789 150.685 304.305 150.752C304.503 150.784 304.703 150.799 304.904 150.798C305.182 150.798 305.457 150.774 305.727 150.75L305.727 150.749L308.236 150.528C308.298 150.523 308.356 150.492 308.396 150.444C308.436 150.396 308.455 150.334 308.45 150.271C308.446 150.208 308.417 150.148 308.369 150.107C308.32 150.067 308.257 150.048 308.195 150.056L305.686 150.277C305.253 150.334 304.815 150.336 304.382 150.284C303.984 150.236 303.619 150.038 303.36 149.73C303.13 149.443 303.099 149.043 303.282 148.723C303.508 148.473 303.805 148.3 304.133 148.227L307.083 147.208C307.163 147.181 307.222 147.113 307.238 147.029C307.254 146.946 307.225 146.861 307.162 146.805C307.099 146.749 307.01 146.731 306.931 146.759L303.98 147.777C303.641 147.875 303.326 148.045 303.057 148.277L303.404 147.067C303.967 146.763 304.354 146.209 304.448 145.573L305.054 141.458C305.12 140.999 305.025 140.531 304.786 140.135L305.031 140.324L305.323 140.378L305.465 140.404C305.508 139.95 305.587 139.501 305.701 139.06C305.735 138.929 305.773 138.795 305.817 138.657L321.812 82.8907L321.363 82.7513L303.259 138.482L303.222 138.675L301.569 137.29C301.469 137.207 301.321 137.221 301.238 137.322C301.155 137.422 301.169 137.572 301.268 137.656L304.06 139.994C304.464 140.335 304.665 140.862 304.589 141.388L303.983 145.503C303.89 146.234 303.281 146.785 302.551 146.8C302.249 146.678 301.969 146.505 301.723 146.29C301.262 145.28 300.974 144.198 300.871 143.09C300.865 143.019 300.827 142.954 300.768 142.914L299.866 142.307C299.773 142.245 299.65 142.257 299.57 142.336C299.491 142.414 299.477 142.539 299.537 142.633C299.547 142.648 300.534 144.298 299.333 147.7C299.29 147.823 299.354 147.959 299.476 148.003C299.599 148.047 299.733 147.982 299.777 147.859C300.6 145.525 300.453 143.963 300.228 143.121L300.414 143.247ZM305.176 143.078C305.054 143.122 304.919 143.058 304.875 142.935C304.831 142.813 304.894 142.677 305.016 142.632L307.978 141.55C308.101 141.505 308.236 141.569 308.28 141.692C308.324 141.816 308.261 141.952 308.139 141.996L305.176 143.078ZM303.157 152.05C303.586 151.787 304.045 151.58 304.524 151.431C304.647 151.387 304.781 151.452 304.824 151.576C304.868 151.699 304.803 151.835 304.681 151.879C304.238 152.015 303.814 152.206 303.416 152.446C303.049 152.668 302.776 153.02 302.65 153.432C302.542 153.816 302.674 154.227 302.984 154.473C303.091 154.547 303.119 154.693 303.047 154.801C302.975 154.909 302.83 154.939 302.722 154.867C302.244 154.51 302.034 153.893 302.193 153.316C302.348 152.788 302.692 152.337 303.157 152.05Z" fill="black"/>
<path d="M462.187 119.417C461.082 113.771 459.313 109.567 452.126 114.612C452.126 114.612 452.063 109.02 449.52 106.812C446.977 104.603 430.911 94.7649 430.297 110.935C430.297 110.935 430.002 123.925 430.002 127.168C430.002 130.411 434.657 141.398 438.527 141.398C439.445 141.382 440.357 141.239 441.237 140.971C440.676 145.458 439.276 149.796 437.111 153.755L460.882 149.077C460.882 149.077 456.774 142.623 455.917 129.947C459.541 126.696 462.997 123.55 462.187 119.417Z" fill="#FFB7B6"/>
<path d="M470.746 81.518C459.552 81.518 459.487 92.1183 459.487 92.1183L461.262 95.2776C448.109 85.6627 440.578 94.4006 440.578 94.4006C430.002 92.0955 424.632 99.0475 423.828 107.336C423.024 115.624 430.127 118.985 430.127 118.985L430.248 113.157C433.78 111.173 433.093 108.89 433.521 107.734C434.772 113.589 444.874 116.228 446.921 118.094C449.095 120.076 449.333 124.49 450.584 124.49C451.834 124.49 451.146 117.969 455.051 115.751C460.038 112.919 461.417 118.759 460.5 121.787C459.487 125.129 455.637 129.128 455.637 129.128L456.118 134.624C463.897 129.722 469.686 118.588 468.799 108.7L468.8 108.701C477.741 108.454 481.136 105.241 483.806 99.8059C486.629 94.0601 481.94 81.518 470.746 81.518Z" fill="#161B36"/>
<path d="M468.891 101.668C465.848 95.1821 460.791 92.254 459.487 92.1191C457.833 91.9481 457.246 92.7941 457.246 92.7941L457.247 92.7949C458.797 93.5865 460.274 94.5161 461.66 95.5725C466.922 99.534 469.004 105.265 468.885 111.213C469.308 110.991 469.71 110.731 470.088 110.437C470.647 109.981 471.934 108.155 468.891 101.668Z" fill="#F76161"/>
<g style="mix-blend-mode:overlay" opacity="0.6">
<path d="M441.267 140.62C441.267 140.62 448.287 136.979 450.516 134.624C450.641 138.531 449.307 142.342 446.777 145.303C444.786 147.565 441.669 148.222 439.481 148.372C440.368 145.865 440.967 143.264 441.267 140.62Z" fill="#030F1C"/>
</g>
<path d="M439.255 112.842C439.573 112.481 440.011 112.2 441.324 112.281C442.637 112.361 444.627 113.605 444.189 113.926C443.752 114.247 442.438 113.163 441.404 113.525C440.369 113.886 439.775 114.183 439.427 113.986C438.99 113.739 439.102 113.016 439.255 112.842Z" fill="#161B36"/>
<path d="M433.564 112.474C433.148 112.236 432.643 112.113 431.426 112.616C430.209 113.12 428.724 114.945 429.241 115.106C429.758 115.267 430.654 113.814 431.749 113.819C432.844 113.824 433.501 113.912 433.767 113.613C434.102 113.236 433.765 112.588 433.564 112.474Z" fill="#161B36"/>
<g style="mix-blend-mode:overlay" opacity="0.6">
<path d="M435.831 128.733C435.301 128.742 434.779 128.607 434.319 128.342C433.988 128.165 433.754 127.848 433.678 127.479C433.568 126.783 434.187 125.418 434.831 124.081C434.936 123.864 435.021 123.687 435.07 123.573C435.902 121.646 435.524 117.976 435.52 117.939C435.511 117.855 435.548 117.772 435.615 117.722C435.683 117.672 435.772 117.663 435.849 117.697C435.925 117.731 435.978 117.804 435.987 117.888C436.003 118.044 436.382 121.72 435.501 123.762C435.449 123.88 435.362 124.063 435.254 124.287C434.861 125.102 434.045 126.797 434.141 127.404C434.201 127.635 434.355 127.829 434.564 127.939C435.188 128.278 435.919 128.353 436.597 128.146C436.721 128.106 436.853 128.175 436.892 128.299C436.932 128.424 436.864 128.557 436.741 128.597C436.446 128.689 436.14 128.735 435.831 128.733Z" fill="#030F1C"/>
</g>
<path d="M434.927 133.388C434.886 133.246 434.904 133.093 434.975 132.964C435.047 132.834 435.167 132.739 435.309 132.699C436.013 132.494 437.311 132.107 438.3 131.767C439.33 131.355 440.333 130.874 441.3 130.328C441.469 130.236 441.673 130.237 441.84 130.333C442.007 130.428 442.114 130.603 442.122 130.797C442.189 132.282 442.012 135.184 439.695 135.775C436.878 136.494 435.403 134.957 434.927 133.388Z" fill="#161B36"/>
<path d="M436.151 135.241C436.151 135.241 438.576 131.826 442.039 132.606C442.039 132.606 442.044 135.273 439.811 135.874C437.408 136.521 436.151 135.241 436.151 135.241Z" fill="#E55151"/>
<path d="M442.475 117.463C442.025 117.362 441.566 117.306 441.105 117.297C440.611 117.297 440.21 117.961 440.21 118.781C440.21 119.601 440.611 120.266 441.105 120.266C441.6 120.266 442.001 119.601 442.001 118.781C442.007 118.421 441.92 118.066 441.748 117.751C442.107 117.762 442.464 117.817 442.811 117.914C443.147 118.012 443.17 117.627 442.475 117.463Z" fill="#161B36"/>
<path d="M433.528 118.08C433.112 117.987 432.689 117.932 432.263 117.916C432.258 117.916 432.252 117.914 432.247 117.914C432.243 117.914 432.239 117.915 432.236 117.915C432.19 117.914 432.158 117.914 432.158 117.914L432.154 117.929C431.704 118.007 431.352 118.631 431.352 119.398C431.352 120.218 431.752 120.883 432.247 120.883C432.741 120.883 433.142 120.218 433.142 119.398C433.149 119.04 433.062 118.686 432.891 118.371C433.22 118.389 433.546 118.442 433.864 118.53C434.2 118.629 434.223 118.244 433.528 118.08Z" fill="#161B36"/>
<path d="M453.004 106.179C452.905 106.179 452.817 106.117 452.783 106.023C450.246 98.9614 442.892 95.8022 442.818 95.771C442.74 95.7387 442.686 95.6669 442.675 95.5829C442.664 95.4988 442.698 95.4152 442.765 95.3639C442.832 95.3125 442.921 95.3011 442.999 95.3341C443.075 95.366 450.618 98.6065 453.224 105.862C453.269 105.985 453.206 106.121 453.084 106.165C453.058 106.174 453.031 106.179 453.004 106.179Z" fill="white"/>
<path d="M478.553 102.585C478.46 102.585 478.375 102.529 478.338 102.442C478.301 102.356 478.318 102.255 478.382 102.186C483.319 96.8671 480.093 90.1628 480.06 90.0958C480.003 89.9789 480.05 89.837 480.166 89.7787C480.282 89.7204 480.422 89.7677 480.48 89.8845C480.515 89.9546 483.882 96.9531 478.725 102.51C478.68 102.558 478.618 102.585 478.553 102.585Z" fill="white"/>
<path d="M458.174 118.119C457.044 117.732 455.951 118.768 455.123 119.939L455.119 119.946C454.55 120.776 454.062 121.66 453.664 122.585C453.614 122.706 453.67 122.845 453.789 122.895C453.909 122.946 454.046 122.889 454.097 122.769C454.468 121.898 454.924 121.066 455.456 120.284C455.939 120.198 456.437 120.289 456.859 120.542C457.282 120.857 457.551 121.339 457.601 121.866C457.62 121.98 457.718 122.064 457.833 122.064C457.846 122.064 457.858 122.063 457.871 122.061C457.933 122.051 457.987 122.016 458.024 121.965C458.06 121.914 458.075 121.851 458.064 121.789C457.996 121.131 457.652 120.534 457.12 120.148C456.734 119.902 456.285 119.775 455.829 119.784C456.513 118.929 457.294 118.318 458.023 118.568C458.145 118.609 458.278 118.543 458.32 118.419C458.361 118.296 458.296 118.162 458.174 118.119H458.174Z" fill="#0B122D"/>
<path d="M440.888 141.033C440.777 141.033 440.681 140.954 440.658 140.845C440.635 140.736 440.691 140.625 440.793 140.58C440.872 140.544 448.737 136.996 452.057 132.707C452.108 132.64 452.191 132.606 452.274 132.618C452.357 132.63 452.428 132.685 452.459 132.763C452.491 132.842 452.478 132.931 452.427 132.998C449.034 137.381 441.31 140.866 440.983 141.012C440.953 141.026 440.921 141.033 440.888 141.033Z" fill="#0B122D"/>
<path fill-rule="evenodd" clip-rule="evenodd" d="M469.502 431.263C468.494 430.86 467.847 429.861 467.887 428.768C467.873 428.88 467.859 428.992 467.846 429.105C468.011 427.42 468.288 425.187 468.749 422.243C469.168 419.575 470.115 418.81 470.115 418.81C470.115 418.81 478.285 417.159 479.326 417.905C479.843 418.276 480.409 419.515 481.111 421.052C481.357 421.589 481.619 422.163 481.901 422.748C482.116 423.193 482.34 423.647 482.567 424.107C483.729 426.462 484.971 428.977 485.38 431.167C485.234 430.501 485.05 429.845 484.828 429.2C484.335 430.005 483.642 430.667 482.817 431.119C479.924 432.729 471.911 432.86 469.502 431.263ZM397.354 427.648C398.901 426.666 409.847 423.5 409.847 423.5L429.659 418.505C429.659 418.505 431.85 422.447 431.844 426.303C431.86 427.735 431.52 429.147 430.856 430.412C430.308 431.423 429.262 432.056 428.12 432.069C422.599 432.157 401.468 432.423 398.975 432C396.046 431.503 395.806 428.631 397.354 427.648Z" fill="#7686D6"/>
<path fill-rule="evenodd" clip-rule="evenodd" d="M478.538 390.544L479.17 416.908C479.17 416.908 481.121 423.651 481.043 424.097C480.561 426.854 470.266 427.837 469.751 424.202C469.673 423.651 470.037 417.394 470.037 417.394L467.01 391.477L478.538 390.544ZM418.592 418.569C421.376 416.171 420.135 402.533 420.135 402.533L429.673 404.055C429.673 404.055 429.498 417.191 429.659 418.505C429.819 419.818 423.549 423.418 418.34 424.231C413.131 425.043 408.819 424.708 408.738 424.216C408.707 424.026 409.657 423.581 411.032 422.937C413.222 421.911 416.49 420.38 418.592 418.569Z" fill="#FFB7B6"/>
<g style="mix-blend-mode:overlay" opacity="0.6">
<path d="M409.803 432.233C410.708 430.047 412.802 428.602 415.15 428.542C419.865 428.359 420.799 432.155 420.799 432.155L409.803 432.233Z" fill="#030F1C"/>
</g>
<path fill-rule="evenodd" clip-rule="evenodd" d="M482.817 431.119C483.642 430.667 484.335 430.005 484.828 429.2C484.828 429.2 485.68 431.609 485.518 432.746V433.679H467.565V432.746C467.565 432.746 467.644 430.655 467.887 428.768C467.847 429.861 468.494 430.86 469.502 431.263C471.91 432.86 479.924 432.729 482.817 431.119ZM428.12 432.069C429.262 432.056 430.308 431.423 430.856 430.412C430.997 430.148 431.123 429.877 431.233 429.599V429.599C431.099 430.361 430.905 431.11 430.653 431.841C430.265 432.945 429.229 433.683 428.068 433.683L398.616 433.64C397.57 433.639 396.695 432.84 396.589 431.791L396.411 430.027L396.49 430.018C396.726 430.917 397.517 431.753 398.974 432C401.468 432.423 422.599 432.157 428.12 432.069Z" fill="#2D2B72"/>
<path d="M423.725 227.111C418.365 268.437 415.457 302.197 415.306 307.974C415.155 313.719 418.532 410.982 418.532 410.982C418.532 410.982 427.508 411.886 431.44 409.894C431.44 409.894 434.447 375.778 435.835 364.075C437.222 352.371 440.763 327.163 440.763 315.888C444.279 300.523 447.208 282.049 447.208 282.049C447.208 282.049 449.32 295.277 452.22 313.255C458.347 351.25 467.992 410.458 468.652 410.827C469.375 411.232 474.763 412.137 480.574 410.035C480.574 410.035 479.697 392.463 479.929 382.502C480.16 372.541 479.595 332.156 476.125 314.725C476.125 314.725 477.764 299.053 479.92 287.404C481.287 280.014 483.176 268.017 481.511 256.917C479.395 242.813 475.479 239.39 473.059 225.986C458.433 219.607 438.971 219.187 423.725 227.111Z" fill="#F76161"/>
<g style="mix-blend-mode:overlay" opacity="0.6">
<path d="M447.208 282.049L441.86 258.371C441.86 258.371 436.181 271.352 436.796 281.424C437.41 291.497 441.101 290.921 442.066 309.942L447.208 282.049Z" fill="#030F1C"/>
</g>
<g style="mix-blend-mode:overlay" opacity="0.6">
<path d="M419.584 261.595C419.584 261.595 424.297 263.112 423.881 268.436C423.465 273.76 420.849 301.677 420.804 311.542C420.759 321.407 422.306 348.694 420.804 353.942C419.302 359.189 416.796 359.616 416.796 359.616C416.796 359.616 415.472 319.308 415.306 307.974C415.875 296.305 419.584 261.595 419.584 261.595Z" fill="white"/>
</g>
<g style="mix-blend-mode:overlay" opacity="0.6">
<path d="M450.647 303.492C450.647 303.492 455.519 304.647 457.705 314.601C459.89 324.556 464.764 359.819 465.761 368.32C466.759 376.821 463.456 381.957 463.456 381.957L450.647 303.492Z" fill="white"/>
</g>
<path d="M477.841 242.304C474.155 242.304 471.232 241.159 469.156 238.902C465.25 234.657 465.694 228.053 465.714 227.774C465.719 227.712 465.747 227.653 465.795 227.612C465.842 227.571 465.904 227.551 465.966 227.556C466.095 227.566 466.192 227.679 466.183 227.81C466.178 227.876 465.736 234.491 469.501 238.582C471.486 240.738 474.292 241.831 477.841 241.831C477.971 241.831 478.076 241.937 478.076 242.067C478.076 242.198 477.971 242.304 477.841 242.304Z" fill="#0B122D"/>
<path d="M421.484 243.345C421.376 243.345 421.282 243.271 421.256 243.165C421.23 243.059 421.279 242.949 421.375 242.899C421.459 242.854 429.751 238.384 429.313 230.359C429.307 230.229 429.406 230.119 429.535 230.112C429.663 230.105 429.773 230.203 429.782 230.333C430.237 238.665 421.679 243.273 421.592 243.318C421.559 243.336 421.522 243.345 421.484 243.345Z" fill="#0B122D"/>
<g style="mix-blend-mode:overlay" opacity="0.6">
<path d="M423.725 227.11L422.805 234.317C422.805 234.317 441.629 245.159 476.569 239.571C476.569 239.571 473.54 230.436 473.059 225.986L423.725 227.11Z" fill="#030F1C"/>
</g>
<path fill-rule="evenodd" clip-rule="evenodd" d="M487.335 172.419C489.195 177.496 491.526 183.862 494.713 191.893C497.954 200.061 497.161 206.752 487.376 208.737C485.221 209.173 478.425 210.441 471.022 211.725C471.593 216.594 472.448 221.425 473.584 226.192C473.817 227.179 473.425 228.208 472.599 228.786C464.673 234.166 432.196 236.454 424.103 230.038C423.262 229.355 422.847 228.271 423.016 227.195C425.22 212.417 424.23 202.673 422.582 198.468C422.336 197.84 422.091 197.247 421.855 196.676C420.845 194.227 419.992 192.161 419.811 189.232C415.442 195.135 408.686 203.137 402.87 203.057C398.338 202.994 393.087 199.593 383.096 183.431C382.863 183.053 382.242 182.059 381.405 180.72C378.486 176.048 372.943 167.176 372.091 165.642C376.086 166.039 379.838 163.65 381.2 159.843L391.121 172.754L402.273 185.434C402.527 185.726 402.913 185.863 403.293 185.798C403.673 185.733 403.992 185.475 404.137 185.115C405.994 180.545 408.111 176.087 410.477 171.763C412.505 167.991 414.874 164.414 417.554 161.08C420.733 157.275 424.874 154.409 429.538 152.786C429.582 152.768 439.307 149.437 439.307 149.437C439.307 149.437 435.36 163.211 444.524 162.637C457.152 161.845 460.52 147.87 460.52 147.87C460.52 147.87 467.669 149.756 471.255 150.933C480.254 153.089 481.339 156.052 487.335 172.419ZM470.616 199.554C473.463 198.526 477.314 197.083 479.28 196.343C479.609 196.22 479.872 195.965 480.008 195.638C480.143 195.311 480.139 194.943 479.995 194.62C478.782 191.894 475.786 185.175 473.124 179.326C472.863 183.21 472.374 187.075 471.661 190.901C471.1 193.755 470.75 196.648 470.616 199.554Z" fill="#2D2B72"/>
<path fill-rule="evenodd" clip-rule="evenodd" d="M460.52 147.87L468.603 150.107C468.603 150.107 470.159 158.976 456.578 160.705C457.751 165.996 449.121 173.925 441.637 162.453C441.637 162.453 455.328 165.054 460.52 147.87ZM431.607 152.083L439.307 149.437C436.36 160.301 441.637 162.453 441.637 162.453C433.366 171.475 431.02 160.768 434.724 157.841C430.65 154.355 431.607 152.083 431.607 152.083Z" fill="#F76161"/>
<g style="mix-blend-mode:overlay" opacity="0.6">
<path d="M402.54 191.377C399.049 187.62 387.411 174.665 391.122 172.753L402.272 185.433C402.527 185.725 402.913 185.863 403.294 185.798C403.674 185.733 403.994 185.475 404.14 185.115C405.995 180.544 408.111 176.086 410.478 171.762C412.01 174.884 409.256 183.622 404.289 191.223C404.101 191.512 403.792 191.698 403.451 191.728C403.11 191.758 402.774 191.628 402.54 191.377Z" fill="white"/>
</g>
<path d="M401.372 192.017C401.297 192.017 401.229 191.972 401.2 191.902C401.171 191.833 401.186 191.752 401.238 191.698C403.428 189.421 403.098 186.29 403.094 186.258C403.082 186.155 403.155 186.062 403.257 186.05C403.36 186.038 403.452 186.112 403.464 186.215C403.635 188.322 402.924 190.404 401.505 191.96C401.47 191.996 401.422 192.017 401.372 192.017Z" fill="#0B122D"/>
<g style="mix-blend-mode:overlay" opacity="0.6">
<path d="M419.861 186.11C420.076 183.567 421.344 178.615 422.689 172.043C422.23 172.463 421.793 172.908 421.38 173.375C415.36 180.178 419.899 186.594 417.226 190.464C411.908 198.164 410.754 193.827 406.176 198.071C404.832 199.317 404.276 200.879 404.198 202.925C408.026 202.588 415.432 195.758 419.949 190.608C419.747 189.118 419.717 187.608 419.861 186.11Z" fill="#030F1C"/>
</g>
<g style="mix-blend-mode:overlay" opacity="0.6">
<path d="M421.261 195.214C421.261 195.214 425.243 198.918 429.342 198.995C432.142 199.047 432.737 200.577 429.85 201.203C428.51 201.494 426.021 201.26 423.373 201.188C422.839 199.14 422.133 197.141 421.261 195.214V195.214Z" fill="#030F1C"/>
</g>
<g style="mix-blend-mode:overlay" opacity="0.6">
<path d="M471.017 211.726C469.557 211.98 468.075 212.233 466.598 212.482C466.917 214.552 466.957 216.424 466.692 217.529C464.975 224.679 457.481 229.578 453.267 230.592C450.652 231.246 448.178 232.378 445.968 233.933C445.968 233.933 464.301 233.837 472.599 228.786C472.599 228.786 474.019 228.187 473.584 226.192C472.327 221.452 471.468 216.612 471.017 211.726V211.726Z" fill="#030F1C"/>
</g>
<g style="mix-blend-mode:overlay" opacity="0.6">
<path d="M460.172 201.905C460.713 201.898 461.246 202.032 461.72 202.295C464.29 201.598 466.677 200.919 468.123 200.433C468.759 200.219 469.65 199.903 470.662 199.538C470.684 198.824 470.712 198.103 470.751 197.366C471.009 192.469 472.47 189.085 473.179 179.446C471.461 175.667 469.879 172.244 468.995 170.464C469.223 175.246 469.498 185.653 467.941 190.901C466.536 195.635 460.95 198.05 457.169 198.704C451.393 199.704 452.154 202.098 460.172 201.905Z" fill="#030F1C"/>
</g>
<path d="M441.136 181.61H441.129C440.999 181.606 440.897 181.497 440.9 181.367L441.442 162.762C441.454 162.635 441.557 162.536 441.684 162.532C441.814 162.536 441.916 162.645 441.912 162.776L441.37 181.38C441.367 181.508 441.263 181.61 441.136 181.61Z" fill="#0B122D"/>
<path d="M454.168 214.642C454.067 214.645 453.982 214.568 453.973 214.467C453.963 214.366 454.034 214.275 454.133 214.259L466.585 212.305C466.652 212.294 466.72 212.321 466.763 212.374C466.806 212.428 466.817 212.501 466.793 212.565C466.768 212.629 466.711 212.675 466.643 212.685L454.192 214.639C454.184 214.641 454.176 214.641 454.168 214.642Z" fill="#0B122D"/>
<g style="mix-blend-mode:overlay" opacity="0.6">
<path d="M483.474 198.19C479.048 199.975 466.224 205.667 464.116 201.653C470.79 199.764 479.28 196.343 479.28 196.343C479.602 196.238 479.864 195.999 480 195.686C480.136 195.373 480.133 195.016 479.991 194.706C479.003 192.667 477.346 188.469 474.38 182.172C475.384 181.768 477.471 182.168 478.127 183.392C478.887 184.815 482.711 192.411 484.332 195.474C484.696 196.162 484.644 197.717 483.474 198.19Z" fill="white"/>
</g>
<path d="M484.21 199.214C484.117 199.214 484.038 199.146 484.023 199.053C484.002 198.927 483.471 195.959 479.985 195.858C479.88 195.855 479.797 195.767 479.8 195.661C479.803 195.554 479.891 195.471 479.996 195.474C482.111 195.428 483.959 196.904 484.399 198.991C484.416 199.095 484.346 199.194 484.242 199.211C484.231 199.213 484.221 199.214 484.21 199.214Z" fill="#0B122D"/>
<path d="M473.924 179.134C473.885 179.134 473.847 179.122 473.815 179.1C468.361 175.28 468.343 166.967 468.344 166.883C468.344 166.777 468.43 166.692 468.534 166.692H468.536C468.641 166.693 468.726 166.779 468.725 166.885C468.725 166.967 468.745 175.081 474.033 178.784C474.101 178.832 474.131 178.919 474.106 178.999C474.081 179.08 474.007 179.134 473.924 179.134V179.134Z" fill="#0B122D"/>
<g style="mix-blend-mode:overlay" opacity="0.6">
<path d="M417.715 160.869C417.715 160.869 426.128 155.632 435.774 153.696L435.547 150.729C431.561 152.332 423.971 153.442 417.715 160.869Z" fill="white"/>
</g>
<path d="M451.664 219.721L437.011 194.643L433.003 187.784C432.685 187.238 432.104 186.903 431.476 186.904H407.728C407.026 186.985 406.401 187.394 406.041 188.008C405.963 188.119 405.892 188.235 405.827 188.355C405.727 188.535 405.646 188.725 405.584 188.922C405.584 188.926 405.58 188.926 405.58 188.931C405.388 189.395 405.403 189.921 405.622 190.374L405.597 190.323C405.607 190.353 405.62 190.383 405.634 190.412L405.647 190.429C405.651 190.433 405.651 190.437 405.655 190.441C405.666 190.468 405.679 190.493 405.693 190.518L418.748 212.861L421.115 216.907L424.354 222.455C424.673 223 425.254 223.335 425.882 223.335H449.629C449.716 223.334 449.803 223.327 449.889 223.314C451.261 223.309 452.361 220.914 451.664 219.721Z" fill="#36C9D8"/>
<g style="mix-blend-mode:overlay" opacity="0.6">
<path d="M405.502 190.058C405.487 189.997 405.475 189.934 405.466 189.871C405.474 189.934 405.486 189.997 405.502 190.058Z" fill="#030F1C"/>
<path d="M405.595 190.322C405.609 190.351 405.619 190.383 405.635 190.41L405.656 190.444C405.634 190.403 405.613 190.363 405.595 190.322Z" fill="#030F1C"/>
<path d="M405.575 190.278C405.546 190.207 405.522 190.134 405.502 190.06C405.52 190.135 405.545 190.208 405.575 190.278Z" fill="#030F1C"/>
<path d="M449.889 223.314C450.472 223.227 450.975 222.853 451.229 222.317C451.483 221.78 451.456 221.151 451.156 220.639L436.217 195.075L432.495 188.702C432.177 188.156 431.596 187.821 430.968 187.822H407.221C406.504 187.818 405.856 188.253 405.584 188.922C405.646 188.725 405.727 188.535 405.827 188.355C405.891 188.235 405.962 188.119 406.041 188.008C406.401 187.394 407.026 186.985 407.728 186.904H431.476C432.103 186.903 432.685 187.238 433.003 187.784L437.011 194.644L451.664 219.721C452.361 220.914 451.261 223.309 449.889 223.314Z" fill="#030F1C"/>
</g>
<g style="mix-blend-mode:overlay" opacity="0.6">
<path d="M407.004 189.467H408.647C408.755 189.467 408.854 189.524 408.908 189.617L409.31 190.31C409.364 190.404 409.365 190.521 409.311 190.615C409.257 190.71 409.157 190.768 409.049 190.768H407.406C407.298 190.768 407.199 190.711 407.145 190.617L406.743 189.925C406.689 189.83 406.688 189.714 406.742 189.619C406.796 189.525 406.896 189.467 407.004 189.467Z" fill="#030F1C"/>
</g>
<g style="mix-blend-mode:overlay" opacity="0.6">
<path d="M423.204 200.858H425.36C425.995 200.884 426.588 201.182 426.99 201.678C427.916 202.782 427.487 204.169 426.22 204.169H424.064C423.43 204.143 422.836 203.845 422.434 203.349C421.508 202.245 421.937 200.858 423.204 200.858Z" fill="#030F1C"/>
</g>
<path fill-rule="evenodd" clip-rule="evenodd" d="M378.435 150.851C378.435 150.851 378.241 146.933 377.055 145.843C376.305 145.199 375.288 144.97 374.337 145.23C374.337 145.23 374.243 145.012 374.103 144.685C373.982 144.402 373.823 144.042 373.66 143.673L373.66 143.673C373.368 143.013 373.065 142.328 372.955 142.022C371.394 137.679 368.674 132.095 367.319 132.555C366.251 132.917 367.127 135.391 369.258 141.405L369.258 141.406C369.534 142.185 369.831 143.023 370.147 143.924C369.969 143.601 369.013 142.41 367.153 143.142C365.845 143.654 366.758 145.906 366.758 145.906C366.758 145.906 364.907 145.088 364.009 146.035C363.03 147.073 363.892 148.833 363.958 148.951C363.855 148.901 362.127 148.075 361.434 149.676C361.16 150.313 361.853 152.17 363.188 154.357C363.354 154.628 363.529 154.903 363.712 155.182C363.754 155.244 363.794 155.304 363.837 155.37L363.84 155.371C364.178 155.876 364.548 156.392 364.943 156.907L364.946 156.907C365.061 157.057 365.172 157.202 365.28 157.344C367.264 159.94 368.219 161.188 371.291 162.297C371.291 162.297 372.036 163.683 373.118 165.663C376.418 165.626 379.41 163.699 380.829 160.694C380.238 159.717 379.708 158.703 379.245 157.658C379.245 157.658 378.981 155.224 378.435 150.851ZM449.981 205.968L449.987 206C449.434 206.09 448.871 206.099 448.315 206.028C448.103 205.958 447.832 205.894 447.53 205.822C446.761 205.64 445.785 205.409 445.034 204.898C444.463 204.51 443.199 202.899 442.092 201.489C441.166 200.309 440.351 199.271 440.146 199.207C439.695 199.068 438.375 201.138 439.341 202.613C439.644 203.077 439.967 203.519 440.26 203.919L440.26 203.919C440.898 204.79 441.389 205.462 441.208 205.729C441.014 206.014 440.04 206.142 439.123 206.263L439.123 206.263C438.965 206.284 438.808 206.305 438.658 206.326C436.595 206.555 431.847 207.11 431.386 207.421C430.794 207.82 430.513 208.896 431.634 209.147C432.21 209.276 431.407 209.647 430.728 209.961C430.448 210.091 430.188 210.211 430.056 210.3C429.465 210.699 429.183 211.775 430.305 212.026C431.174 212.22 432.558 212.538 432.175 212.796C431.583 213.194 431.302 214.271 432.424 214.521C432.609 214.563 432.865 214.61 433.14 214.661C433.977 214.817 434.998 215.007 434.77 215.161C434.24 215.518 433.989 216.48 434.992 216.705C435.62 216.846 438.985 216.434 441.413 216.106C442.884 216.401 446.967 216.002 448.599 214.964C449.592 214.409 450.66 214.004 451.768 213.76C452.184 211.049 451.701 208.275 450.393 205.87C450.148 205.931 450.004 205.965 449.981 205.968ZM443.243 162.651C435.164 162.371 439.111 150.218 439.111 150.218L460.52 147.87C459.11 157.191 451.668 162.943 443.243 162.651Z" fill="#FFB7B6"/>
<path d="M439.018 208.651C439.014 208.606 438.992 208.564 438.957 208.535C438.922 208.506 438.877 208.492 438.832 208.496L431.354 209.225C431.263 209.234 431.194 209.315 431.201 209.408C431.207 209.501 431.285 209.572 431.377 209.568L431.387 209.567L438.864 208.839C438.91 208.834 438.951 208.812 438.98 208.777C439.009 208.742 439.022 208.696 439.018 208.651Z" fill="#0B122D"/>
<path d="M439.483 211.822C439.471 211.728 439.386 211.662 439.293 211.673L431.697 212.643C431.607 212.654 431.541 212.736 431.548 212.827C431.556 212.919 431.634 212.989 431.725 212.985L431.74 212.984L439.336 212.014C439.38 212.008 439.421 211.985 439.449 211.949C439.477 211.913 439.489 211.867 439.483 211.822Z" fill="#0B122D"/>
<path d="M440.677 214.34L434.296 215.007C434.204 215.017 434.137 215.098 434.143 215.191C434.149 215.283 434.228 215.354 434.32 215.35L434.331 215.35L440.712 214.682C440.806 214.672 440.874 214.588 440.865 214.493C440.854 214.399 440.771 214.331 440.677 214.34Z" fill="#0B122D"/>
<path d="M372.413 150.121C372.31 150.123 372.229 150.208 372.23 150.312C372.239 150.8 372.178 151.411 371.84 151.555C371.356 151.762 370.356 151.012 369.84 150.491C369.782 150.432 369.693 150.419 369.621 150.457C369.548 150.496 369.51 150.578 369.525 150.659C369.726 151.703 369.61 152.399 369.181 152.728C368.312 153.393 366.403 152.447 366.384 152.437C366.356 152.424 366.325 152.417 366.294 152.419C365.835 151.625 365.044 150.362 364.698 149.6C364.655 149.506 364.544 149.464 364.451 149.508C364.357 149.551 364.316 149.662 364.359 149.757C364.733 150.579 365.617 151.978 366.061 152.762C366.076 152.787 366.097 152.808 366.122 152.823C366.154 153.505 366.018 153.988 365.698 154.239C365.162 154.66 364.276 154.348 364.268 154.345C364.171 154.309 364.064 154.36 364.03 154.458C363.995 154.555 364.045 154.663 364.142 154.698C364.405 154.787 364.681 154.833 364.96 154.835C365.305 154.847 365.645 154.742 365.925 154.537C366.371 154.12 366.587 153.511 366.506 152.904C367.122 153.164 368.574 153.663 369.406 153.027C369.872 152.67 370.061 152.029 369.969 151.117C370.479 151.549 371.361 152.167 371.985 151.901C372.41 151.72 372.618 151.183 372.603 150.305C372.603 150.255 372.582 150.208 372.547 150.173C372.511 150.138 372.463 150.119 372.413 150.121Z" fill="#030F1C"/>
<path d="M374.307 149.351C372.979 149.566 369.358 149.939 368.568 149.091C368.441 148.957 368.395 148.764 368.448 148.587C368.875 146.678 373.93 145.523 373.981 145.512C374.046 145.497 374.098 145.449 374.118 145.385C374.138 145.321 374.123 145.251 374.078 145.201C374.033 145.152 373.965 145.13 373.9 145.145C373.693 145.192 369.053 146.254 368.189 148.199L367.232 146.525C367.183 146.435 367.07 146.402 366.98 146.451C366.89 146.5 366.857 146.614 366.905 146.705L368.057 148.719L368.059 148.722C368.052 148.954 368.138 149.18 368.297 149.348C368.769 149.855 369.912 150.002 371.084 150.002C372.183 149.988 373.28 149.894 374.366 149.722C374.467 149.705 374.536 149.609 374.52 149.507C374.504 149.405 374.409 149.335 374.307 149.351H374.307Z" fill="#030F1C"/>
<path d="M508.4 372.137V374.222C508.401 375.496 509.011 376.692 510.038 377.435L514.638 421.463C515.074 425.626 518.394 428.759 522.356 428.759H561.729C565.687 428.759 569.014 425.614 569.446 421.463L574.047 377.435C575.073 376.693 575.682 375.498 575.684 374.226V372.137C575.681 370.31 574.441 368.722 572.68 368.289H511.405C509.645 368.723 508.405 370.311 508.4 372.137Z" fill="#FFB66D"/>
<path d="M566.862 368.156C567.966 363.192 568.792 358.367 569.078 354.155C570.321 335.961 572.116 291.396 572.135 290.96C572.175 288.276 570.084 286.049 567.422 285.94C564.76 285.832 562.498 287.881 562.322 290.559C562.303 291.006 560.515 335.431 559.284 353.489C558.991 357.78 558.044 362.893 556.786 368.164H554.908C555.72 356.952 556.362 345.304 556.471 335.81C556.846 308.481 558.604 238.342 558.623 237.635C558.667 235.868 557.772 234.211 556.276 233.289C554.779 232.367 552.908 232.319 551.367 233.164C549.826 234.009 548.85 235.618 548.806 237.385C548.806 238.089 547.007 308.288 546.65 335.677C546.552 343.246 546.102 352.237 545.523 361.262V200.369C545.573 198.568 544.648 196.883 543.108 195.968C541.569 195.053 539.657 195.053 538.118 195.968C536.578 196.883 535.653 198.568 535.703 200.369V345.119C535.192 336.964 534.82 328.953 534.73 322.089C534.354 294.699 532.593 224.496 532.574 223.792C532.554 222.479 532.011 221.229 531.066 220.323C530.122 219.417 528.856 218.931 527.553 218.975C526.251 219.008 525.016 219.56 524.118 220.511C523.221 221.463 522.735 222.734 522.769 224.046C522.769 224.75 524.564 294.888 524.921 322.217C525.097 335.692 526.344 353.451 527.576 368.156H527.467C525.676 356.766 524.016 344.135 523.535 334.591C522.408 311.75 520.305 255.666 520.283 255.102C520.179 252.372 517.898 250.243 515.188 250.347C512.478 250.452 510.366 252.75 510.469 255.48C510.492 256.044 512.576 312.193 513.726 335.098C514.21 344.687 515.795 356.948 517.511 368.164H512.343C512.027 368.167 511.711 368.209 511.405 368.289H572.679C572.373 368.209 572.057 368.167 571.741 368.164L566.862 368.156Z" fill="#85CEB4"/>
<g style="mix-blend-mode:overlay" opacity="0.6">
<path d="M527.553 368.156H537.423C536.18 353.477 534.91 335.563 534.734 322.088C534.358 294.699 532.597 224.496 532.578 223.792C532.553 222.479 532.007 221.231 531.064 220.325C530.12 219.42 528.856 218.932 527.553 218.971C524.839 219.039 522.694 221.311 522.761 224.045C522.761 224.749 524.556 294.888 524.913 322.217C525.09 335.692 526.337 353.447 527.553 368.156Z" fill="#030F1C"/>
</g>
<g style="mix-blend-mode:overlay" opacity="0.6">
<path d="M554.893 368.156C555.72 356.951 556.362 345.304 556.471 335.809C556.846 308.48 558.604 238.342 558.623 237.634C558.692 234.903 556.551 232.631 553.84 232.561C551.129 232.491 548.875 234.649 548.806 237.381C548.806 238.088 547.007 308.287 546.65 335.677C546.526 345.194 545.854 356.929 545.035 368.171L554.893 368.156Z" fill="#030F1C"/>
</g>
<g style="mix-blend-mode:overlay" opacity="0.6">
<path d="M510.751 384.25H573.333L573.983 378.055H510.102L510.751 384.25Z" fill="#030F1C"/>
</g>
<path fill-rule="evenodd" clip-rule="evenodd" d="M66.3157 101.908H56.332V97.0466H93.4175H93.4176H165.711V101.908H152.019L134.661 119.296L131.086 119.251L131.04 119.296V101.908H93.4176H93.4175H87.3165L69.94 119.296L66.3613 119.251L66.3157 119.296V101.908Z" fill="#DEE6EE"/>
<g style="mix-blend-mode:overlay" opacity="0.6">
<path d="M66.1904 119.296V101.307H84.0291L66.1904 119.296Z" fill="#030F1C"/>
</g>
<g style="mix-blend-mode:overlay" opacity="0.6">
<path d="M85.3357 103.674H66.1904V101.781H87.3151L85.3357 103.674Z" fill="#030F1C"/>
</g>
<g style="mix-blend-mode:overlay" opacity="0.6">
<path d="M130.973 119.296V101.307H148.811L130.973 119.296Z" fill="#030F1C"/>
</g>
<g style="mix-blend-mode:overlay" opacity="0.6">
<path d="M150.118 103.674H130.973V101.781H152.097L150.118 103.674Z" fill="#030F1C"/>
</g>
<g style="mix-blend-mode:overlay" opacity="0.6">
<rect x="56.332" y="97.0466" width="37.0856" height="4.73399" fill="#030F1C"/>
</g>
<path d="M97.579 55.3875H63.4453C62.3717 55.3875 61.5003 56.2556 61.4961 57.3292V95.0972C61.4961 96.1738 62.3688 97.0466 63.4453 97.0466H97.579C98.6525 97.0424 99.5206 96.1709 99.5206 95.0972V57.3292C99.5206 56.2568 98.6513 55.3875 97.579 55.3875Z" fill="#F76161"/>
<g style="mix-blend-mode:overlay" opacity="0.6">
<path d="M97.5584 55.3876H92.0088C93.0807 55.3876 93.9508 56.2557 93.955 57.3293V57.8395H96.2356C96.6059 57.8395 96.9609 57.9874 97.2221 58.2503C97.4832 58.5133 97.6289 58.8697 97.6268 59.2406V95.6455C97.6269 96.4163 97.0052 97.0424 96.2356 97.0466H97.5812C98.6531 97.0424 99.5198 96.1709 99.5198 95.0973V57.3293C99.5198 56.8104 99.3125 56.313 98.944 55.9482C98.5755 55.5834 98.0765 55.3815 97.5584 55.3876Z" fill="#030F1C"/>
</g>
<path d="M96.2643 57.7545H93.9682V95.093C93.9682 96.1719 93.0909 97.0466 92.0088 97.0466H96.2414C97.0162 97.0424 97.642 96.415 97.642 95.6425V59.1586C97.6463 58.3933 97.0319 57.7671 96.2643 57.7545V57.7545Z" fill="#FFE6A5"/>
<rect x="68.5381" y="65.8022" width="20.1858" height="9.46796" rx="2.43" fill="white"/>
<path fill-rule="evenodd" clip-rule="evenodd" d="M143.06 64.9984C143.898 63.994 144.795 63.0403 145.746 62.1423C149.855 58.2809 165.242 51.8985 165.242 51.8985C159.407 55.2012 154.227 59.5485 149.962 64.7242C143.577 72.7364 143.577 75.9581 143.577 75.9581H140.533H139.011V76.217L131.09 75.9429C131.09 75.9429 130.618 72.9344 124.241 64.709C120.387 59.8162 115.857 55.4976 110.787 51.8833C110.787 51.8833 123.678 56.0722 127.445 59.7356C128.733 61.022 129.862 62.4588 130.808 64.0149C130.699 62.617 130.556 61.1623 130.374 59.6823C126.958 31.7156 114.912 20.1542 114.912 20.1542C114.912 20.1542 122.826 23.353 130.009 35.7445C131.502 38.4591 132.698 41.3267 133.578 44.2975L132.406 12.7817C132.406 12.7817 138.532 28.0141 141.18 43.3912C143.305 38.6807 145.711 34.1027 148.387 29.682L143.06 64.9984ZM131.098 69.7826V69.7825V69.7825L131.098 69.7824C131.079 69.3071 131.059 68.8128 131.059 68.2962C131.09 69.1416 131.113 69.9413 131.128 70.6877C131.122 70.3934 131.11 70.092 131.098 69.7826ZM131.151 70.7791V72.7517C131.151 72.5732 131.15 72.3825 131.149 72.1823C131.148 71.7502 131.146 71.2735 131.151 70.7791ZM131.151 73.6961V72.9344C131.158 73.1782 131.158 73.4524 131.151 73.7113V73.6961ZM137.543 74.4805V74.4044L137.619 74.2749C137.61 74.3054 137.596 74.3334 137.582 74.3604C137.562 74.401 137.543 74.4394 137.543 74.4805Z" fill="#85CEB4"/>
<path d="M151.143 75.7589H122.992V79.2929V86.4295C122.992 92.2931 127.764 97.0466 133.65 97.0466H140.508C146.391 97.0423 151.158 92.2901 151.158 86.4295V75.7437L151.143 75.7589Z" fill="#DEE6EE"/>
<g style="mix-blend-mode:overlay" opacity="0.6">
<path d="M126.625 75.7589V86.4447C126.633 92.3024 131.31 97.0466 137.076 97.0466H133.92C131.147 97.0486 128.487 95.9309 126.526 93.9396C124.564 91.9483 123.462 89.2466 123.462 86.4295V75.7437L126.625 75.7589Z" fill="#030F1C"/>
</g>
<g style="mix-blend-mode:overlay" opacity="0.6">
<rect x="151.158" y="79.0574" width="28.1663" height="3.31378" transform="rotate(-180 151.158 79.0574)" fill="#030F1C"/>
</g>
<g style="mix-blend-mode:overlay" opacity="0.6">
<path d="M131.141 75.7436H134.728L133.578 44.4985C132.703 41.5259 131.513 38.6567 130.028 35.9404C122.883 23.5567 115.012 20.356 115.012 20.356C115.012 20.356 126.993 31.9243 130.391 59.9077C131 65.1629 131.25 70.4539 131.141 75.7436Z" fill="#030F1C"/>
</g>
<g style="mix-blend-mode:overlay" opacity="0.6">
<path d="M143.1 65.2355L148.342 29.824C148.342 29.824 140.778 42.2184 137.317 54.1776C134.067 65.4264 135.452 74.2545 135.722 75.7437H137.287C138.532 71.8872 140.507 68.3171 143.1 65.2355Z" fill="#030F1C"/>
</g>
<path fill-rule="evenodd" clip-rule="evenodd" d="M87.2669 212.371C86.5165 212.371 85.9082 212.979 85.9082 213.73C85.9082 214.459 86.4828 215.054 87.204 215.087V223.444C87.204 226.802 89.4007 229.642 92.424 230.583V232.675H102.935V230.583C105.958 229.642 108.155 226.802 108.155 223.444V215.087C108.876 215.054 109.451 214.459 109.451 213.73C109.451 212.979 108.842 212.371 108.092 212.371H87.2669Z" fill="#FFB66D"/>
<path fill-rule="evenodd" clip-rule="evenodd" d="M108.827 184.227C108.53 184.27 108.338 184.068 108.117 183.836C107.99 183.702 107.854 183.559 107.682 183.446C107.458 183.3 107.31 183.358 107.173 183.413C107.022 183.473 106.884 183.528 106.673 183.3C106.544 183.161 106.432 182.985 106.326 182.816C106.097 182.455 105.891 182.13 105.593 182.291C105.404 182.394 105.353 182.554 105.316 182.672C105.266 182.827 105.24 182.911 104.955 182.698C104.72 182.524 104.592 182.239 104.499 182.034C104.394 181.801 104.335 181.67 104.218 181.922C104.133 182.462 104.165 183.015 104.311 183.541C101.025 183.816 98.4763 189.089 97.2699 192.323C96.6884 194.041 96.3718 195.838 96.331 197.653C96.331 197.833 96.3234 198.012 96.316 198.187C96.3104 198.319 96.3049 198.45 96.3028 198.576V199.168C95.4272 198.584 94.4488 198.174 93.4205 197.961C93.4487 197.289 93.3078 196.275 93.0356 196.299C92.8711 196.314 92.714 196.583 92.5401 196.88C92.322 197.254 92.0774 197.672 91.7587 197.691C91.5686 197.702 91.4297 197.685 91.3144 197.671H91.3144C91.0822 197.644 90.9456 197.627 90.679 197.871C90.412 198.156 90.0177 198.281 89.6368 198.202C89.4186 198.183 89.3622 198.391 89.2957 198.635C89.2278 198.885 89.1492 199.174 88.8763 199.3C88.6435 199.409 88.4167 199.348 88.2209 199.295C87.9629 199.226 87.7586 199.171 87.6652 199.537C87.6029 199.781 87.6216 199.999 87.6371 200.18C87.6624 200.477 87.6792 200.674 87.3178 200.721C86.7357 200.796 86.1724 201.336 87.6558 201.54H88.421C88.0432 204.378 90.486 207.398 92.5665 209.971C93.3555 210.946 94.0923 211.857 94.6035 212.669H101.204C101.252 211.527 101.231 210.382 101.143 209.242C101.833 209.322 103.396 209.431 104.401 208.873C104.648 208.744 104.86 208.557 105.02 208.328C106.011 206.88 105.654 203.722 103.405 203.973C102.222 204.101 101.288 205.265 100.805 206.013L100.725 206.141C100.542 205.22 100.28 204.317 99.941 203.443L100.354 202.969C100.993 202.269 101.908 201.275 103.204 199.902C103.687 199.377 104.13 198.815 104.527 198.221C106.94 194.718 109.165 188.886 107.785 185.671L109.635 185.009C109.738 184.975 109.297 184.152 108.827 184.227Z" fill="#85CEB4"/>
<g style="mix-blend-mode:overlay" opacity="0.6">
<path d="M100.128 201.412C99.485 201.445 98.2503 199.712 97.396 198.524C97.1204 198.141 96.7474 197.84 96.3163 197.653C96.3163 197.97 96.2928 198.283 96.2881 198.576V199.225C96.8324 199.576 97.3516 199.965 97.8419 200.389C98.7623 201.25 99.4656 202.319 99.8934 203.509L100.363 202.998C101.001 202.297 101.917 201.303 103.212 199.93C103.696 199.405 104.138 198.843 104.536 198.25C103.996 198.685 100.715 201.379 100.128 201.412Z" fill="#030F1C"/>
</g>
<g style="mix-blend-mode:overlay" opacity="0.6">
<path d="M101.822 208.693C101.08 208.385 101.888 207.273 101.386 206.179C101.325 206.056 100.944 206.094 100.803 206.027L100.724 206.155C100.928 207.174 101.067 208.205 101.141 209.242C101.832 209.322 103.395 209.431 104.399 208.873C103.536 208.963 102.664 208.902 101.822 208.693Z" fill="#030F1C"/>
</g>
<g style="mix-blend-mode:overlay" opacity="0.6">
<path d="M87.665 201.53C87.665 201.53 90.2235 201.63 90.6929 201.057C91.1623 200.484 91.2985 200.072 91.6318 199.973C92.0108 199.917 92.3451 199.693 92.5425 199.362C92.767 199.059 93.015 198.774 93.2842 198.51C93.5189 198.207 93.3828 196.271 93.0119 196.304C92.6411 196.337 92.3078 197.663 91.735 197.696C91.1623 197.729 91.0591 197.511 90.6553 197.876C90.3884 198.161 89.994 198.286 89.6132 198.207C89.1954 198.164 89.416 199.05 88.8762 199.3C88.3363 199.551 87.8293 198.893 87.665 199.537C87.5007 200.181 87.8997 200.645 87.3176 200.721C86.7355 200.796 86.1816 201.327 87.665 201.53Z" fill="#030F1C"/>
</g>
<g style="mix-blend-mode:overlay" opacity="0.6">
<path d="M104.381 183.754L107.667 185.723L109.653 185.009C109.756 184.975 109.315 184.161 108.845 184.227C108.376 184.294 108.169 183.754 107.7 183.446C107.23 183.139 107.094 183.735 106.691 183.3C106.287 182.864 106.029 182.055 105.592 182.291C105.156 182.528 105.456 183.072 104.954 182.698C104.451 182.324 104.437 181.449 104.217 181.922C103.996 182.395 104.381 183.754 104.381 183.754Z" fill="#030F1C"/>
</g>
<g style="mix-blend-mode:overlay" opacity="0.6">
<path d="M91.1522 204.711C91.0718 204.713 90.9954 204.676 90.9457 204.612L90.3401 203.859C90.2467 203.743 90.2646 203.572 90.38 203.478C90.4954 203.384 90.6645 203.402 90.7579 203.518L91.3635 204.266C91.4091 204.323 91.4303 204.395 91.4223 204.467C91.4144 204.539 91.3779 204.605 91.3212 204.65C91.2744 204.691 91.2142 204.713 91.1522 204.711Z" fill="#030F1C"/>
</g>
<g style="mix-blend-mode:overlay" opacity="0.6">
<path d="M95.2411 206.614C95.1587 206.614 95.081 206.575 95.0298 206.51L94.4289 205.762C94.3686 205.687 94.3526 205.585 94.387 205.495C94.4215 205.404 94.5011 205.339 94.5959 205.324C94.6908 205.309 94.7864 205.346 94.8467 205.422L95.4476 206.169C95.5411 206.286 95.5243 206.457 95.4101 206.553C95.3614 206.591 95.3024 206.612 95.2411 206.614Z" fill="#030F1C"/>
</g>
<g style="mix-blend-mode:overlay" opacity="0.6">
<path d="M102.34 207.083C102.302 207.092 102.264 207.092 102.227 207.083C102.161 207.054 102.109 207 102.085 206.932C102.06 206.864 102.064 206.788 102.095 206.723L102.49 205.848C102.52 205.746 102.607 205.67 102.711 205.655C102.816 205.639 102.92 205.686 102.978 205.775C103.037 205.864 103.039 205.979 102.983 206.07L102.584 206.951C102.533 207.036 102.439 207.087 102.34 207.083Z" fill="#030F1C"/>
</g>
<g style="mix-blend-mode:overlay" opacity="0.6">
<path d="M103.54 208.768C103.503 208.777 103.464 208.777 103.427 208.768C103.362 208.739 103.312 208.684 103.287 208.616C103.262 208.549 103.265 208.474 103.296 208.409C103.366 208.257 103.418 208.158 103.47 208.058C103.529 207.956 103.582 207.85 103.629 207.741C103.645 207.624 103.733 207.529 103.849 207.507C103.964 207.485 104.081 207.54 104.138 207.644C104.195 207.748 104.179 207.877 104.099 207.964C104.029 208.12 103.972 208.219 103.921 208.319C103.869 208.418 103.827 208.494 103.761 208.636C103.715 208.716 103.632 208.766 103.54 208.768Z" fill="#030F1C"/>
</g>
<g style="mix-blend-mode:overlay" opacity="0.6">
<path d="M104.188 206.643C104.153 206.65 104.116 206.65 104.08 206.643C103.945 206.581 103.884 206.42 103.944 206.283C103.986 206.191 104.024 206.096 104.057 205.999C104.094 205.885 104.138 205.772 104.188 205.663C104.212 205.554 104.299 205.471 104.409 205.454C104.518 205.437 104.627 205.489 104.682 205.586C104.737 205.683 104.728 205.803 104.658 205.89C104.615 205.982 104.579 206.077 104.55 206.174C104.517 206.259 104.489 206.349 104.418 206.506C104.37 206.588 104.283 206.64 104.188 206.643Z" fill="#030F1C"/>
</g>
<g style="mix-blend-mode:overlay" opacity="0.6">
<path d="M99.4139 210.733C99.3337 210.733 99.2576 210.697 99.2074 210.634L98.583 209.886C98.5097 209.769 98.5344 209.615 98.6406 209.527C98.7468 209.439 98.9013 209.445 99.0008 209.54L99.6064 210.293C99.6994 210.408 99.6826 210.577 99.5689 210.672C99.5249 210.708 99.4707 210.729 99.4139 210.733Z" fill="#030F1C"/>
</g>
<g style="mix-blend-mode:overlay" opacity="0.6">
<path d="M95.2075 211.173C95.1266 211.172 95.0507 211.134 95.001 211.069L94.3954 210.321C94.302 210.204 94.3187 210.034 94.433 209.938C94.4887 209.892 94.5604 209.87 94.632 209.878C94.7035 209.886 94.7689 209.923 94.8132 209.98L95.4188 210.728C95.4644 210.784 95.4856 210.857 95.4776 210.929C95.4697 211.001 95.4332 211.067 95.3765 211.112C95.3285 211.151 95.2691 211.172 95.2075 211.173Z" fill="#030F1C"/>
</g>
<g style="mix-blend-mode:overlay" opacity="0.6">
<path d="M95.118 201.933C95.0364 201.933 94.9589 201.897 94.9068 201.833L94.3059 201.08C94.2126 200.964 94.2304 200.794 94.3458 200.699C94.4612 200.605 94.6304 200.623 94.7237 200.74L95.3293 201.488C95.3749 201.544 95.3961 201.616 95.3881 201.688C95.3802 201.76 95.3437 201.826 95.287 201.871C95.2403 201.912 95.18 201.934 95.118 201.933Z" fill="#030F1C"/>
</g>
<g style="mix-blend-mode:overlay" opacity="0.6">
<path d="M97.9257 196.432C97.89 196.431 97.8549 196.423 97.8223 196.408C97.6852 196.347 97.6223 196.187 97.6814 196.048L98.062 195.163C98.0899 195.097 98.1428 195.045 98.2089 195.018C98.275 194.992 98.349 194.993 98.4144 195.021C98.5495 195.083 98.6117 195.242 98.5554 195.381L98.1747 196.266C98.1338 196.368 98.0348 196.434 97.9257 196.432Z" fill="#030F1C"/>
</g>
<g style="mix-blend-mode:overlay" opacity="0.6">
<path d="M101.541 194.05C101.506 194.057 101.469 194.057 101.433 194.05C101.298 193.988 101.236 193.829 101.292 193.691L101.673 192.805C101.742 192.685 101.889 192.635 102.016 192.69C102.142 192.744 102.209 192.885 102.171 193.018L101.79 193.908C101.74 193.999 101.644 194.053 101.541 194.05Z" fill="#030F1C"/>
</g>
<g style="mix-blend-mode:overlay" opacity="0.6">
<path d="M101.898 198.581C101.864 198.59 101.828 198.59 101.794 198.581C101.728 198.554 101.675 198.501 101.649 198.434C101.622 198.367 101.624 198.292 101.653 198.226L102.034 197.341C102.061 197.274 102.114 197.221 102.18 197.194C102.247 197.167 102.321 197.169 102.386 197.199C102.453 197.226 102.505 197.279 102.532 197.346C102.558 197.413 102.557 197.488 102.527 197.554L102.147 198.439C102.099 198.532 102.001 198.587 101.898 198.581Z" fill="#030F1C"/>
</g>
<g style="mix-blend-mode:overlay" opacity="0.6">
<path d="M105.536 190.656C105.502 190.663 105.467 190.663 105.433 190.656C105.367 190.629 105.314 190.576 105.287 190.509C105.261 190.442 105.262 190.367 105.292 190.301L105.673 189.411C105.701 189.345 105.753 189.293 105.82 189.266C105.886 189.24 105.96 189.241 106.025 189.269C106.16 189.332 106.222 189.49 106.166 189.629L105.785 190.514C105.737 190.607 105.64 190.662 105.536 190.656Z" fill="#030F1C"/>
</g>
<g style="mix-blend-mode:overlay" opacity="0.6">
<path d="M101.001 188.933C100.965 188.939 100.928 188.939 100.893 188.933C100.757 188.871 100.697 188.711 100.756 188.573L101.132 187.688C101.201 187.568 101.348 187.518 101.475 187.572C101.602 187.626 101.669 187.768 101.63 187.901L101.25 188.791C101.2 188.882 101.104 188.937 101.001 188.933Z" fill="#030F1C"/>
</g>
<g style="mix-blend-mode:overlay" opacity="0.6">
<rect x="87.2178" y="214.946" width="20.8383" height="1.57641" fill="#030F1C"/>
</g>
<g style="mix-blend-mode:overlay" opacity="0.6">
<rect x="92.4336" y="230.706" width="10.4872" height="1.07462" fill="#030F1C"/>
</g>
<rect x="415.452" width="48.4882" height="58.5215" rx="6" fill="#F2E9FF"/>
<g style="mix-blend-mode:overlay" opacity="0.6">
<g style="mix-blend-mode:overlay">
<path fill-rule="evenodd" clip-rule="evenodd" d="M420.719 51.4536H459.579V17.6483H420.719V51.4536ZM452.749 51.0425H446.75V45.8872H452.749V51.0425ZM440.342 51.0425H446.341V45.8872H440.342V51.0425ZM439.933 45.4746V40.3248H433.939V45.4746H439.933ZM433.53 45.4746V40.3248H427.531V45.4746H433.53ZM427.122 45.4746H421.146V40.3248H427.122V45.4746ZM427.531 39.9122H433.53V34.7576H427.531V39.9122ZM427.122 34.7576V39.9122H421.146V34.7576H427.122ZM427.531 34.345H433.53V29.1904H427.531V34.345ZM427.122 29.1904V34.345H421.146V29.1904H427.122ZM427.531 28.7778H433.53V23.628H427.531V28.7778ZM427.122 23.628V28.7778H421.146V23.628H427.122ZM427.531 23.2154H433.53V18.0608H427.531V23.2154ZM427.122 18.0608V23.2154H421.146V18.0608H427.122ZM427.122 45.8872V51.0425H421.146V45.8872H427.122ZM427.531 51.0425V45.8872H433.53V51.0425H427.531ZM439.933 39.9122H433.939V34.7576H439.933V39.9122ZM439.933 34.345H433.939V29.1904H439.933V34.345ZM439.933 28.7778H433.939V23.628H439.933V28.7778ZM439.933 23.2154H433.939V18.0608H439.933V23.2154ZM439.933 51.0425H433.939V45.8872H439.933V51.0425ZM440.342 39.9122H446.341V34.7576H440.342V39.9122ZM440.342 40.3248H446.341V45.4746H440.342V40.3248ZM440.342 28.7778H446.341V23.628H440.342V28.7778ZM440.342 29.1904H446.341V34.345H440.342V29.1904ZM440.342 23.2154H446.341V18.0608H440.342V23.2154ZM452.749 45.4746H446.75V40.3248H452.749V45.4746ZM452.749 39.9122H446.75V34.7576H452.749V39.9122ZM452.749 34.345H446.75V29.1904H452.749V34.345ZM452.749 28.7778H446.75V23.628H452.749V28.7778ZM452.749 23.2154H446.75V18.0608H452.749V23.2154ZM453.157 51.0425H459.171V45.8872H453.157V51.0425ZM453.157 45.4746H459.171V40.3248H453.157V45.4746ZM453.157 39.9122H459.171V34.7576H453.157V39.9122ZM453.157 34.345H459.171V29.1904H453.157V34.345ZM453.157 28.7778H459.171V23.628H453.157V28.7778ZM453.157 23.2154H459.171V18.0608H453.157V23.2154Z" fill="black"/>
</g>
</g>
<path fill-rule="evenodd" clip-rule="evenodd" d="M455.368 29.3317H451.228V51.0986H455.368V29.3317ZM425.207 43.9029H429.347V51.0986H425.207V43.9029ZM438.22 44.9917H442.36V51.0986H438.22V44.9917Z" fill="#3871D6"/>
<path fill-rule="evenodd" clip-rule="evenodd" d="M448.862 34.5865H444.721V51.0939H448.862V34.5865ZM435.853 38.3737H431.713V51.0986H435.853V38.3737Z" fill="#EC7EF2"/>
<g style="mix-blend-mode:overlay">
<path fill-rule="evenodd" clip-rule="evenodd" d="M422.032 4.73401C421.509 4.73401 421.085 5.1579 421.085 5.6808C421.085 6.20371 421.509 6.6276 422.032 6.6276H437.507C438.03 6.6276 438.454 6.20371 438.454 5.6808C438.454 5.1579 438.03 4.73401 437.507 4.73401H422.032ZM421.795 8.99459C421.403 8.99459 421.085 9.31251 421.085 9.70469C421.085 10.0969 421.403 10.4148 421.795 10.4148H432.58C432.972 10.4148 433.29 10.0969 433.29 9.70469C433.29 9.31251 432.972 8.99459 432.58 8.99459H421.795Z" fill="black"/>
</g>
</svg>
