<svg width="24" height="24" viewBox="0 0 24 24" fill="none" xmlns="http://www.w3.org/2000/svg">
<g clip-path="url(#clip0)">
<path d="M1 1.02979H23.0001V22.4298H1V1.02979Z" fill="#210B00"/>
<path d="M0.999988 1.03026H23.0001V22.4303H0.999988V1.03026ZM0 23.4303H24V0.0302734H0V23.4303ZM15.72 8.37029C15.72 8.29031 15.75 8.25027 15.84 8.25027H17.41C17.49 8.25027 17.53 8.28027 17.53 8.37029V16.2603C17.53 16.3403 17.51 16.3803 17.41 16.3803H15.86C15.76 16.3803 15.73 16.3303 15.73 16.2503V8.37029H15.72ZM15.61 6.10027C15.61 5.46028 16.06 5.08029 16.6301 5.08029C17.2401 5.08029 17.65 5.49027 17.65 6.10027C17.65 6.76027 17.2201 7.12026 16.6101 7.12026C16.03 7.1203 15.61 6.76027 15.61 6.10027ZM11.11 11.6603C10.8301 10.5503 10.1701 8.13029 9.92001 6.96028H9.90002C9.69 8.13029 9.16003 10.1103 8.74005 11.6603H11.11ZM8.33002 13.2803L7.54001 16.2803C7.52001 16.3603 7.49001 16.3803 7.39003 16.3803H5.92002C5.82003 16.3803 5.8 16.3503 5.82003 16.2303L8.66002 6.29025C8.71001 6.11027 8.74001 5.95025 8.76001 5.46028C8.76001 5.39029 8.79 5.36029 8.84 5.36029H10.94C11.01 5.36029 11.04 5.38029 11.06 5.46028L14.24 16.2503C14.26 16.3302 14.24 16.3803 14.16 16.3803H12.5C12.42 16.3803 12.37 16.3603 12.35 16.2903L11.53 13.2803H8.33002Z" fill="#FF7F18"/>
</g>
<defs>
<clipPath id="clip0">
<rect width="24" height="24" fill="white"/>
</clipPath>
</defs>
</svg>
