<svg width="169" height="64" viewBox="0 0 169 64" fill="none" xmlns="http://www.w3.org/2000/svg">
<path d="M2.26751 56.3616V59.3261H5.81038V60.261H2.26751V63.9059H1.10059V55.4267H6.41188V56.3616H2.26751Z" fill="#01CAB0"/>
<path d="M11.6066 60.758L10.2532 57.3083C10.2131 57.2058 10.171 57.0874 10.1269 56.9533C10.0828 56.8153 10.0407 56.6693 10.0006 56.5155C9.91641 56.835 9.83019 57.1012 9.74197 57.3143L8.38858 60.758H11.6066ZM14.0367 63.9059H13.1345C13.0302 63.9059 12.946 63.8803 12.8818 63.829C12.8177 63.7777 12.7695 63.7126 12.7375 63.6337L11.9315 61.5864H8.06377L7.25775 63.6337C7.23369 63.7048 7.18757 63.7679 7.1194 63.8231C7.05123 63.8783 6.96702 63.9059 6.86677 63.9059H5.96451L9.41114 55.4267H10.5901L14.0367 63.9059Z" fill="#01CAB0"/>
<path d="M16.1571 63.9059H14.9902V55.4267H16.1571V63.9059Z" fill="#01CAB0"/>
<path d="M24.0101 56.3912H21.2191V63.9059H20.0582V56.3912H17.2612V55.4267H24.0101V56.3912Z" fill="#01CAB0"/>
<path d="M32.0921 55.4267V63.9059H30.9252V60.048H26.2756V63.9059H25.1087V55.4267H26.2756V59.2077H30.9252V55.4267H32.0921Z" fill="#01CAB0"/>
<path d="M47.3811 59.6693C47.3811 60.3044 47.2788 60.8823 47.0743 61.403C46.8698 61.9237 46.5811 62.3695 46.2082 62.7403C45.8352 63.1111 45.3861 63.399 44.8608 63.6042C44.3395 63.8053 43.762 63.9059 43.1285 63.9059H39.9104V55.4267H43.1285C43.762 55.4267 44.3395 55.5293 44.8608 55.7344C45.3861 55.9356 45.8352 56.2235 46.2082 56.5983C46.5811 56.9691 46.8698 57.4149 47.0743 57.9356C47.2788 58.4563 47.3811 59.0342 47.3811 59.6693ZM46.1841 59.6693C46.1841 59.1486 46.1119 58.6831 45.9676 58.2728C45.8232 57.8626 45.6187 57.5154 45.354 57.2314C45.0894 56.9474 44.7686 56.7304 44.3916 56.5805C44.0147 56.4306 43.5936 56.3557 43.1285 56.3557H41.0773V62.9769H43.1285C43.5936 62.9769 44.0147 62.902 44.3916 62.7521C44.7686 62.6022 45.0894 62.3872 45.354 62.1071C45.6187 61.8231 45.8232 61.476 45.9676 61.0657C46.1119 60.6555 46.1841 60.19 46.1841 59.6693Z" fill="#01CAB0"/>
<path d="M51.2697 59.5332C51.6066 59.5332 51.9033 59.4937 52.16 59.4148C52.4206 59.332 52.6372 59.2176 52.8096 59.0717C52.986 58.9218 53.1184 58.7442 53.2066 58.5391C53.2948 58.334 53.3389 58.1072 53.3389 57.8586C53.3389 57.3537 53.1705 56.973 52.8337 56.7166C52.4968 56.4602 51.9916 56.332 51.3179 56.332H50.0427V59.5332H51.2697ZM55.2517 63.9059H54.2171C54.0046 63.9059 53.8482 63.8251 53.7479 63.6633L51.5103 60.6338C51.4422 60.5391 51.368 60.472 51.2878 60.4326C51.2116 60.3892 51.0913 60.3675 50.9269 60.3675H50.0427V63.9059H48.8818V55.4267H51.3179C51.8632 55.4267 52.3344 55.4819 52.7314 55.5924C53.1284 55.6989 53.4552 55.8547 53.7119 56.0598C53.9725 56.265 54.165 56.5135 54.2893 56.8054C54.4136 57.0934 54.4758 57.4168 54.4758 57.7758C54.4758 58.0756 54.4277 58.3557 54.3314 58.616C54.2352 58.8764 54.0948 59.1111 53.9104 59.3202C53.7299 59.5253 53.5073 59.7008 53.2427 59.8468C52.982 59.9927 52.6853 60.1032 52.3525 60.1782C52.5008 60.261 52.6291 60.3813 52.7374 60.5391L55.2517 63.9059Z" fill="#01CAB0"/>
<path d="M57.4106 63.9059H56.2436V55.4267H57.4106V63.9059Z" fill="#01CAB0"/>
<path d="M66.4425 55.4267L62.9297 63.9059H61.883L58.3702 55.4267H59.3026C59.4068 55.4267 59.491 55.4523 59.5552 55.5036C59.6194 55.5549 59.6675 55.62 59.6996 55.6989L62.1297 61.6811C62.1818 61.8152 62.2319 61.9612 62.28 62.119C62.3322 62.2768 62.3783 62.4424 62.4184 62.616C62.4585 62.4424 62.5006 62.2768 62.5447 62.119C62.5888 61.9612 62.6369 61.8152 62.6891 61.6811L65.1131 55.6989C65.1372 55.6318 65.1833 55.5707 65.2515 55.5155C65.3236 55.4563 65.4099 55.4267 65.5101 55.4267H66.4425Z" fill="#01CAB0"/>
<path d="M72.7132 62.971L72.7072 63.9059H67.3959V55.4267H72.7072V56.3616H68.5629V59.1782H71.9193V60.0776H68.5629V62.971H72.7132Z" fill="#01CAB0"/>
<path d="M81.1421 55.4267V63.9059H80.5587C80.4664 63.9059 80.3882 63.8902 80.3241 63.8586C80.2639 63.827 80.2038 63.7738 80.1436 63.6988L75.1571 57.3083C75.1652 57.407 75.1712 57.5036 75.1752 57.5983C75.1792 57.693 75.1812 57.7817 75.1812 57.8646V63.9059H74.1586V55.4267H74.7601C74.8123 55.4267 74.8564 55.4306 74.8925 55.4385C74.9286 55.4425 74.9606 55.4523 74.9887 55.4681C75.0168 55.48 75.0449 55.4997 75.0729 55.5273C75.101 55.551 75.1311 55.5825 75.1632 55.622L80.1496 62.0065C80.1416 61.904 80.1336 61.8054 80.1256 61.7107C80.1216 61.6121 80.1196 61.5194 80.1196 61.4326V55.4267H81.1421Z" fill="#01CAB0"/>
<path d="M94.4248 56.3912H91.6338V63.9059H90.4729V56.3912H87.6759V55.4267H94.4248V56.3912Z" fill="#01CAB0"/>
<path d="M100.841 62.971L100.835 63.9059H95.5234V55.4267H100.835V56.3616H96.6903V59.1782H100.047V60.0776H96.6903V62.971H100.841Z" fill="#01CAB0"/>
<path d="M108.149 62.1545C108.213 62.1545 108.27 62.1801 108.318 62.2314L108.781 62.7225C108.428 63.1249 107.999 63.4385 107.494 63.6633C106.992 63.8882 106.385 64.0006 105.671 64.0006C105.054 64.0006 104.492 63.8961 103.987 63.687C103.482 63.474 103.051 63.1781 102.694 62.7994C102.337 62.4168 102.06 61.9592 101.864 61.4267C101.667 60.8941 101.569 60.3083 101.569 59.6693C101.569 59.0302 101.671 58.4444 101.876 57.9119C102.08 57.3794 102.367 56.9218 102.736 56.5391C103.109 56.1565 103.554 55.8606 104.071 55.6516C104.588 55.4385 105.16 55.332 105.785 55.332C106.399 55.332 106.94 55.4287 107.409 55.622C107.879 55.8153 108.292 56.0776 108.649 56.4089L108.264 56.9356C108.239 56.975 108.207 57.0085 108.167 57.0362C108.131 57.0598 108.081 57.0717 108.017 57.0717C107.945 57.0717 107.857 57.0342 107.752 56.9592C107.648 56.8803 107.512 56.7936 107.343 56.6989C107.175 56.6042 106.964 56.5194 106.712 56.4444C106.459 56.3656 106.148 56.3261 105.779 56.3261C105.334 56.3261 104.927 56.403 104.558 56.5569C104.189 56.7068 103.871 56.9257 103.602 57.2137C103.337 57.5016 103.131 57.8527 102.982 58.2669C102.834 58.6811 102.76 59.1486 102.76 59.6693C102.76 60.1979 102.836 60.6693 102.988 61.0835C103.145 61.4977 103.355 61.8488 103.62 62.1367C103.889 62.4207 104.203 62.6377 104.564 62.7876C104.929 62.9375 105.322 63.0125 105.743 63.0125C106 63.0125 106.23 62.9986 106.435 62.971C106.643 62.9395 106.834 62.8921 107.006 62.829C107.183 62.7659 107.345 62.687 107.494 62.5923C107.646 62.4937 107.796 62.3773 107.945 62.2432C108.013 62.1841 108.081 62.1545 108.149 62.1545Z" fill="#01CAB0"/>
<path d="M116.937 55.4267V63.9059H115.77V60.048H111.12V63.9059H109.953V55.4267H111.12V59.2077H115.77V55.4267H116.937Z" fill="#01CAB0"/>
<path d="M125.944 55.4267V63.9059H125.36C125.268 63.9059 125.19 63.8902 125.125 63.8586C125.065 63.827 125.005 63.7738 124.945 63.6988L119.959 57.3083C119.967 57.407 119.973 57.5036 119.977 57.5983C119.981 57.693 119.983 57.7817 119.983 57.8646V63.9059H118.96V55.4267H119.562C119.614 55.4267 119.658 55.4306 119.694 55.4385C119.73 55.4425 119.762 55.4523 119.79 55.4681C119.818 55.48 119.846 55.4997 119.874 55.5273C119.902 55.551 119.932 55.5825 119.965 55.622L124.951 62.0065C124.943 61.904 124.935 61.8054 124.927 61.7107C124.923 61.6121 124.921 61.5194 124.921 61.4326V55.4267H125.944Z" fill="#01CAB0"/>
<path d="M135.931 59.6693C135.931 60.3044 135.828 60.8882 135.624 61.4207C135.419 61.9493 135.131 62.405 134.758 62.7876C134.385 63.1702 133.936 63.4681 133.41 63.6811C132.889 63.8902 132.312 63.9947 131.678 63.9947C131.044 63.9947 130.467 63.8902 129.946 63.6811C129.424 63.4681 128.977 63.1702 128.604 62.7876C128.231 62.405 127.943 61.9493 127.738 61.4207C127.534 60.8882 127.431 60.3044 127.431 59.6693C127.431 59.0342 127.534 58.4523 127.738 57.9237C127.943 57.3912 128.231 56.9336 128.604 56.551C128.977 56.1644 129.424 55.8646 129.946 55.6516C130.467 55.4385 131.044 55.332 131.678 55.332C132.312 55.332 132.889 55.4385 133.41 55.6516C133.936 55.8646 134.385 56.1644 134.758 56.551C135.131 56.9336 135.419 57.3912 135.624 57.9237C135.828 58.4523 135.931 59.0342 135.931 59.6693ZM134.734 59.6693C134.734 59.1486 134.661 58.6811 134.517 58.2669C134.373 57.8527 134.168 57.5036 133.903 57.2196C133.639 56.9316 133.318 56.7107 132.941 56.5569C132.564 56.403 132.143 56.3261 131.678 56.3261C131.217 56.3261 130.798 56.403 130.421 56.5569C130.044 56.7107 129.721 56.9316 129.452 57.2196C129.188 57.5036 128.983 57.8527 128.839 58.2669C128.694 58.6811 128.622 59.1486 128.622 59.6693C128.622 60.19 128.694 60.6574 128.839 61.0716C128.983 61.4819 129.188 61.831 129.452 62.119C129.721 62.403 130.044 62.6219 130.421 62.7758C130.798 62.9257 131.217 63.0006 131.678 63.0006C132.143 63.0006 132.564 62.9257 132.941 62.7758C133.318 62.6219 133.639 62.403 133.903 62.119C134.168 61.831 134.373 61.4819 134.517 61.0716C134.661 60.6574 134.734 60.19 134.734 59.6693Z" fill="#01CAB0"/>
<path d="M142.31 62.9414V63.9059H137.42V55.4267H138.581V62.9414H142.31Z" fill="#01CAB0"/>
<path d="M150.983 59.6693C150.983 60.3044 150.881 60.8882 150.676 61.4207C150.472 61.9493 150.183 62.405 149.81 62.7876C149.437 63.1702 148.988 63.4681 148.463 63.6811C147.942 63.8902 147.364 63.9947 146.731 63.9947C146.097 63.9947 145.52 63.8902 144.998 63.6811C144.477 63.4681 144.03 63.1702 143.657 62.7876C143.284 62.405 142.995 61.9493 142.791 61.4207C142.586 60.8882 142.484 60.3044 142.484 59.6693C142.484 59.0342 142.586 58.4523 142.791 57.9237C142.995 57.3912 143.284 56.9336 143.657 56.551C144.03 56.1644 144.477 55.8646 144.998 55.6516C145.52 55.4385 146.097 55.332 146.731 55.332C147.364 55.332 147.942 55.4385 148.463 55.6516C148.988 55.8646 149.437 56.1644 149.81 56.551C150.183 56.9336 150.472 57.3912 150.676 57.9237C150.881 58.4523 150.983 59.0342 150.983 59.6693ZM149.786 59.6693C149.786 59.1486 149.714 58.6811 149.57 58.2669C149.425 57.8527 149.221 57.5036 148.956 57.2196C148.692 56.9316 148.371 56.7107 147.994 56.5569C147.617 56.403 147.196 56.3261 146.731 56.3261C146.269 56.3261 145.85 56.403 145.473 56.5569C145.097 56.7107 144.774 56.9316 144.505 57.2196C144.24 57.5036 144.036 57.8527 143.891 58.2669C143.747 58.6811 143.675 59.1486 143.675 59.6693C143.675 60.19 143.747 60.6574 143.891 61.0716C144.036 61.4819 144.24 61.831 144.505 62.119C144.774 62.403 145.097 62.6219 145.473 62.7758C145.85 62.9257 146.269 63.0006 146.731 63.0006C147.196 63.0006 147.617 62.9257 147.994 62.7758C148.371 62.6219 148.692 62.403 148.956 62.119C149.221 61.831 149.425 61.4819 149.57 61.0716C149.714 60.6574 149.786 60.19 149.786 59.6693Z" fill="#01CAB0"/>
<path d="M159.474 59.829V63.0835C159.041 63.3911 158.578 63.6219 158.084 63.7758C157.595 63.9257 157.058 64.0006 156.472 64.0006C155.779 64.0006 155.153 63.8961 154.596 63.687C154.038 63.474 153.561 63.1781 153.164 62.7994C152.771 62.4168 152.468 61.9592 152.256 61.4267C152.043 60.8941 151.937 60.3083 151.937 59.6693C151.937 59.0223 152.039 58.4326 152.244 57.9001C152.452 57.3675 152.747 56.9119 153.128 56.5332C153.509 56.1506 153.972 55.8547 154.517 55.6456C155.063 55.4366 155.672 55.332 156.346 55.332C156.687 55.332 157.004 55.3577 157.296 55.409C157.589 55.4563 157.86 55.5273 158.108 55.622C158.357 55.7127 158.588 55.8251 158.8 55.9592C159.013 56.0894 159.211 56.2374 159.396 56.403L159.065 56.9237C159.013 57.0026 158.945 57.0539 158.86 57.0776C158.78 57.0973 158.69 57.0776 158.59 57.0184C158.493 56.9632 158.383 56.8961 158.259 56.8172C158.135 56.7383 157.982 56.6634 157.802 56.5924C157.625 56.5174 157.415 56.4543 157.17 56.403C156.93 56.3517 156.643 56.3261 156.31 56.3261C155.825 56.3261 155.386 56.405 154.993 56.5628C154.6 56.7166 154.265 56.9395 153.988 57.2314C153.711 57.5194 153.499 57.8705 153.351 58.2847C153.202 58.6949 153.128 59.1565 153.128 59.6693C153.128 60.2018 153.204 60.6791 153.357 61.1012C153.513 61.5194 153.734 61.8764 154.018 62.1722C154.307 62.4641 154.656 62.687 155.065 62.8409C155.474 62.9947 155.933 63.0716 156.442 63.0716C156.843 63.0716 157.198 63.0282 157.507 62.9414C157.82 62.8507 158.125 62.7265 158.421 62.5687V60.7048H157.08C157.004 60.7048 156.942 60.6831 156.893 60.6397C156.849 60.5963 156.827 60.543 156.827 60.4799V59.829H159.474Z" fill="#01CAB0"/>
<path d="M164.116 60.5273V63.9059H162.949V60.5273L159.791 55.4267H160.814C160.918 55.4267 161 55.4523 161.06 55.5036C161.12 55.551 161.173 55.6141 161.217 55.693L163.19 58.9888C163.262 59.1269 163.328 59.2571 163.388 59.3793C163.448 59.4977 163.5 59.618 163.544 59.7403C163.589 59.618 163.639 59.4977 163.695 59.3793C163.751 59.2571 163.813 59.1269 163.881 58.9888L165.848 55.693C165.884 55.6259 165.934 55.5648 165.999 55.5095C166.063 55.4543 166.145 55.4267 166.245 55.4267H167.274L164.116 60.5273Z" fill="#01CAB0"/>
<path d="M0 46.9204V0.831055H6.39535V46.9204H0Z" fill="#01CAB0"/>
<path d="M40.3465 33.8219L25.1786 17.0149V46.8864H18.7832V0L40.2796 23.01L62.0103 0V46.921H55.615V17.0496L40.3465 33.8219Z" fill="#01CAB0"/>
<path d="M97.2021 0.901367L118.129 47.3373H110.83L105.874 35.7283C105.874 35.7283 97.5035 35.7976 91.8448 37.9461C85.5164 40.3719 79.6568 47.3373 79.6568 47.3373H72.5918L94.0212 0.901367H97.2021ZM103.028 29.6986L95.1596 13.7579L86.1191 34.3075C87.8937 33.2679 88.3625 32.8174 91.6104 31.5006C94.8248 30.2184 103.028 29.6986 103.028 29.6986Z" fill="#01CAB0"/>
<path d="M133.097 0.901367L161.826 36.2481V1.00532H168.422V47.3373H161.96L136.311 15.0747V47.3373H129.916V0.901367H133.097Z" fill="#01CAB0"/>
</svg>
