<svg width="48" height="48" viewBox="0 0 48 48" fill="none" xmlns="http://www.w3.org/2000/svg">
<circle cx="24" cy="24" r="24" fill="#F4F7FF"/>
<path opacity="0.3" fill-rule="evenodd" clip-rule="evenodd" d="M18 19.7143V26.5714H30V19.7143H18Z" fill="#1B5BF7"/>
<path opacity="0.3" fill-rule="evenodd" clip-rule="evenodd" d="M23.9993 26.5714C23.5259 26.5714 23.1421 26.9552 23.1421 27.4286V30H21.8563C21.6196 30 21.4277 30.1919 21.4277 30.4286C21.4277 30.6653 21.6196 30.8571 21.8563 30.8571H23.9956C23.9969 30.8572 23.9981 30.8572 23.9993 30.8572C24.0005 30.8572 24.0017 30.8572 24.0029 30.8571H26.142C26.3787 30.8571 26.5706 30.6653 26.5706 30.4286C26.5706 30.1919 26.3787 30 26.142 30H24.8564V27.4286C24.8564 26.9552 24.4727 26.5714 23.9993 26.5714Z" fill="#1B5BF7"/>
<path fill-rule="evenodd" clip-rule="evenodd" d="M29.7852 18H18.2137C17.1486 18 16.2852 18.7675 16.2852 19.7143V26.5715C16.2852 27.5182 17.1486 28.2857 18.2137 28.2857H29.7852C30.8503 28.2857 31.7137 27.5182 31.7137 26.5715V19.7143C31.7137 18.7675 30.8503 18 29.7852 18ZM17.9996 26.5715V19.7143H29.9996V26.5715H17.9996Z" fill="#1B5BF7"/>
</svg>
