<svg width="168" height="56" viewBox="0 0 168 56" fill="none" xmlns="http://www.w3.org/2000/svg">
<path fill-rule="evenodd" clip-rule="evenodd" d="M161.432 42.6192C165.584 41.2034 168 38.188 168 33.7567C168 31.5734 167.243 29.5771 165.79 27.8936C163.642 25.3974 160.041 23.8364 155.243 23.3366C153.604 23.1334 149.494 22.6109 149.494 20.3405C149.494 17.8249 157.649 17.1606 159.79 20.0309C160.348 20.7888 160.358 21.7015 160.358 22.5883H168C168 20.1921 167.589 17.9701 166.231 15.9125C164.651 13.4775 161.367 10.6072 154.799 10.6072C149.811 10.6072 146.148 11.9166 143.873 14.4773C142.799 15.6609 141.601 17.7217 141.601 20.7146C141.601 22.9625 142.358 24.8975 143.873 26.581C144.947 27.7033 146.338 28.6418 148.042 29.3255C149.746 30.0769 151.894 30.5736 154.358 30.8252C156.506 31.0735 160.169 31.7604 160.169 33.7567C160.169 34.1308 160.041 34.7565 159.029 35.2532C156.966 36.3432 151.326 36.4174 149.935 34.1308C149.373 33.2439 149.243 32.1055 149.243 31.0735L141.601 30.9509C141.601 36.34 143.55 40.6229 148.926 42.5547C152.471 43.9834 157.841 43.7996 161.432 42.6192ZM84.7262 11.936C76.0397 14.1484 70.7743 22.9141 73.0169 31.4927C75.2563 40.0714 84.1255 45.2734 92.812 43.061C99.6573 41.3034 102.429 37.5946 104.462 31.7507L95.8707 31.2412C94.6466 33.2569 93.0764 34.563 90.7555 35.208C87.6543 35.9756 84.0048 34.7855 82.2224 32.1087L105.272 26.4681C104.247 16.7187 94.4866 9.44621 84.7262 11.936ZM92.8642 20.663C93.7978 21.2693 94.6237 21.9659 95.2374 22.8431L80.8416 26.4036C80.9624 25.3458 81.3606 24.346 81.8503 23.4527C84.106 19.7342 89.0743 18.5248 92.8642 20.663ZM130.483 11.4199L122.273 29.39L113.43 11.4199H103.137L118.927 43.5545H125.622L140.716 11.4199H130.483ZM69.9158 43.5545L69.8505 0H61.0107V15.0997C58.1674 12.7906 54.5668 11.4199 50.5876 11.4199C41.6204 11.4812 34.3572 18.7183 34.4192 27.5807C34.4845 36.44 41.8097 43.6158 50.7769 43.5545C54.6941 43.5545 58.2947 42.1193 61.0727 39.8715V43.5545H69.9158ZM56.3981 33.0698C54.8835 34.5695 52.8628 35.3789 50.7149 35.4434C48.5669 35.4434 46.5463 34.6307 45.0316 33.1343C43.5137 31.6346 42.6944 29.6383 42.6944 27.5162C42.6323 25.3974 43.5137 23.4623 44.9663 21.9014C46.4843 20.405 48.5049 19.5923 50.6529 19.5923C52.8008 19.5923 54.8214 20.405 56.3361 21.8401C57.8508 23.3366 58.6734 25.3329 58.7354 27.455C58.7354 29.5771 57.916 31.5734 56.3981 33.0698Z" fill="#1D1A2F"/>
<path fill-rule="evenodd" clip-rule="evenodd" d="M1.3645 56V47.8729H29.8329V56H1.3645ZM0 28.1419C0 48.6791 31.2007 48.6791 31.2007 28.1419C31.2007 23.0237 31.2007 11.2942 31.2007 11.2942H22.9876C22.9876 16.7026 22.9876 22.1111 22.9876 27.5163C22.9876 37.9848 8.20985 37.9848 8.20985 27.5163C8.20985 22.1111 8.20985 16.7026 8.20985 11.2942H0C0 11.2942 0 23.0237 0 28.1419Z" fill="#1B5BF7"/>
</svg>
