<svg width="48" height="48" viewBox="0 0 48 48" fill="none" xmlns="http://www.w3.org/2000/svg">
<circle cx="24" cy="24" r="24" fill="#F4F7FF"/>
<path opacity="0.3" fill-rule="evenodd" clip-rule="evenodd" d="M20.5714 15.8571C19.9797 15.8571 19.5 16.3368 19.5 16.9285V31.0714C19.5 31.6631 19.9797 32.1428 20.5714 32.1428H27.4286C28.0203 32.1428 28.5 31.6631 28.5 31.0714V16.9285C28.5 16.3368 28.0203 15.8571 27.4286 15.8571H20.5714Z" fill="#1B5BF7"/>
<path fill-rule="evenodd" clip-rule="evenodd" d="M20.571 14.5715H27.4282C28.73 14.5715 29.7853 15.6269 29.7853 16.9287V31.0715C29.7853 32.3733 28.73 33.4287 27.4282 33.4287H20.571C19.2692 33.4287 18.2139 32.3733 18.2139 31.0715V16.9287C18.2139 15.6269 19.2692 14.5715 20.571 14.5715ZM20.571 15.8572C19.9793 15.8572 19.4996 16.3369 19.4996 16.9287V31.0715C19.4996 31.6633 19.9793 32.143 20.571 32.143H27.4281C28.0199 32.143 28.4996 31.6633 28.4996 31.0715V16.9287C28.4996 16.3369 28.0199 15.8572 27.4281 15.8572H26.4682V16.0057C26.4682 16.558 26.0205 17.0057 25.4682 17.0057H22.531C21.9788 17.0057 21.531 16.558 21.531 16.0057V15.8572H20.571Z" fill="#1B5BF7"/>
</svg>
