<svg width="48" height="48" viewBox="0 0 48 48" fill="none" xmlns="http://www.w3.org/2000/svg">
<circle cx="24" cy="24" r="24" fill="#F4F7FF"/>
<path opacity="0.3" d="M29.6759 22.0714H29.7852C30.8503 22.0714 31.7137 22.9349 31.7137 24C31.7137 25.0651 30.8503 25.9286 29.7852 25.9286L29.7299 25.9286C29.5633 25.9292 29.4131 26.0287 29.3475 26.1818C29.2757 26.3444 29.3088 26.5269 29.4233 26.644L29.4616 26.6823C29.8238 27.0441 30.0272 27.5349 30.0272 28.0468C30.0272 28.5586 29.8238 29.0495 29.4621 29.4107C29.1004 29.7729 28.6095 29.9764 28.0977 29.9764C27.5858 29.9764 27.0949 29.7729 26.7334 29.411L26.6999 29.3774C26.5778 29.258 26.3953 29.2249 26.2327 29.2966C26.0796 29.3622 25.9801 29.5124 25.9794 29.6764V29.7857C25.9794 30.8508 25.116 31.7143 24.0509 31.7143C22.9858 31.7143 22.1223 30.8508 22.1223 29.7857C22.1185 29.5714 22.01 29.4197 21.8113 29.3453C21.655 29.2763 21.4725 29.3094 21.3554 29.4238L21.3171 29.4622C20.9554 29.8243 20.4645 30.0278 19.9527 30.0278C19.4408 30.0278 18.9499 29.8243 18.5887 29.4627C18.2266 29.1009 18.0231 28.6101 18.0231 28.0982C18.0231 27.5863 18.2266 27.0955 18.5884 26.734L18.622 26.7005C18.7415 26.5784 18.7746 26.3958 18.7029 26.2332C18.6372 26.0802 18.487 25.9807 18.323 25.98H18.2137C17.1486 25.98 16.2852 25.1165 16.2852 24.0514C16.2852 22.9863 17.1486 22.1228 18.2137 22.1228C18.4281 22.119 18.5797 22.0106 18.6542 21.8119C18.7231 21.6556 18.69 21.4731 18.5756 21.356L18.5373 21.3177C18.1751 20.9559 17.9716 20.4651 17.9716 19.9532C17.9716 19.4413 18.1751 18.9505 18.5368 18.5892C18.8985 18.2271 19.3894 18.0236 19.9012 18.0236C20.4131 18.0236 20.904 18.2271 21.2654 18.589L21.299 18.6226C21.4211 18.742 21.6036 18.7751 21.7599 18.7062L21.8522 18.6867C21.9855 18.6145 22.0703 18.4749 22.0709 18.3236V18.2143C22.0709 17.1492 22.9343 16.2857 23.9994 16.2857C25.0646 16.2857 25.928 17.1492 25.928 18.2143L25.928 18.2696C25.9287 18.4361 26.0282 18.5864 26.1876 18.6547C26.3439 18.7237 26.5264 18.6906 26.6434 18.5761L26.6818 18.5378C27.0435 18.1757 27.5344 17.9722 28.0462 17.9722C28.5581 17.9722 29.049 18.1757 29.4102 18.5373C29.7723 18.8991 29.9758 19.3899 29.9758 19.9018C29.9758 20.4136 29.7723 20.9045 29.4104 21.266L29.3769 21.2995C29.2574 21.4216 29.2243 21.6042 29.2933 21.7604L29.3127 21.8527C29.385 21.9861 29.5246 22.0708 29.6759 22.0714Z" fill="#1B5BF7"/>
<path fill-rule="evenodd" clip-rule="evenodd" d="M23.9992 26.5714C25.4193 26.5714 26.5706 25.4202 26.5706 24C26.5706 22.5799 25.4193 21.4286 23.9992 21.4286C22.579 21.4286 21.4277 22.5799 21.4277 24C21.4277 25.4202 22.579 26.5714 23.9992 26.5714Z" fill="#1B5BF7"/>
</svg>
