<svg width="24" height="24" viewBox="0 0 24 24" fill="none" xmlns="http://www.w3.org/2000/svg">
<path d="M5.226 2.5138L11.976 1.7998L18.726 2.5138L23.952 9.5398L11.976 23.4778L0 9.5398L5.226 2.5198V2.5138Z" fill="#FDB300"/>
<path d="M4.854 9.54004L11.976 23.478L0 9.54004H4.854ZM19.098 9.54004L11.976 23.478L23.952 9.54004H19.098Z" fill="#EA6C00"/>
<path d="M4.85449 9.54004H19.0985L11.9765 23.478L4.85449 9.54004Z" fill="#FDAD00"/>
<path d="M11.9765 1.7998L5.22649 2.5138L4.85449 9.5398L11.9765 1.7998ZM11.9765 1.7998L18.7205 2.5138L19.0925 9.5398L11.9765 1.7998Z" fill="#FDD231"/>
<path d="M23.952 9.54002L18.72 2.52002L19.092 9.54602H23.946L23.952 9.54002ZM0 9.54002L5.226 2.52002L4.854 9.54002H0Z" fill="#FDAD00"/>
<path d="M11.9765 1.7998L4.85449 9.5398H19.0985L11.9765 1.7998Z" fill="#FEEEB7"/>
</svg>
