<svg width="56" height="56" viewBox="0 0 56 56" fill="none" xmlns="http://www.w3.org/2000/svg">
<rect width="56" height="56" fill="#C4C4C4" fill-opacity="0.01"/>
<path fill-rule="evenodd" clip-rule="evenodd" d="M16.1278 23.2949L27.9586 46.9577L8.07324 23.2949H16.1278Z" fill="#EA6C00"/>
<path fill-rule="evenodd" clip-rule="evenodd" d="M39.7921 23.2949L27.9613 46.9577L47.8467 23.2949H39.7921Z" fill="#EA6C00"/>
<path fill-rule="evenodd" clip-rule="evenodd" d="M16.127 23.2949H39.7885L27.9577 46.9577L16.127 23.2949Z" fill="#FDAD00"/>
<path fill-rule="evenodd" clip-rule="evenodd" d="M27.9577 10.1802L16.7496 11.3908L16.127 23.2941L27.9577 10.1802Z" fill="#FDD231"/>
<path fill-rule="evenodd" clip-rule="evenodd" d="M27.9583 10.1802L39.1664 11.3908L39.7891 23.2941L27.9583 10.1802Z" fill="#FDD231"/>
<path fill-rule="evenodd" clip-rule="evenodd" d="M47.8467 23.2948L39.1694 11.3916L39.7921 23.2948H47.8467Z" fill="#FDAD00"/>
<path fill-rule="evenodd" clip-rule="evenodd" d="M8.07324 23.2948L16.7505 11.3916L16.1278 23.2948H8.07324Z" fill="#FDAD00"/>
<path fill-rule="evenodd" clip-rule="evenodd" d="M27.9577 10.1802L16.127 23.2941H39.7885L27.9577 10.1802Z" fill="#FEEEB7"/>
</svg>
