<svg width="163" height="98" viewBox="0 0 163 98" fill="none" xmlns="http://www.w3.org/2000/svg">
<path d="M146.857 0H16C7.16344 0 0 7.16344 0 16V81.7143C0 90.5509 7.16344 97.7143 16 97.7143H146.857C155.694 97.7143 162.857 90.5509 162.857 81.7143V16C162.857 7.16344 155.694 0 146.857 0Z" fill="#64177C"/>
<path fill-rule="evenodd" clip-rule="evenodd" d="M74.242 39.4542H74.33C74.342 39.4668 74.367 39.4794 74.417 39.4794C74.768 39.5802 75.057 39.6937 75.27 39.8449C75.483 39.9836 75.659 40.1349 75.784 40.2862C75.909 40.4374 75.985 40.6013 76.035 40.7652C76.085 40.9291 76.122 41.0677 76.148 41.2064C76.173 41.4081 76.26 41.5594 76.386 41.6854C76.524 41.8115 76.674 41.8619 76.862 41.8619H78.517C78.73 41.8619 78.918 41.7863 79.069 41.6224C79.207 41.4585 79.269 41.2694 79.257 41.0677C79.182 39.7063 78.618 38.5843 77.564 37.7145C76.787 37.059 75.784 36.643 74.543 36.4413C74.317 36.4035 74.116 36.4539 73.953 36.5926C73.765 36.7438 73.678 36.9455 73.678 37.1725V38.723C73.678 38.9121 73.728 39.0634 73.841 39.202C73.928 39.3155 74.066 39.4163 74.242 39.4542ZM77.777 44.2571C77.289 43.9293 76.699 43.652 76.047 43.4251C75.834 43.3494 75.608 43.2864 75.383 43.2108C75.145 43.1351 74.894 43.0721 74.605 42.9965L74.48 42.9587C74.405 42.946 74.317 42.9208 74.204 42.8956C73.891 42.82 73.59 42.7443 73.289 42.6687C72.988 42.5931 72.7 42.5174 72.399 42.4418C72.298 42.4166 72.211 42.3914 72.11 42.3662C72.023 42.341 71.922 42.3157 71.822 42.2905C71.672 42.2401 71.509 42.1771 71.358 42.1267C71.208 42.0762 71.057 42.0258 70.932 41.9628C70.556 41.8115 70.267 41.635 70.067 41.4333C69.966 41.3325 69.916 41.2568 69.891 41.1938C69.879 41.1434 69.866 41.093 69.866 41.0677C69.866 40.866 69.904 40.6391 69.966 40.4122C69.966 40.3996 69.979 40.387 69.979 40.3618C70.054 40.2105 70.154 40.0719 70.305 39.9332C70.493 39.7819 70.781 39.618 71.195 39.4668C71.27 39.4416 71.346 39.4163 71.433 39.4037C71.521 39.3911 71.621 39.3785 71.734 39.3659C71.922 39.3407 72.06 39.2525 72.173 39.1138C72.286 38.9751 72.349 38.8112 72.349 38.6222V37.0968C72.349 36.8825 72.273 36.706 72.11 36.5422C71.935 36.3909 71.747 36.3278 71.521 36.3531C70.192 36.5169 69.164 36.9203 68.424 37.538C67.346 38.4205 66.819 39.555 66.819 40.9669C66.819 41.988 67.133 42.8074 67.747 43.4377C68.286 43.9797 68.963 44.421 69.803 44.7739C70.042 44.8748 70.305 44.963 70.581 45.0639C70.857 45.1521 71.132 45.2404 71.421 45.3034C71.571 45.3412 71.722 45.379 71.86 45.4168C71.998 45.4547 72.135 45.4799 72.261 45.5177C72.599 45.5933 72.925 45.669 73.251 45.7572C73.577 45.8454 73.891 45.9211 74.204 46.0093L74.267 46.0345C74.304 46.0471 74.355 46.0598 74.392 46.0724C74.43 46.085 74.48 46.0976 74.543 46.1102C75.195 46.3119 75.721 46.5514 76.135 46.8287C76.386 46.9926 76.511 47.2447 76.511 47.5473C76.511 47.6607 76.499 47.7994 76.474 47.9759C76.448 48.1398 76.373 48.3162 76.235 48.4801C76.097 48.644 75.872 48.8079 75.583 48.9592C75.282 49.1104 74.869 49.2113 74.317 49.2617C74.129 49.2869 73.978 49.3752 73.853 49.5012C73.728 49.6399 73.665 49.8038 73.665 50.0055V51.5308C73.665 51.7577 73.753 51.9468 73.916 52.0855C74.041 52.2115 74.204 52.2746 74.405 52.2746H74.493C75.17 52.1989 75.784 52.0729 76.348 51.8964C76.9 51.7073 77.401 51.4678 77.815 51.1526C79.031 50.308 79.633 49.0726 79.633 47.4716C79.633 46.7909 79.47 46.1732 79.157 45.6185C78.843 45.1017 78.379 44.6353 77.777 44.2571ZM71.759 49.2113C71.534 49.1609 71.32 49.0978 71.132 49.0348C70.944 48.9718 70.756 48.8835 70.593 48.7953C69.941 48.4171 69.603 47.8624 69.553 47.1565C69.54 46.9548 69.465 46.7909 69.314 46.6522C69.176 46.5136 69.001 46.4505 68.8 46.4505H67.133C66.907 46.4505 66.719 46.5388 66.581 46.7027C66.431 46.8539 66.368 47.0556 66.393 47.2825C66.531 48.8583 67.158 50.0811 68.261 50.9635C69.101 51.6316 70.18 52.0603 71.483 52.262C71.496 52.262 71.509 52.262 71.521 52.262H71.747C71.772 52.262 71.809 52.262 71.835 52.2493C72.173 52.1107 72.349 51.8712 72.349 51.5182V49.9424C72.349 49.7786 72.298 49.6147 72.186 49.476C72.085 49.3247 71.947 49.2365 71.759 49.2113ZM92.748 37.8154C91.72 36.8573 90.366 36.3657 88.685 36.3657H82.304C82.103 36.3657 81.94 36.4413 81.79 36.5926C81.639 36.7438 81.564 36.9203 81.564 37.122V38.66C81.564 38.8617 81.639 39.0382 81.79 39.1894C81.94 39.3407 82.116 39.4163 82.304 39.4163H88.573C89.488 39.4163 90.165 39.618 90.604 40.034C91.018 40.4248 91.218 40.9921 91.218 41.7233C91.218 42.4796 91.018 43.0469 90.604 43.4125C90.19 43.8159 89.513 44.0302 88.573 44.0302H82.304C82.103 44.0302 81.928 44.1058 81.79 44.2571C81.652 44.4084 81.564 44.5848 81.564 44.7739V51.3669C81.564 51.5686 81.639 51.7451 81.79 51.8838C81.94 52.035 82.103 52.1107 82.304 52.1107H83.896C84.097 52.1107 84.26 52.035 84.41 51.8838C84.56 51.7325 84.636 51.556 84.636 51.3669V47.2447C84.636 47.1313 84.723 47.0304 84.849 47.0304H88.685C90.391 47.0304 91.745 46.5514 92.748 45.6059C93.776 44.6227 94.29 43.3368 94.29 41.7106C94.29 40.0845 93.776 38.7986 92.748 37.8154ZM103.831 36.8321C103.706 36.5169 103.48 36.3657 103.154 36.3657H101.123C100.973 36.3657 100.835 36.4035 100.709 36.4791C100.584 36.5548 100.496 36.6682 100.446 36.8321L96.296 46.6144C96.196 46.8665 96.221 47.1061 96.359 47.3204C96.509 47.5473 96.722 47.6607 96.998 47.6607H98.778C98.929 47.6607 99.067 47.6229 99.192 47.5473C99.318 47.4716 99.405 47.3582 99.456 47.2195L101.951 41.2316C102.026 41.0551 102.264 41.0551 102.339 41.2316L104.985 47.5851L105.499 48.8331C105.561 48.9718 105.461 49.123 105.311 49.123H95.757C95.606 49.123 95.468 49.1609 95.343 49.2491C95.218 49.3373 95.13 49.4508 95.08 49.5895L94.428 51.1274C94.315 51.3669 94.34 51.5938 94.491 51.8207C94.628 52.0476 94.842 52.1611 95.105 52.1611H109.21C109.461 52.1611 109.674 52.0476 109.824 51.8207C109.962 51.5812 109.987 51.3417 109.887 51.1148L103.831 36.8321ZM116.82 36.6304C116.62 36.4791 116.407 36.4287 116.181 36.4791C114.677 36.7817 113.398 37.5128 112.344 38.6726C111.003 40.1853 110.338 42.0762 110.338 44.3453C110.338 46.6144 111.003 48.5053 112.344 50.0181C113.385 51.1652 114.664 51.909 116.181 52.2241H116.332C116.532 52.2241 116.695 52.1737 116.82 52.0603C117.009 51.9216 117.096 51.7325 117.096 51.4804V49.8038C117.096 49.6525 117.046 49.5012 116.933 49.3625C116.833 49.2239 116.695 49.1356 116.545 49.0978C115.767 48.8709 115.128 48.4801 114.626 47.9128C113.811 47.0052 113.41 45.8202 113.41 44.3453C113.41 42.883 113.811 41.698 114.626 40.7778C115.028 40.3366 115.504 39.9962 116.068 39.7315C116.181 39.6811 116.344 39.6306 116.532 39.5802C116.683 39.5298 116.821 39.4289 116.921 39.2903C117.021 39.1516 117.084 39.0129 117.084 38.8491V37.1851C117.096 36.9582 116.996 36.7691 116.82 36.6304ZM122.488 37.6641C121.547 36.996 120.456 36.5674 119.253 36.3657C119.027 36.3405 118.827 36.4035 118.664 36.5548C118.488 36.6808 118.413 36.8699 118.413 37.1094V38.66C118.413 38.8617 118.463 39.0256 118.588 39.1642C118.701 39.3029 118.852 39.3785 119.052 39.4037C119.591 39.492 120.105 39.6937 120.594 39.9962C121.234 40.4374 121.698 41.0299 122.011 41.7611C122.149 42.0636 122.387 42.2023 122.713 42.2023H124.406C124.657 42.2023 124.87 42.1014 125.02 41.8871C125.158 41.6728 125.196 41.4459 125.108 41.2064C124.581 39.7441 123.716 38.5591 122.488 37.6641ZM124.393 46.4631H122.701C122.375 46.4631 122.149 46.6144 121.999 46.9044C121.685 47.6355 121.221 48.228 120.582 48.6692C120.131 48.9844 119.604 49.1735 119.015 49.2617C118.827 49.2869 118.689 49.3752 118.576 49.5012C118.463 49.6399 118.4 49.8038 118.4 50.0055V51.556C118.4 51.7955 118.488 51.9846 118.651 52.1107C118.776 52.2367 118.939 52.2998 119.14 52.2998H119.24C120.456 52.0981 121.535 51.6695 122.475 51.0013C123.704 50.1063 124.569 48.9213 125.083 47.4464C125.171 47.2069 125.133 46.98 124.995 46.7657C124.857 46.5766 124.644 46.4631 124.393 46.4631ZM127.741 45.7824H137.42C137.458 45.7824 137.495 45.7698 137.533 45.7572C137.859 45.5681 138.022 45.3286 138.022 45.0387V43.4503C138.022 43.1604 137.859 42.9208 137.533 42.7317C137.495 42.7191 137.458 42.7065 137.42 42.7065H127.741C127.54 42.7065 127.365 42.7822 127.227 42.9334C127.089 43.0847 127.001 43.2612 127.001 43.4503V45.0387C127.001 45.2404 127.077 45.4168 127.227 45.5555C127.377 45.6942 127.54 45.7824 127.741 45.7824ZM138.724 36.5926C138.586 36.4413 138.411 36.3657 138.198 36.3657H127.741C127.54 36.3657 127.365 36.4413 127.227 36.5926C127.077 36.7438 127.001 36.9077 127.001 37.1094V38.8239C127.001 38.8617 127.014 38.8995 127.026 38.9373C127.214 39.2525 127.453 39.4163 127.741 39.4163H138.198C138.411 39.4163 138.586 39.3407 138.724 39.1894C138.862 39.0382 138.937 38.8617 138.937 38.6474V37.1094C138.937 36.9077 138.875 36.7438 138.724 36.5926ZM138.198 49.1104H127.741C127.453 49.1104 127.214 49.2743 127.026 49.5895C127.014 49.6273 127.001 49.6651 127.001 49.7029V51.4173C127.001 51.619 127.077 51.7829 127.227 51.9342C127.377 52.0855 127.553 52.1611 127.741 52.1611H138.198C138.411 52.1611 138.586 52.0855 138.724 51.9342C138.862 51.7829 138.937 51.619 138.937 51.4173V49.8794C138.937 49.6651 138.862 49.4886 138.724 49.3373C138.586 49.1735 138.411 49.1104 138.198 49.1104Z" fill="white"/>
<path fill-rule="evenodd" clip-rule="evenodd" d="M70.7584 60.3425C70.4324 60.7081 69.9304 60.9476 69.3914 60.9476C68.2124 60.9476 67.2974 60.0399 67.2974 58.7415C67.2974 57.4305 68.2124 56.5354 69.3914 56.5354C69.9304 56.5354 70.4324 56.775 70.7584 57.1405C70.8204 57.2162 70.9334 57.2288 71.0214 57.1657C71.1344 57.0901 71.1464 56.9388 71.0594 56.838C70.6454 56.4094 70.0934 56.1447 69.4044 56.1447C67.9874 56.1447 66.8584 57.2036 66.8584 58.7415C66.8584 60.2795 67.9744 61.3384 69.4044 61.3384C70.2064 61.3384 70.7834 60.9854 71.2344 60.4433L71.0344 60.3173C70.9334 60.2668 70.8204 60.2668 70.7584 60.3425ZM79.6474 56.6111C77.2274 55.3757 75.4594 56.7497 75.4594 58.7415C75.4594 60.2164 76.4254 61.3384 77.8924 61.3384C79.9984 61.3384 81.0764 59.0062 79.7354 56.6867C79.7224 56.6615 79.6854 56.6237 79.6474 56.6111ZM77.8924 60.9476C76.6764 60.9476 75.9114 60.0021 75.9114 58.7415C75.9114 57.4557 76.6764 56.5354 77.8924 56.5354C79.0954 56.5354 79.8734 57.4683 79.8734 58.7415C79.8734 60.0021 79.0954 60.9476 77.8924 60.9476ZM90.4054 56.2203H90.3544C90.2674 56.2203 90.1794 56.2833 90.1544 56.3716L89.1884 59.9265C89.1384 60.1282 88.8504 60.1282 88.7874 59.9265L87.8094 56.3716C87.7844 56.2833 87.7094 56.2203 87.6094 56.2203H87.5334C87.4464 56.2203 87.3584 56.2833 87.3334 56.3716L86.3424 59.9265C86.2804 60.1282 86.0044 60.1282 85.9414 59.9265L84.9764 56.3716C84.9514 56.2833 84.8754 56.2203 84.7754 56.2203H84.7254C84.5874 56.2203 84.4874 56.359 84.5244 56.485L85.8414 61.0989C85.8664 61.1871 85.9544 61.2501 86.0414 61.2501H86.2044C86.2924 61.2501 86.3804 61.1871 86.4054 61.0989L87.3704 57.6448C87.4214 57.4431 87.7094 57.4431 87.7724 57.6448L88.7374 61.0989C88.7624 61.1871 88.8374 61.2501 88.9384 61.2501H89.1014C89.1884 61.2501 89.2764 61.1871 89.3014 61.0989L90.6054 56.485C90.6434 56.3464 90.5424 56.2203 90.4054 56.2203ZM99.0064 56.6111C96.5864 55.3757 94.8184 56.7497 94.8184 58.7415C94.8184 60.2164 95.7834 61.3384 97.2504 61.3384C99.3574 61.3384 100.435 59.0062 99.0934 56.6867C99.0684 56.6615 99.0434 56.6237 99.0064 56.6111ZM97.2504 60.9476C96.0344 60.9476 95.2694 60.0021 95.2694 58.7415C95.2694 57.4557 96.0344 56.5354 97.2504 56.5354C98.4544 56.5354 99.2314 57.4683 99.2314 58.7415C99.2314 60.0021 98.4544 60.9476 97.2504 60.9476ZM106.604 59.0945C107.205 58.9558 107.682 58.4642 107.682 57.6826C107.682 56.7624 107.017 56.2077 106.152 56.2077H104.497C104.384 56.2077 104.284 56.2959 104.284 56.422V61.0358C104.284 61.1493 104.372 61.2501 104.497 61.2501H104.51C104.623 61.2501 104.723 61.1619 104.723 61.0358V59.3718C104.723 59.2584 104.811 59.1575 104.936 59.1575H105.726C105.789 59.1575 105.864 59.1953 105.901 59.2458L107.18 61.1493C107.218 61.2123 107.281 61.2375 107.356 61.2375H107.77L106.516 59.4096C106.403 59.3088 106.466 59.1323 106.604 59.0945ZM104.923 58.7793C104.811 58.7793 104.71 58.6911 104.71 58.565V56.8128C104.71 56.6993 104.798 56.5985 104.923 56.5985H106.127C106.792 56.5985 107.243 57.0397 107.243 57.6826C107.243 58.3255 106.792 58.7667 106.127 58.7667H104.923V58.7793ZM113.687 58.4768L115.694 56.2203H115.242C115.179 56.2203 115.129 56.2455 115.092 56.2959L113.098 58.565C112.973 58.7037 112.735 58.6155 112.735 58.4264V56.4346C112.735 56.3211 112.647 56.2203 112.521 56.2203H112.509C112.396 56.2203 112.296 56.3085 112.296 56.4346V61.0484C112.296 61.1619 112.384 61.2627 112.509 61.2627H112.521C112.634 61.2627 112.735 61.1745 112.735 61.0484V59.5735C112.735 59.5231 112.76 59.4727 112.785 59.4348L113.136 59.0567C113.224 58.9684 113.361 58.9684 113.449 59.0567L115.305 61.1745C115.342 61.2249 115.405 61.2501 115.455 61.2501H115.907L113.687 58.7541C113.625 58.6785 113.625 58.565 113.687 58.4768ZM120.483 56.2203H120.47C120.358 56.2203 120.257 56.3085 120.257 56.4346V61.0484C120.257 61.1619 120.345 61.2627 120.47 61.2627H120.483C120.596 61.2627 120.696 61.1745 120.696 61.0484V56.4346C120.684 56.3085 120.596 56.2203 120.483 56.2203ZM129.297 56.2203H129.285C129.172 56.2203 129.071 56.3085 129.071 56.4346V59.8635C129.071 60.0652 128.821 60.1534 128.695 59.9895L125.987 56.3211C125.95 56.2707 125.887 56.2329 125.824 56.2329H125.699C125.586 56.2329 125.486 56.3211 125.486 56.4472V61.061C125.486 61.1745 125.573 61.2753 125.699 61.2753H125.711C125.824 61.2753 125.924 61.1871 125.924 61.061V57.5818C125.924 57.3801 126.175 57.2918 126.301 57.4557L129.021 61.1871C129.059 61.2375 129.122 61.2753 129.184 61.2753H129.297C129.41 61.2753 129.51 61.1871 129.51 61.061V56.4472C129.498 56.3085 129.41 56.2203 129.297 56.2203ZM138.337 58.7541H136.218V59.1449H137.898C138.011 59.1449 138.111 59.2331 138.111 59.3592V60.2668C138.111 60.3299 138.086 60.3803 138.049 60.4181C137.76 60.6829 137.259 60.9728 136.644 60.9728C135.466 60.9728 134.551 60.0525 134.551 58.7541C134.551 57.4431 135.466 56.5481 136.644 56.5481C137.221 56.5481 137.735 56.775 138.099 57.1279C138.174 57.191 138.274 57.2036 138.362 57.1405L138.538 57.0145C138.074 56.485 137.484 56.1573 136.657 56.1573C135.253 56.1573 134.112 57.2036 134.112 58.7541C134.112 60.3047 135.24 61.3636 136.657 61.3636C137.409 61.3636 138.061 61.0484 138.5 60.582C138.538 60.5442 138.563 60.4938 138.563 60.4307V58.9684C138.55 58.8424 138.462 58.7541 138.337 58.7541Z" fill="white"/>
<path fill-rule="evenodd" clip-rule="evenodd" d="M38.4712 30.831C40.3017 29.7595 42.571 29.7595 44.4016 30.831L55.4725 37.2601C57.3156 38.3316 58.444 40.2982 58.444 42.4286V55.2868C58.444 57.4172 57.3031 59.3838 55.4725 60.4553L44.4016 66.8844C42.571 67.9559 40.3017 67.9559 38.4712 66.8844L27.4002 60.4553C25.5571 59.3838 24.4287 57.4172 24.4287 55.2868V42.4286C24.4287 40.2982 25.5571 38.3316 27.4002 37.2601L38.4712 30.831ZM49.5672 51.442H47.4984C47.0972 51.442 46.8214 51.6184 46.6459 51.984C46.2697 52.879 45.693 53.5976 44.9156 54.127C44.364 54.5052 43.7245 54.7447 42.9973 54.8456C42.7717 54.8834 42.5961 54.9843 42.4582 55.1481C42.3203 55.312 42.2451 55.5137 42.2451 55.7532V57.6441C42.2451 57.9341 42.3454 58.161 42.5585 58.3123C42.709 58.4635 42.9096 58.5392 43.1478 58.5392H43.2732C44.7526 58.2997 46.0691 57.7702 47.2351 56.9634C48.7397 55.8793 49.7929 54.4422 50.4198 52.6395C50.5201 52.3496 50.4825 52.0723 50.3195 51.8075C50.1189 51.5806 49.8681 51.442 49.5672 51.442ZM39.5243 39.3023C37.6813 39.6679 36.114 40.5503 34.8477 41.9622C33.2052 43.8027 32.3903 46.1096 32.3903 48.8703C32.3903 51.631 33.2052 53.9254 34.8477 55.7784C36.1266 57.1777 37.6813 58.0728 39.5243 58.4635H39.6999C39.9381 58.4635 40.1387 58.4005 40.2892 58.2618C40.5148 58.0854 40.6277 57.8585 40.6277 57.5685V55.5263C40.6277 55.3372 40.565 55.1607 40.4271 54.9969C40.3017 54.833 40.1387 54.7195 39.9506 54.6691C38.9977 54.3918 38.2204 53.9127 37.606 53.2194C36.6155 52.1101 36.1266 50.673 36.1266 48.8703C36.1266 47.0928 36.6155 45.6431 37.606 44.5212C38.095 43.9917 38.6843 43.5631 39.3739 43.248C39.5118 43.185 39.6999 43.1219 39.9506 43.0715C40.1387 43.0085 40.3017 42.8824 40.4271 42.7185C40.5524 42.5547 40.6277 42.3782 40.6277 42.1891V40.1721C40.6402 39.8822 40.5274 39.6426 40.3017 39.4788C40.0635 39.2897 39.8002 39.2266 39.5243 39.3023ZM42.546 39.3653C42.3328 39.5166 42.2325 39.7435 42.2325 40.0334V41.9243C42.2325 42.1639 42.2952 42.3656 42.4457 42.5294C42.5836 42.7311 42.7717 42.832 43.0224 42.8572C43.6744 42.958 44.3013 43.1976 44.9156 43.5757C45.693 44.1052 46.2697 44.8237 46.6459 45.7188C46.8214 46.0844 47.0972 46.2608 47.4984 46.2608H49.5672C49.8806 46.2608 50.1314 46.1348 50.3195 45.8701C50.495 45.6053 50.5326 45.3406 50.4198 45.0381C49.7929 43.248 48.7397 41.8109 47.2351 40.7142C46.0817 39.9074 44.7652 39.3779 43.2732 39.1384C42.9973 39.1006 42.7591 39.1762 42.546 39.3653Z" fill="white"/>
</svg>
