<svg width="24" height="24" viewBox="0 0 24 24" fill="none" xmlns="http://www.w3.org/2000/svg">
<g clip-path="url(#clip0)">
<path d="M5.31373 0H18.5557C19.1995 0 19.8253 0.1032 20.4325 0.3192C21.3196 0.643573 22.1032 1.20015 22.7017 1.9308C23.3103 2.66722 23.7071 3.55533 23.8495 4.5C23.9053 4.8468 23.9143 5.1942 23.9143 5.5398V18.5058C23.9143 18.9192 23.8957 19.341 23.8117 19.7442C23.6231 20.6761 23.188 21.5403 22.5517 22.2468C21.9222 22.9497 21.1158 23.4712 20.2165 23.757C19.6747 23.9222 19.1108 24.0041 18.5443 24C18.2923 24 5.27473 24 5.07853 23.9898C4.11794 23.942 3.1883 23.6345 2.38873 23.1C1.60992 22.5702 0.982856 21.8464 0.569531 21C0.216477 20.2727 0.0342406 19.4744 0.0367312 18.666V5.334C0.0167887 4.54013 0.186484 3.75295 0.531731 3.0378C0.935396 2.1874 1.55759 1.4594 2.33473 0.9282C3.12701 0.383709 4.05433 0.0687191 5.01433 0.018C5.10733 0 5.20933 0 5.31373 0Z" fill="url(#paint0_linear)"/>
<path d="M20.1708 19.6308C20.086 19.4969 19.9926 19.3686 19.8912 19.2468C19.6581 18.9676 19.3878 18.7217 19.0878 18.516C18.7157 18.2585 18.2796 18.109 17.8278 18.084C17.5091 18.0679 17.1906 18.119 16.893 18.234C16.593 18.345 16.3032 18.48 16.0248 18.6372C15.699 18.8112 15.3654 18.9714 15.0252 19.116C14.6148 19.284 14.1852 19.416 13.746 19.509C13.1976 19.6086 12.6408 19.653 12.084 19.641C11.085 19.6223 10.0929 19.471 9.1338 19.191C8.29569 18.9395 7.49014 18.59 6.7338 18.15C6.07442 17.7676 5.45178 17.3251 4.8738 16.8282C4.40236 16.4183 3.95972 15.9765 3.549 15.5058C3.26604 15.1744 2.99816 14.8305 2.7462 14.475C2.64413 14.3341 2.55057 14.1872 2.466 14.0352L0 11.3622V5.316C0 2.3802 2.3628 0 5.286 0H10.002L13.494 3.5628C21.3762 8.943 18.8262 14.8782 18.8262 14.8782C18.8262 14.8782 21.0678 17.409 20.1708 19.6308Z" fill="url(#paint1_linear)"/>
<path d="M13.513 3.56299C21.3946 8.94319 18.8446 14.8784 18.8446 14.8784C18.8446 14.8784 21.0856 17.4182 20.1808 19.6412C20.1808 19.6412 19.2556 18.0842 17.7058 18.0842C16.2118 18.0842 15.334 19.6412 12.3256 19.6412C5.63082 19.6412 2.46582 14.0252 2.46582 14.0252C8.49762 18.0092 12.616 15.1874 12.616 15.1874C9.89982 13.604 4.11762 6.02839 4.11762 6.02839C9.15162 10.331 11.3278 11.4662 11.3278 11.4662C10.03 10.3874 6.38802 5.11939 6.38802 5.11939C9.29982 8.08039 15.0898 12.2162 15.0898 12.2162C16.7338 7.64119 13.5118 3.56299 13.5118 3.56299H13.513Z" fill="white"/>
</g>
<defs>
<linearGradient id="paint0_linear" x1="14.2201" y1="-0.8562" x2="9.65953" y2="24.8514" gradientUnits="userSpaceOnUse">
<stop stop-color="#FAAE42"/>
<stop offset="1" stop-color="#EF3E31"/>
</linearGradient>
<linearGradient id="paint1_linear" x1="12.1974" y1="0.3876" x2="9.1212" y2="19.2468" gradientUnits="userSpaceOnUse">
<stop stop-color="#E39F3A"/>
<stop offset="1" stop-color="#D33929"/>
</linearGradient>
<clipPath id="clip0">
<rect width="24" height="24" fill="white"/>
</clipPath>
</defs>
</svg>
