<svg width="56" height="56" viewBox="0 0 56 56" fill="none" xmlns="http://www.w3.org/2000/svg">
<path d="M42.0003 9.3335H23.3337C20.7563 9.3335 18.667 11.4228 18.667 14.0002V32.6668C18.667 35.2442 20.7563 37.3335 23.3337 37.3335H42.0003C44.5777 37.3335 46.667 35.2442 46.667 32.6668V14.0002C46.667 11.4228 44.5777 9.3335 42.0003 9.3335Z" stroke="#1B5BF7" stroke-width="3.5" stroke-linecap="round" stroke-linejoin="round"/>
<path d="M32.6663 18.6665H13.9997C11.4223 18.6665 9.33301 20.7558 9.33301 23.3332V41.9998C9.33301 44.5772 11.4223 46.6665 13.9997 46.6665H32.6663C35.2437 46.6665 37.333 44.5772 37.333 41.9998V23.3332C37.333 20.7558 35.2437 18.6665 32.6663 18.6665Z" stroke="#1B5BF7" stroke-width="3.5" stroke-linecap="round" stroke-linejoin="round"/>
</svg>
