<svg width="48" height="48" viewBox="0 0 48 48" fill="none" xmlns="http://www.w3.org/2000/svg">
<circle cx="24" cy="24" r="24" fill="#F4F7FF"/>
<path d="M23.0653 27.3851C23.6121 27.8198 24.3866 27.8196 24.933 27.3845L30.308 23.1056C31.0265 22.5367 31.0276 21.4468 30.3104 20.8764L24.9331 16.5998C24.3866 16.1651 23.6123 16.1651 23.0658 16.5998L17.6832 20.8805C16.9678 21.4495 16.9674 22.536 17.6823 23.1056L23.0653 27.3851Z" fill="#1B5BF7"/>
<path opacity="0.3" fill-rule="evenodd" clip-rule="evenodd" d="M24.9241 29.6115C24.3776 30.0461 23.6035 30.0462 23.057 29.6117L18.2892 25.8213C17.9504 25.5519 17.4568 25.6115 17.1918 25.9537C16.9281 26.2942 16.9919 26.7844 17.3341 27.0461L23.0867 31.446C23.6245 31.8573 24.3712 31.8574 24.909 31.4461L30.6588 27.0501C31.0039 26.7863 31.068 26.2919 30.8018 25.9488C30.5346 25.6044 30.0376 25.5447 29.6965 25.816L24.9241 29.6115Z" fill="#1B5BF7"/>
</svg>
